SplineFontDB: 3.2
FontName: twemoji_faces
FullName: twemoji_faces
FamilyName: twemoji_faces
Weight: Regular
Copyright: dragon dick cock
UComments: "2023-7-8: Created with FontForge (http://fontforge.org)"
Version: 001.000
ItalicAngle: 0
UnderlinePosition: -108
UnderlineWidth: 48
Ascent: 756
Descent: 108
InvalidEm: 0
LayerCount: 2
Layer: 0 0 "Back" 1
Layer: 1 1 "Fore" 0
XUID: [1021 677 1622773792 2229825]
StyleMap: 0x0000
FSType: 0
OS2Version: 0
OS2_WeightWidthSlopeOnly: 1
OS2_UseTypoMetrics: 1
CreationTime: 1688857346
ModificationTime: 1690147181
PfmFamily: 81
TTFWeight: 400
TTFWidth: 5
LineGap: 78
VLineGap: 0
Panose: 5 2 1 3 1 2 2 2 2 2
OS2TypoAscent: 0
OS2TypoAOffset: 1
OS2TypoDescent: 0
OS2TypoDOffset: 1
OS2TypoLinegap: 78
OS2WinAscent: 0
OS2WinAOffset: 1
OS2WinDescent: 0
OS2WinDOffset: 1
HheadAscent: 0
HheadAOffset: 1
HheadDescent: 0
HheadDOffset: 1
OS2FamilyClass: 3072
OS2Vendor: '12;;'
Lookup: 4 0 0 "'ccmp' Glyph Composition/Decomposition lookup 0" { "'ccmp' Glyph Composition/Decomposition lookup 0-1"  } ['ccmp' ('DFLT' <'dflt' > ) ]
MarkAttachClasses: 1
DEI: 91125
ShortTable: maxp 16
  0
  0
  0
  0
  0
  0
  0
  2
  1
  2
  22
  0
  256
  0
  0
  0
EndShort
TtTable: prep
PUSHW_1
 511
SCANCTRL
PUSHB_1
 1
SCANTYPE
SVTCA[y-axis]
MPPEM
PUSHB_1
 8
LT
IF
PUSHB_2
 1
 1
INSTCTRL
EIF
PUSHB_2
 70
 6
CALL
IF
POP
PUSHB_1
 16
EIF
MPPEM
PUSHB_1
 20
GT
IF
POP
PUSHB_1
 128
EIF
SCVTCI
PUSHB_1
 6
CALL
NOT
IF
EIF
PUSHB_1
 20
CALL
EndTTInstrs
TtTable: fpgm
PUSHB_1
 0
FDEF
PUSHB_1
 0
SZP0
MPPEM
PUSHB_1
 42
LT
IF
PUSHB_1
 74
SROUND
EIF
PUSHB_1
 0
SWAP
MIAP[rnd]
RTG
PUSHB_1
 6
CALL
IF
RTDG
EIF
MPPEM
PUSHB_1
 42
LT
IF
RDTG
EIF
DUP
MDRP[rp0,rnd,grey]
PUSHB_1
 1
SZP0
MDAP[no-rnd]
RTG
ENDF
PUSHB_1
 1
FDEF
DUP
MDRP[rp0,min,white]
PUSHB_1
 12
CALL
ENDF
PUSHB_1
 2
FDEF
MPPEM
GT
IF
RCVT
SWAP
EIF
POP
ENDF
PUSHB_1
 3
FDEF
ROUND[Black]
RTG
DUP
PUSHB_1
 64
LT
IF
POP
PUSHB_1
 64
EIF
ENDF
PUSHB_1
 4
FDEF
PUSHB_1
 6
CALL
IF
POP
SWAP
POP
ROFF
IF
MDRP[rp0,min,rnd,black]
ELSE
MDRP[min,rnd,black]

StartChar: eyebrow.13
Encoding: 0 -1 0
Width: 0
GlyphClass: 5
Flags: W
LayerCount: 2
Back
SplineSet
5.8314261128 -23.2853812618 m 5
 5.8314261128 -23.2853812618 5.83359665285 -23.2940484132 5.81245051345 -23.2901251617 c 1
 3.96614122503 -23.7609122709 2.01233346598 -24.008800147 0.00108527002429 -24.008800147 c 1
 -13.2473398977 -24.008800147 -24.0033813013 -13.2527587434 -24.0033813013 -0.00433357566378 c 1
 -24.0033813013 11.2328433961 -16.2652090599 20.6769355205 -5.8314261128 23.2853812618 c 1
 -5.8314261128 23.2853812618 -5.96332255109 23.2517728656 -5.91115970543 23.2652546695 c 1
 -5.85588158214 23.2795416359 -3.67888864072 23.8446529662 0.100196149161 25.114758598 c 1
 3.50132956663 26.2578392507 8.19982496417 27.9719360955 13.8176101408 30.3634430382 c 1
 19.4354583357 32.7549768079 25.9719623664 35.8238607971 33.0534937519 39.66926733 c 1
 38.7188176825 42.7456462186 44.7326968248 46.3186849405 50.9089731424 50.4362024856 c 1
 62.0284206749 57.8491675072 73.6638489507 67.0211503294 84.8054437021 78.2417634832 c 1
 90.9961992535 84.4764251024 97.0369434376 91.3441818967 102.769155593 98.9091421566 c 1
 109.934814975 108.365862701 116.620572793 118.911450657 122.519752004 130.70980908 c 9
 122.544003939 130.758312949 l 17
 126.482562047 138.635429165 134.627050937 144.049661279 144.026122598 144.049661279 c 1
 157.273236157 144.049661279 168.0282127 133.294684736 168.0282127 120.047571177 c 1
 168.0282127 116.199529278 167.12071291 112.561772712 165.480247996 109.29019092 c 1
 158.210702927 94.7511007837 149.921327099 81.6688542288 141.048821808 69.9595615324 c 1
 133.950502226 60.5917111996 126.480374816 52.1022230135 118.860528626 44.4283353612 c 1
 105.143040243 30.6135598266 90.9482597092 19.4439280575 77.486088586 10.4691473087 c 1
 70.0059100949 5.48236164793 62.7487017599 1.17142704698 55.9089152548 -2.54270740763 c 1
 47.3590585957 -7.18544255381 39.4610137092 -10.8961690255 32.5845304543 -13.8235072786 c 1
 25.7079841812 -16.7508723587 19.8523655964 -18.8949090986 15.3829808389 -20.3970163725 c 1
 9.79634106831 -22.2746198216 6.37509893212 -23.1494630568 5.8314261128 -23.2853812618 c 5
0 0 m 17
 0 0 96 24 144 120 c 1033
EndSplineSet
Fore
SplineSet
-24 0 m 131,-1,1
 -24 10 -24 10 -17 17 c 1,2,3
 -13 21 -13 21 -7 23 c 1,4,5
 81 51 81 51 122 130 c 1,6,7
 124 134 124 134 127 137 c 1,8,9
 134 144 134 144 144 144 c 131,-1,10
 154 144 154 144 161 137 c 129,-1,11
 168 130 168 130 168 120 c 3,12,13
 168 115 168 115 166 110 c 1,14,15
 114 11 114 11 7 -23 c 1,16,17
 4 -24 4 -24 0 -24 c 3,18,19
 -10 -24 -10 -24 -17 -17 c 129,-1,0
 -24 -10 -24 -10 -24 0 c 131,-1,1
EndSplineSet
Colour: ff00ff
EndChar

StartChar: eyebrow.12b
Encoding: 1 -1 1
Width: 0
GlyphClass: 5
Flags: W
LayerCount: 2
Back
SplineSet
5.83142609649 23.2853812659 m 4
 16.2863551915 20.6808587817 24.0245274409 11.2367666534 24.0245274409 -0.00041032424048 c 0
 24.0245274409 -13.2488354919 13.2684860373 -24.0048768955 0.0200608696366 -24.0048768955 c 0
 -1.99118732046 -24.0048768955 -3.94499507399 -23.7569890209 -5.81245049688 -23.2901251658 c 2
 -5.83142609649 -23.2853812659 l 1
 -5.83142609649 -23.2853812659 -5.75222579672 -23.3049189376 -5.79712945513 -23.2939367678 c 0
 -5.92277131018 -23.26320831 -7.77061051583 -22.8144055961 -10.9526046839 -22.1924451305 c 0
 -13.8161762229 -21.632724341 -17.7604482126 -20.9328800569 -22.4959267622 -20.2682514886 c 0
 -27.2310945183 -19.6036665404 -32.7576609216 -18.9746871989 -38.7757879122 -18.5495656455 c 0
 -43.5899673713 -18.2094911583 -48.7184353201 -18 -54 -18 c 0
 -58.5845150254 -18 -63.2922595014 -18.1578401133 -68.0188758573 -18.51920222 c 0
 -71.8001212626 -18.8082882601 -75.5931809216 -19.227567773 -79.3441593038 -19.7958978309 c 0
 -83.0951752852 -20.3642335856 -86.80373041 -21.0816900279 -90.4174793649 -21.9614416462 c 0
 -93.3085352446 -22.665256748 -96.1387160832 -23.472790749 -98.8836665386 -24.3877742341 c 0
 -102.589785802 -25.6231473219 -106.138836809 -27.0541210455 -109.485653615 -28.6846215409 c 0
 -112.461214903 -30.1342539628 -115.276580607 -31.7406596393 -117.918770447 -33.5108396309 c 0
 -121.222682124 -35.7243514143 -124.255969151 -38.1904391507 -127.032765 -40.967235 c 0
 -131.376168137 -45.3106381374 -137.374991601 -47.9986209489 -143.996672904 -47.9986209489 c 0
 -157.240035511 -47.9986209489 -167.991966757 -37.2466897028 -167.991966757 -24.0033270959 c 0
 -167.991966757 -17.3816457925 -165.303983946 -11.3828223293 -160.967235 -7.032765 c 0
 -155.842796281 -1.90832628135 -150.324541369 2.55135949232 -144.587173455 6.39520664223 c 0
 -139.996339623 9.47091379737 -135.265249559 12.1546099384 -130.463134679 14.4941018031 c 0
 -125.060065797 17.12636613 -119.566592799 19.3241075414 -114.054605066 21.1614367855 c 0
 -109.971328117 22.5225291019 -105.876939719 23.6859884316 -101.794660742 24.6798016656 c 0
 -96.6917411266 25.9220854671 -91.6074314012 26.89953164 -86.582308545 27.660913891 c 0
 -81.5571480896 28.4223018388 -76.5907949235 28.9675557221 -71.7222758091 29.3397666636 c 0
 -65.6366865152 29.8050257839 -59.7035508182 30 -54 30 c 0
 -47.4297128281 30 -41.1745502327 29.7412698506 -35.3507849341 29.3298780414 c 0
 -28.0714809775 28.8156667244 -21.4657504749 28.0627429007 -15.7756781761 27.2641362622 c 0
 -10.0859166708 26.465573244 -5.31200545673 25.6209375199 -1.70637345293 24.916171753 c 0
 2.80032790385 24.0352807374 5.48178837658 23.3727906958 5.83142609649 23.2853812659 c 4
0 0 m 17
 0 0 -96 24 -144 -24 c 1033
EndSplineSet
Fore
SplineSet
-168 -24 m 131,-1,1
 -168 -14 -168 -14 -161 -7 c 1,2,3
 -132 21 -132 21 -87.5 27.5 c 129,-1,4
 -43 34 -43 34 7 23 c 5,5,6
 13 21 13 21 17 17 c 5,7,8
 24 10 24 10 24 0 c 135,-1,9
 24 -10 24 -10 17 -17 c 133,-1,10
 10 -24 10 -24 -0 -24 c 7,11,12
 -4 -24 -4 -24 -7 -23 c 5,13,14
 -46 -15 -46 -15 -78 -19.5 c 129,-1,15
 -110 -24 -110 -24 -127 -41 c 1,16,17
 -134 -48 -134 -48 -144 -48 c 131,-1,18
 -154 -48 -154 -48 -161 -41 c 129,-1,0
 -168 -34 -168 -34 -168 -24 c 131,-1,1
-144 -24 m 1049,19,-1
EndSplineSet
Colour: ff00ff
EndChar

StartChar: eyebrow.15
Encoding: 2 -1 2
Width: 0
GlyphClass: 5
Flags: W
LayerCount: 2
Back
SplineSet
0 -24 m 0
 -13.245960024 -24 -24.000000024 -13.24596 -24.000000024 0 c 0
 -24.000000024 13.24596 -13.245960024 24 -2.4000000012e-08 24 c 2
 0 24 l 2
 0.0001953125 24 -0.258670434394 23.9982217383 -0.258670434394 23.9982217383 c 1
 -0.258670434394 23.9982217383 -0.291049530209 23.9974760732 -0.269862840249 23.9980330217 c 0
 -0.198867012659 23.9998993359 0.673301822821 24.02556228 2.224758882 24.1853113678 c 0
 3.62112425528 24.3290911091 5.56760321835 24.5814407623 7.97696088527 25.0211045701 c 0
 12.8573364326 25.9116840495 19.6292754899 27.5701237626 27.6103879471 30.6397824 c 0
 33.9968361486 33.0961086313 41.1581613823 36.4537999039 48.7850233658 41.0601224881 c 0
 53.0227305859 43.619529819 57.4052811616 46.5651430963 61.8836508786 49.9630858611 c 0
 67.4817061045 54.2105849408 73.230301368 59.164771368 79.032765 64.967235 c 0
 83.3761681374 69.3106381374 89.3749916006 71.9986209489 95.9966729041 71.9986209489 c 0
 109.240035511 71.9986209489 119.991966757 61.2466897028 119.991966757 48.0033270959 c 0
 119.991966757 41.3816457925 117.303983946 35.3828223293 112.967235 31.032765 c 0
 101.917141166 19.982671166 90.7464841803 11.0928533247 79.9660986327 3.99178025066 c 0
 71.3413557661 -1.68936436795 62.9691958555 -6.22642954009 55.1049188675 -9.83974599402 c 0
 40.9458548403 -16.3452618984 28.4448736943 -19.8568554479 18.9475285284 -21.7563244811 c 0
 14.1972275474 -22.7063846773 10.194087029 -23.2539948715 7.09422520878 -23.5703073022 c 0
 3.21924899468 -23.9657130383 0.755218442327 -23.9999999996 0 -24 c 0
0 0 m 0
 0 0 48 0 96 48 c 1024
EndSplineSet
Fore
SplineSet
-24 0 m 131,-1,1
 -24 10 -24 10 -17 17 c 128,-1,2
 -10 24 -10 24 0 24 c 1,3,4
 16 25 16 25 37.5 35 c 128,-1,5
 59 45 59 45 79 65 c 1,6,7
 86 72 86 72 96 72 c 131,-1,8
 106 72 106 72 113 65 c 128,-1,9
 120 58 120 58 120 48 c 131,-1,10
 120 38 120 38 113 31 c 1,11,12
 83 2 83 2 52.5 -11 c 128,-1,13
 22 -24 22 -24 0 -24 c 1,14,15
 -10 -24 -10 -24 -17 -17 c 128,-1,0
 -24 -10 -24 -10 -24 0 c 131,-1,1
96 48 m 1049,16,-1
EndSplineSet
Colour: ff00ff
EndChar

StartChar: eyebrow.14
Encoding: 3 -1 3
Width: 0
GlyphClass: 5
Flags: W
LayerCount: 2
Back
SplineSet
-175.032765 -64.967235 m 4
 -179.382822329 -69.3039839455 -185.381645793 -71.991966757 -192.003327096 -71.991966757 c 4
 -205.246689703 -71.991966757 -215.998620949 -61.2400355109 -215.998620949 -47.9966729041 c 4
 -215.998620949 -41.3749916006 -213.310638137 -35.3761681374 -208.967235 -31.032765 c 4
 -202.102738627 -24.1682686272 -194.862697045 -18.060381462 -187.390971066 -12.652193153 c 4
 -181.413218763 -8.32537359171 -175.287501076 -4.44566562248 -169.080890838 -0.972241544216 c 4
 -157.907694372 5.28064822115 -146.476836265 10.2170374187 -135.11610808 14.107697756 c 4
 -128.803820868 16.269439952 -122.511246327 18.1088139905 -116.287026878 19.6713594259 c 4
 -108.506658111 21.624564933 -100.832843823 23.1454574417 -93.3551956801 24.3182378908 c 4
 -85.8774854962 25.4910280702 -78.5955593895 26.3156705668 -71.5967842761 26.8712700138 c 4
 -62.8483457735 27.56576691 -54.5419255229 27.84 -46.848 27.84 c 4
 -33.5538095921 27.84 -22.1114456849 27.0232158888 -13.397121566 26.1059186131 c 4
 -2.50563784325 24.9594466423 4.1251019596 23.6541431376 4.72530666123 23.5341021878 c 4
 15.7134088763 21.3364815713 24.0030475741 11.6268154349 24.0030475741 -0.00372104078026 c 4
 24.0030475741 -13.2517753955 13.2473072236 -24.0075157459 -0.000747131063058 -24.0075157459 c 4
 -1.61826501004 -24.0075157459 -3.19862964545 -23.8471785491 -4.68975694594 -23.5412121315 c 4
 -4.72680092336 -23.5415442694 -4.72530666123 -23.5341021878 -4.72530666123 -23.5341021878 c 5
 -4.72530666123 -23.5341021878 -4.64561894052 -23.5498096636 -4.68030304483 -23.5430457829 c 4
 -4.73521907389 -23.5323363966 -6.18048150731 -23.2517559108 -8.7861330065 -22.8573870352 c 4
 -11.1311495974 -22.5024656053 -14.4160607929 -22.0554081894 -18.4711911912 -21.628552358 c 4
 -25.7700357966 -20.8602529258 -35.5661904079 -20.16 -46.848 -20.16 c 4
 -53.3762966993 -20.16 -60.4098144663 -20.3938195443 -67.7531482499 -20.9767718642 c 4
 -73.6277909655 -21.4431317902 -79.7004566197 -22.1328624789 -85.8711807869 -23.1006673985 c 4
 -92.0419669949 -24.0684820484 -98.3104296486 -25.3144065523 -104.578849071 -26.8880480727 c 4
 -109.593660175 -28.1469802592 -114.608283384 -29.6155030521 -119.575447475 -31.3165866448 c 4
 -128.517731636 -34.3790127274 -137.299987384 -38.1936797712 -145.690637892 -42.8893649182 c 4
 -150.352831529 -45.4984824579 -154.895526705 -48.3795626101 -159.289882604 -51.5602874213 c 4
 -164.78329188 -55.5365295779 -170.045409521 -59.9798795209 -175.032765 -64.967235 c 4
-192 -48 m 17
 -120 24 0 0 0 0 c 1033
EndSplineSet
Fore
SplineSet
-216 -48 m 131,-1,1
 -216 -38 -216 -38 -209 -31 c 1,2,3
 -150 27 -150 27 -47 28 c 1,4,5
 -10 27 -10 27 7 23 c 1,6,7
 13 21 13 21 17 17 c 0,8,9
 24 10 24 10 24 0 c 131,-1,10
 24 -10 24 -10 17 -17 c 128,-1,11
 10 -24 10 -24 -0 -24 c 3,12,13
 -3 -24 -3 -24 -8 -23 c 1,14,15
 -27 -20 -27 -20 -47 -20 c 1,16,17
 -131 -21 -131 -21 -175 -65 c 1,18,19
 -182 -72 -182 -72 -192 -72 c 131,-1,20
 -202 -72 -202 -72 -209 -65 c 128,-1,0
 -216 -58 -216 -58 -216 -48 c 131,-1,1
EndSplineSet
Colour: ff00ff
EndChar

StartChar: circle32
Encoding: 4 -1 4
Width: 0
GlyphClass: 5
Flags: W
LayerCount: 2
Back
SplineSet
-354.76953125 -146.950195312 m 0
 -435.8984375 48.912109375 -342.8125 273.640625 -146.950195312 354.76953125 c 0
 48.912109375 435.8984375 273.640625 342.8125 354.76953125 146.950195312 c 0
 435.8984375 -48.912109375 342.8125 -273.640625 146.950195312 -354.76953125 c 0
 -48.912109375 -435.8984375 -273.640625 -342.8125 -354.76953125 -146.950195312 c 0
0 0 m 1049
-354.76953125 146.950195312 m 0
 -273.640625 342.8125 -48.912109375 435.8984375 146.950195312 354.76953125 c 0
 342.8125 273.640625 435.8984375 48.912109375 354.76953125 -146.950195312 c 0
 273.640625 -342.8125 48.912109375 -435.8984375 -146.950195312 -354.76953125 c 0
 -342.8125 -273.640625 -435.8984375 -48.912109375 -354.76953125 146.950195312 c 0
0 0 m 1049
-271.529296875 271.529296875 m 0
 -121.622070312 421.435546875 121.622070312 421.435546875 271.529296875 271.529296875 c 0
 421.435546875 121.622070312 421.435546875 -121.622070312 271.529296875 -271.529296875 c 0
 121.622070312 -421.435546875 -121.622070312 -421.435546875 -271.529296875 -271.529296875 c 0
 -421.435546875 -121.622070312 -421.435546875 121.622070312 -271.529296875 271.529296875 c 0
0 0 m 1049
-384 0 m 0
 -384 212 -212 384 0 384 c 0
 212 384 384 212 384 0 c 0
 384 -212 212 -384 0 -384 c 0
 -212 -384 -384 -212 -384 0 c 0
0 0 m 1049
EndSplineSet
Fore
SplineSet
-384 0 m 131,-1,1
 -384 158 -384 158 -271 271 c 128,-1,2
 -158 384 -158 384 0 384 c 131,-1,3
 158 384 158 384 271 271 c 128,-1,4
 384 158 384 158 384 0 c 131,-1,5
 384 -158 384 -158 271 -271 c 128,-1,6
 158 -384 158 -384 0 -384 c 131,-1,7
 -158 -384 -158 -384 -271 -271 c 128,-1,0
 -384 -158 -384 -158 -384 0 c 131,-1,1
EndSplineSet
Colour: ff00ff
EndChar

StartChar: SmilingFaceWithHalo.3
Encoding: 5 -1 5
Width: 864
GlyphClass: 5
Flags: W
LayerCount: 2
Back
SplineSet
0 324 m 5
 0 85.4130859375 193.413085938 -108 432 -108 c 5
 670.586914062 -108 864 85.4130859375 864 324 c 5
 864 562.586914062 670.586914062 756 432 756 c 5
 193.413085938 756 0 562.586914062 0 324 c 5
656.0390625 212.904296875 m 5
 651.768554688 216.768554688 645.384765625 217.0078125 640.799804688 213.599609375 c 5
 639.865234375 212.904296875 546.672851562 144 432 144 c 5
 317.615234375 144 224.111328125 212.904296875 223.200195312 213.599609375 c 5
 218.615234375 217.0078125 212.231445312 216.719726562 207.9609375 212.904296875 c 5
 203.711914062 209.064453125 202.752929688 202.727539062 205.704101562 197.831054688 c 5
 208.799804688 192.672851562 282.912109375 72 432 72 c 5
 581.087890625 72 655.223632812 192.672851562 658.295898438 197.831054688 c 5
 661.247070312 202.752929688 660.311523438 209.064453125 656.0390625 212.904296875 c 5
624 300 m 5
 613.943359375 300 604.583984375 306.361328125 601.247070312 316.416015625 c 5
 596.376953125 330.791992188 576.791992188 372 552 372 c 5
 526.51171875 372 506.665039062 328.153320312 502.752929688 316.416015625 c 5
 498.552734375 303.865234375 485.087890625 297.0234375 472.392578125 301.247070312 c 5
 459.838867188 305.423828125 453.0234375 319.0078125 457.223632812 331.607421875 c 5
 460.247070312 340.630859375 488.51953125 420 552 420 c 5
 615.48046875 420 643.752929688 340.630859375 646.752929688 331.583984375 c 5
 650.953125 319.0078125 644.161132812 305.400390625 631.583984375 301.223632812 c 5
 629.064453125 300.408203125 626.49609375 300 624 300 c 5
384 300 m 5
 373.943359375 300 364.583984375 306.361328125 361.223632812 316.416015625 c 5
 356.353515625 330.791992188 336.815429688 372 312 372 c 5
 286.51171875 372 266.688476562 328.153320312 262.776367188 316.416015625 c 5
 258.576171875 303.865234375 245.064453125 297.0234375 232.416015625 301.247070312 c 5
 219.838867188 305.423828125 213.046875 319.0078125 217.247070312 331.607421875 c 5
 220.247070312 340.630859375 248.51953125 420 312 420 c 5
 375.48046875 420 403.752929688 340.630859375 406.776367188 331.583984375 c 5
 410.9765625 319.0078125 404.184570312 305.400390625 391.607421875 301.223632812 c 5
 389.064453125 300.408203125 386.49609375 300 384 300 c 5
796.200195312 556.416015625 m 5
 796.200195312 556.416015625 579.192382812 552.552734375 432 552.552734375 c 5
 338.280273438 552.552734375 67.056640625 555.384765625 67.056640625 555.384765625 c 5
 54.552734375 534.361328125 l 21
 127.583984375 489.815429688 272.087890625 464.353515625 432 464.353515625 c 5
 590.303710938 464.353515625 733.823242188 489.311523438 807.646484375 532.9921875 c 13
 809.51953125 534.119140625 l 5
 809.51953125 534.119140625 800.54296875 550.056640625 796.200195312 556.416015625 c 5
570.646484375 747.719726562 m 5
 541.560546875 749.9765625 511.295898438 751.53515625 480.095703125 752.280273438 c 5
 464.231445312 752.665039062 448.223632812 752.904296875 432 752.904296875 c 5
 415.873046875 752.904296875 399.935546875 752.665039062 384.168945312 752.303710938 c 5
 352.919921875 751.560546875 322.630859375 750 293.51953125 747.743164062 c 5
 128.161132812 734.880859375 4.056640625 697.176757812 4.056640625 629.111328125 c 5
 4.056640625 543 202.392578125 490.607421875 432 490.607421875 c 5
 661.607421875 490.607421875 859.943359375 543 859.943359375 629.111328125 c 5
 859.943359375 697.153320312 735.912109375 734.831054688 570.646484375 747.719726562 c 5
432 578.807617188 m 5
 267.334960938 578.807617188 122.161132812 598.799804688 122.161132812 644.47265625 c 5
 122.161132812 657.334960938 134.015625 669.0234375 154.295898438 679.247070312 c 5
 181.96875 693.192382812 225.768554688 704.303710938 278.831054688 711.623046875 c 5
 324.696289062 717.912109375 377.184570312 721.46484375 432 721.46484375 c 5
 486.984375 721.46484375 539.638671875 717.912109375 585.599609375 711.552734375 c 5
 639.408203125 704.111328125 683.665039062 692.760742188 711.168945312 678.50390625 c 5
 730.53515625 668.47265625 741.838867188 657.046875 741.838867188 644.47265625 c 5
 741.838867188 598.799804688 596.665039062 578.807617188 432 578.807617188 c 5
585.599609375 711.52734375 m 21
 639.408203125 704.087890625 683.665039062 692.735351562 711.168945312 678.48046875 c 13
 712.657226562 678.072265625 l 5
 657.815429688 718.247070312 602.9765625 739.51171875 570.646484375 747.719726562 c 5
 541.560546875 749.9765625 511.295898438 751.53515625 480.095703125 752.280273438 c 5
 480.52734375 752.111328125 l 5
 585.599609375 711.52734375 l 21
154.295898438 679.223632812 m 5
 181.96875 693.168945312 225.768554688 704.280273438 278.831054688 711.599609375 c 13
 383.615234375 752.111328125 l 5
 384.168945312 752.303710938 l 5
 352.919921875 751.560546875 322.630859375 750 293.51953125 747.743164062 c 5
 261.192382812 739.53515625 206.327148438 718.295898438 151.46484375 678.095703125 c 5
 154.295898438 679.223632812 l 5
683.327148438 675 m 5
 667.48828125 685.630859375 651.0234375 696.838867188 635.303710938 705.239257812 c 5
 574.727539062 737.638671875 505.51171875 756 432 756 c 5
 361.704101562 756 295.319335938 739.200195312 236.638671875 709.416015625 c 5
 210.50390625 696.142578125 191.49609375 685.439453125 184.560546875 675 c 5
 683.327148438 675 l 5
EndSplineSet
Fore
Refer: 9 -1 N 1 0 0 1 552 396 0
Refer: 9 -1 N 1 0 0 1 312 396 0
Refer: 11 -1 N 1 0 0 1 432 72 0
Colour: 996633
EndChar

StartChar: lickinglipsmouth
Encoding: 7 -1 7
Width: 864
GlyphClass: 5
Flags: W
LayerCount: 2
Fore
SplineSet
144 228 m 1,0,1
 144 238 144 238 151 245 c 129,-1,2
 158 252 158 252 168 252 c 129,-1,3
 178 252 178 252 185 245 c 1,4,5
 190 240 190 240 192 231 c 1,6,7
 218 153 218 153 280 106.5 c 129,-1,8
 342 60 342 60 432 60 c 129,-1,9
 522 60 522 60 584 106.5 c 129,-1,10
 646 153 646 153 672 231 c 1,11,12
 674 240 674 240 679 245 c 1,13,14
 686 252 686 252 696 252 c 129,-1,15
 706 252 706 252 713 245 c 129,-1,16
 720 238 720 238 720 228 c 1,17,18
 720 225 720 225 719 221 c 1,19,20
 689 126 689 126 614 69 c 129,-1,21
 539 12 539 12 432 12 c 129,-1,22
 325 12 325 12 250 69 c 129,-1,23
 175 126 175 126 145 221 c 1,24,25
 144 225 144 225 144 228 c 1,0,1
EndSplineSet
Colour: ffff00
EndChar

StartChar: mouth.smiling1
Encoding: 8 -1 8
Width: 0
GlyphClass: 5
Flags: W
LayerCount: 2
Back
SplineSet
-111.516601562 116.483398438 m 4
 -111.515625 116.483398438 -111.638671875 116.603515625 -111.638671875 116.603515625 c 5
 -111.638671875 116.603515625 -111.767578125 116.725585938 -111.766601562 116.724609375 c 5
 -111.766601562 116.724609375 -111.778320312 116.735351562 -111.774414062 116.731445312 c 4
 -111.768554688 116.7265625 -111.569335938 116.55078125 -111.141601562 116.232421875 c 4
 -110.756835938 115.946289062 -110.186523438 115.544921875 -109.40625 115.05078125 c 4
 -107.2109375 113.662109375 -103.346679688 111.536132812 -97.26171875 109.196289062 c 4
 -90.41796875 106.564453125 -80.7646484375 103.662109375 -67.5595703125 101.251953125 c 4
 -51.0537109375 98.240234375 -29.0009765625 96 0 96 c 4
 29.0009765625 96 51.0537109375 98.240234375 67.5595703125 101.251953125 c 4
 80.7646484375 103.662109375 90.41796875 106.564453125 97.26171875 109.196289062 c 4
 103.346679688 111.536132812 107.2109375 113.662109375 109.40625 115.05078125 c 4
 110.186523438 115.544921875 110.756835938 115.946289062 111.141601562 116.232421875 c 4
 111.569335938 116.55078125 111.768554688 116.7265625 111.774414062 116.731445312 c 4
 111.778320312 116.735351562 111.766601562 116.724609375 111.766601562 116.724609375 c 5
 111.767578125 116.725585938 111.638671875 116.603515625 111.638671875 116.603515625 c 5
 111.638671875 116.603515625 111.515625 116.483398438 111.516601562 116.483398438 c 4
 112.932617188 117.899414062 114.72265625 118.979492188 116.788085938 119.551757812 c 4
 123.170898438 121.319335938 129.788085938 117.571289062 131.555664062 111.1875 c 4
 132.127929688 109.122070312 132.122070312 107.03125 131.63671875 105.087890625 c 5
 131.87890625 106.057617188 131.400390625 104.114257812 131.642578125 105.083984375 c 5
 131.549804688 104.7109375 130.408203125 100.211914062 127.756835938 93.2265625 c 4
 125.635742188 87.638671875 122.548828125 80.45703125 118.233398438 72.525390625 c 4
 113.91796875 64.5947265625 108.372070312 55.90625 101.303710938 47.3408203125 c 4
 95.6494140625 40.4892578125 89.0166015625 33.71484375 81.265625 27.513671875 c 4
 76.421875 23.6396484375 71.142578125 19.990234375 65.40625 16.697265625 c 4
 58.2353515625 12.580078125 50.3515625 9.021484375 41.73828125 6.2646484375 c 4
 34.84765625 4.0595703125 27.4931640625 2.369140625 19.671875 1.3037109375 c 4
 13.4140625 0.4521484375 6.8583984375 0 0 0 c 4
 -6.8583984375 0 -13.4140625 0.4521484375 -19.671875 1.3037109375 c 4
 -27.4931640625 2.369140625 -34.84765625 4.0595703125 -41.73828125 6.2646484375 c 4
 -50.3515625 9.021484375 -58.2353515625 12.580078125 -65.40625 16.697265625 c 4
 -71.142578125 19.990234375 -76.421875 23.6396484375 -81.265625 27.513671875 c 4
 -89.0166015625 33.71484375 -95.6494140625 40.4892578125 -101.303710938 47.3408203125 c 4
 -108.372070312 55.90625 -113.91796875 64.5947265625 -118.233398438 72.525390625 c 4
 -122.548828125 80.45703125 -125.635742188 87.638671875 -127.756835938 93.2265625 c 4
 -130.408203125 100.211914062 -131.549804688 104.7109375 -131.642578125 105.083984375 c 4
 -132.127929688 107.02734375 -132.133789062 109.118164062 -131.561523438 111.184570312 c 4
 -129.793945312 117.568359375 -123.176757812 121.315429688 -116.794921875 119.547851562 c 4
 -114.728515625 118.9765625 -111.516601562 116.483398438 -111.516601562 116.483398438 c 4
-120 108 m 5
 -120 108 -96 84 0 84 c 4
 96 84 120 108 120 108 c 5
 120 108 96 12 0 12 c 4
 -96 12 -120 108 -120 108 c 5
EndSplineSet
Fore
SplineSet
-132 108 m 259,0,1
 -132 113 -132 113 -128.5 116.5 c 128,-1,2
 -125 120 -125 120 -120 120 c 259,3,4
 -116 120 -116 120 -112 117 c 257,5,6
 -101 108 -101 108 -71 102 c 128,-1,7
 -41 96 -41 96 0 96 c 259,8,9
 41 96 41 96 71 102 c 128,-1,10
 101 108 101 108 112 117 c 257,11,12
 116 120 116 120 120 120 c 259,13,14
 125 120 125 120 128.5 116.5 c 128,-1,15
 132 113 132 113 132 108 c 259,16,17
 132 106 132 106 131 103 c 1,18,19
 116 56 116 56 82 28 c 128,-1,20
 48 0 48 0 0 0 c 259,21,22
 -48 7.1054273576e-15 -48 7.1054273576e-15 -82 28 c 128,-1,23
 -116 56 -116 56 -131 103 c 1,24,25
 -132 106 -132 106 -132 108 c 259,0,1
EndSplineSet
Colour: ff00ff
EndChar

StartChar: eye.smiling
Encoding: 9 -1 9
Width: 0
GlyphClass: 5
Flags: W
LayerCount: 2
Back
SplineSet
-49.2253944924 -79.5854692707 m 1
 -49.2253944924 -79.5854692707 -49.2166189314 -79.5883921204 -49.2290340361 -79.5963879016 c 0
 -52.3950307313 -89.1236275104 -61.3979218845 -96.0060852912 -71.9956122195 -96.0060852912 c 0
 -85.2441242007 -96.0060852912 -96.0002360858 -85.249973406 -96.0002360858 -72.0014614248 c 0
 -96.0002360858 -69.3506397786 -95.5696280581 -66.7995983784 -94.7746055076 -64.4145307293 c 0
 -94.6454282987 -64.026999103 -93.7823162978 -61.4674141233 -92.1586799158 -57.4317088775 c 0
 -90.8595482286 -54.2025914328 -89.0738326085 -50.0283738772 -86.7731761207 -45.2566419024 c 0
 -84.4722446196 -40.4843395297 -81.657534282 -35.1138413053 -78.2714485584 -29.4842996084 c 0
 -75.5622975337 -24.9801966702 -72.4869857112 -20.3085789533 -68.9891882799 -15.644849045 c 0
 -66.0743080083 -11.7583420162 -62.8650231725 -7.87553800403 -59.3094853112 -4.11027705907 c 0
 -56.4652117033 -1.09823422599 -53.3981156825 1.83948048091 -50.0751315066 4.62914620883 c 0
 -46.7527262098 7.41832596415 -43.1726404712 10.0607623943 -39.3073117685 12.4573722346 c 0
 -36.2156274634 14.3743013237 -32.9409706757 16.1333427768 -29.4813901257 17.6709341323 c 0
 -25.5900515448 19.4004179461 -21.4640889861 20.848617289 -17.1283703442 21.9191651018 c 0
 -14.1179171743 22.6624868722 -11.0076581782 23.2234126985 -7.8139258327 23.5738908708 c 0
 -5.25902155558 23.8542644541 -2.65107328538 24 0 24 c 0
 2.65107328538 24 5.25902155558 23.8542644541 7.8139258327 23.5738908708 c 0
 11.0076581782 23.2234126985 14.1179171743 22.6624868722 17.1283703442 21.9191651018 c 0
 21.4640889861 20.848617289 25.5900515448 19.4004179461 29.4813901257 17.6709341323 c 0
 32.9409706757 16.1333427768 36.2156274634 14.3743013237 39.3073117685 12.4573722346 c 0
 43.1726404712 10.0607623943 46.7527262098 7.41832596415 50.0751315066 4.62914620883 c 0
 53.3981156825 1.83948048091 56.4652117033 -1.09823422599 59.3094853112 -4.11027705907 c 0
 62.8650231725 -7.87553800403 66.0743080083 -11.7583420162 68.9891882799 -15.644849045 c 0
 72.4869857112 -20.3085789533 75.5622975337 -24.9801966702 78.2714485584 -29.4842996084 c 0
 81.657534282 -35.1138413053 84.4722446196 -40.4843395297 86.7731761207 -45.2566419024 c 0
 89.0738326085 -50.0283738772 90.8595482286 -54.2025914328 92.1586799158 -57.4317088775 c 0
 93.7823164036 -61.4674143862 94.6454281206 -64.0269985433 94.7746056561 -64.414531175 c 0
 95.5696281117 -66.7995986963 96.0002360858 -69.3506399437 96.0002360858 -72.0014614248 c 0
 96.0002360858 -85.2499734061 85.2441242006 -96.0060852913 71.9956122194 -96.0060852913 c 0
 61.3979217191 -96.0060852913 52.3950304504 -89.1236272959 49.2290338848 -79.5963874485 c 0
 49.2166187826 -79.5883916745 49.2253943439 -79.585468825 49.2253943439 -79.585468825 c 1
 49.2253943439 -79.585468825 49.2566895203 -79.6783188059 49.2434193101 -79.6392666462 c 0
 49.2249530152 -79.5849232196 48.6731742696 -77.9676029056 47.6075481321 -75.3188860866 c 0
 46.6486681115 -72.9354970641 45.2731673407 -69.7168170283 43.5094027545 -66.0586386274 c 0
 41.7459131815 -62.4010306242 39.592997762 -58.3046056886 37.1082530454 -54.1735897811 c 0
 35.1207397179 -50.8692466358 32.921336191 -47.5444922248 30.5663672756 -44.404533671 c 0
 28.6039422584 -41.7879669814 26.5344975018 -39.3015053763 24.409881467 -37.0515690542 c 0
 22.7100319581 -35.2514540735 20.9760933078 -33.6036147108 19.2411312582 -32.1471033605 c 0
 17.5055903295 -30.6901060377 15.7708182884 -29.4257423812 14.064377657 -28.3677023738 c 0
 12.6986464949 -27.5209115846 11.3514644206 -26.8056093125 10.0247827138 -26.2159729983 c 0
 8.53157625585 -25.5523256837 7.06489541666 -25.0467126562 5.59987230171 -24.6849785537 c 0
 4.58203258492 -24.4336601051 3.56364261848 -24.2514553842 2.52836992543 -24.1378452121 c 0
 1.70007017176 -24.0469481198 0.860586522581 -24 0 -24 c 0
 -0.860586522581 -24 -1.70007017176 -24.0469481198 -2.52836992543 -24.1378452121 c 0
 -3.56364261848 -24.2514553842 -4.58203258492 -24.4336601051 -5.59987230171 -24.6849785537 c 0
 -7.06489541666 -25.0467126562 -8.53157625585 -25.5523256837 -10.0247827138 -26.2159729983 c 0
 -11.3514644206 -26.8056093125 -12.6986464949 -27.5209115846 -14.064377657 -28.3677023738 c 0
 -15.7708182884 -29.4257423812 -17.5055903295 -30.6901060377 -19.2411312582 -32.1471033605 c 0
 -20.9760933078 -33.6036147108 -22.7100319581 -35.2514540735 -24.409881467 -37.0515690542 c 0
 -26.5344975018 -39.3015053763 -28.6039422584 -41.7879669814 -30.5663672756 -44.404533671 c 0
 -32.921336191 -47.5444922248 -35.1207397179 -50.8692466358 -37.1082530454 -54.1735897811 c 0
 -39.592997762 -58.3046056886 -41.7459131815 -62.4010306242 -43.5094027545 -66.0586386274 c 0
 -45.2731673407 -69.7168170283 -46.6486681115 -72.9354970641 -47.6075481321 -75.3188860866 c 0
 -48.6731742696 -77.9676029056 -49.2249530152 -79.5849232196 -49.2434193101 -79.6392666462 c 0
 -49.2566893565 -79.6783183237 -49.2253944924 -79.5854692707 -49.2253944924 -79.5854692707 c 1
-72 -72 m 17
 -72 -72 -48 0 0 0 c 1
 48 0 72 -72 72 -72 c 1025
EndSplineSet
Fore
SplineSet
-96 -72 m 3,0,1
 -96 -69 -96 -69 -95 -65 c 1,2,3
 -79 -22 -79 -22 -54 1 c 128,-1,4
 -29 24 -29 24 0 24 c 131,-1,5
 29 24 29 24 54 1 c 128,-1,6
 79 -22 79 -22 95 -65 c 1,7,8
 96 -69 96 -69 96 -72 c 3,9,10
 96 -82 96 -82 89 -89 c 128,-1,11
 82 -96 82 -96 72 -96 c 131,-1,12
 62 -96 62 -96 55 -89 c 1,13,14
 51 -85 51 -85 49 -79 c 1,15,16
 41 -57 41 -57 27.5 -40.5 c 128,-1,17
 14 -24 14 -24 0 -24 c 131,-1,18
 -14 -24 -14 -24 -27.5 -40.5 c 128,-1,19
 -41 -57 -41 -57 -49 -79 c 1,20,21
 -51 -85 -51 -85 -55 -89 c 1,22,23
 -62 -96 -62 -96 -72 -96 c 131,-1,24
 -82 -96 -82 -96 -89 -89 c 128,-1,25
 -96 -82 -96 -82 -96 -72 c 3,0,1
EndSplineSet
Colour: ff00ff
EndChar

StartChar: heart
Encoding: 10 -1 10
Width: 0
GlyphClass: 5
Flags: W
LayerCount: 2
Back
SplineSet
0 0 m 1
 -132 47.9833984375 -316.166992188 222.731445312 -342.825195312 388.373046875 c 0
 -346.091796875 402.403320312 -348 416.958007812 -348 431.978515625 c 0
 -348 538.041015625 -262.036132812 623.98828125 -155.990234375 623.98828125 c 0
 -91.6455078125 623.98828125 -34.849609375 592.213867188 0 543.646484375 c 1
 34.849609375 592.213867188 91.6455078125 623.98828125 156.01171875 623.98828125 c 0
 262.036132812 623.98828125 348 538.021484375 348 431.978515625 c 0
 348 416.939453125 346.091796875 402.384765625 342.78515625 388.354492188 c 4
 316.166992188 222.731445312 131.981445312 47.9833984375 0 0 c 1
EndSplineSet
Fore
SplineSet
-348 432 m 1,0,1
 -348 511 -348 511 -291.5 567.5 c 129,-1,2
 -235 624 -235 624 -156 624 c 1,3,4
 -62 624 -62 624 0 544 c 1,5,6
 62 624 62 624 156 624 c 1,7,8
 235 624 235 624 291.5 567.5 c 129,-1,9
 348 511 348 511 348 432 c 1,10,11
 348 413 348 413 343 389 c 1,12,13
 321 271 321 271 217 157 c 129,-1,14
 113 43 113 43 0 0 c 1,15,16
 -113 43 -113 43 -217.5 157 c 129,-1,17
 -322 271 -322 271 -343 389 c 1,18,19
 -348 413 -348 413 -348 432 c 1,0,1
EndSplineSet
Colour: ff00ff
EndChar

StartChar: mouth.smiling2
Encoding: 11 -1 11
Width: 0
GlyphClass: 5
Flags: W
LayerCount: 2
Back
SplineSet
-208.810078846 141.605705253 m 1
 -208.810078846 141.605705253 -208.822391319 141.614920012 -208.817223283 141.611058262 c 1
 -208.809988133 141.605651886 -208.592772661 141.443421648 -208.173213376 141.139371039 c 1
 -207.795610235 140.865725648 -207.254108786 140.4772058 -206.5542865 139.984745946 c 1
 -205.294607477 139.098318979 -203.521961441 137.875129329 -201.268966144 136.378912552 c 1
 -197.213584392 133.685728848 -191.601783801 130.108002155 -184.624892339 126.016840669 c 1
 -172.066403611 118.652700682 -155.084435073 109.627055889 -134.808372677 101.089766459 c 1
 -114.531759118 92.5522449605 -90.9649569402 84.5070610003 -65.2506638192 79.0576743786 c 1
 -44.6786336224 74.6980388402 -22.736815396 72 0 72 c 1
 22.736815396 72 44.6786336224 74.6980388402 65.2506638192 79.0576743786 c 1
 90.9649569402 84.5070610003 114.531759118 92.5522449605 134.808372677 101.089766459 c 1
 155.084435073 109.627055889 172.066403611 118.652700682 184.624892339 126.016840669 c 1
 191.601783801 130.108002155 197.213584392 133.685728848 201.268966144 136.378912552 c 1
 203.521961441 137.875129329 205.294607477 139.098318979 206.5542865 139.984745946 c 1
 207.254108786 140.4772058 207.795610235 140.865725648 208.173213376 141.139371039 c 1
 208.592772661 141.443421648 208.809988133 141.605651886 208.817223283 141.611058262 c 1
 208.822391152 141.614919887 208.810079 141.605705369 208.810079 141.605705369 c 1
 210.651601353 142.986847086 212.909079865 143.854173234 215.378754688 143.981760708 c 1
 221.99159382 144.323390884 227.637696206 139.232833494 227.979271076 132.62106488 c 1
 228.106837896 130.15178986 227.476617912 127.817318349 226.292370973 125.843573453 c 1
 226.806866729 126.701066378 225.783049798 124.981415096 226.297545554 125.838908022 c 1
 226.141793838 125.579321829 223.840074311 121.764100685 219.374734955 115.59797135 c 1
 215.80243317 110.665026042 210.845186513 104.227194326 204.48931793 96.9035597439 c 1
 198.133511704 89.5799970151 190.378801949 81.3700436516 181.207388834 72.8989624936 c 1
 173.870355181 66.1221870116 165.6262697 59.1781554331 156.465714141 52.3925587229 c 1
 139.978460169 40.1797780024 120.514461639 28.474534744 98.0569392919 19.2327560002 c 1
 85.5815675974 14.0988581835 72.1842189956 9.72693998177 57.8764003411 6.45583375073 c 1
 39.9917448497 2.36697789994 20.686111417 0 0 0 c 1
 -20.686111417 0 -39.9917448497 2.36697789994 -57.8764003411 6.45583375073 c 1
 -72.1842189956 9.72693998177 -85.5815675974 14.0988581835 -98.0569392919 19.2327560002 c 1
 -120.514461639 28.474534744 -139.978460169 40.1797780024 -156.465714141 52.3925587229 c 1
 -165.6262697 59.1781554331 -173.870355181 66.1221870116 -181.207388834 72.8989624936 c 1
 -190.378801949 81.3700436516 -198.133511704 89.5799970151 -204.48931793 96.9035597439 c 1
 -210.845186513 104.227194326 -215.80243317 110.665026042 -219.374734955 115.59797135 c 1
 -223.840074408 121.76410082 -226.141793666 125.579321528 -226.297545697 125.838908261 c 5
 -227.481792583 127.812653172 -228.112012513 130.14712468 -227.984445645 132.616399683 c 1
 -227.642870646 139.228168289 -221.996768161 144.318725569 -215.383929035 143.977095265 c 1
 -212.91425423 143.849507743 -210.656775747 142.982181561 -208.810078846 141.605705253 c 1
-216 132 m 1
 -216 132 -120 60 0 60 c 0
 120 60 216 132 216 132 c 1
 216 132 144 12 0 12 c 0
 -144 12 -216 132 -216 132 c 1
EndSplineSet
Fore
SplineSet
-228 132 m 259,0,1
 -228 137 -228 137 -224.5 140.5 c 128,-1,2
 -221 144 -221 144 -216 144 c 3,3,4
 -212 144 -212 144 -208 141 c 1,5,6
 -165 111 -165 111 -109.5 91.5 c 128,-1,7
 -54 72 -54 72 0 72 c 131,-1,8
 54 72 54 72 109.5 91.5 c 128,-1,9
 165 111 165 111 208 141 c 1,10,11
 212 144 212 144 216 144 c 3,12,13
 221 144 221 144 224.5 140.5 c 128,-1,14
 228 137 228 137 228 132 c 259,15,16
 228 129 228 129 226 125.5 c 128,-1,17
 224 122 224 122 219 115 c 1,18,19
 177 59 177 59 120 29.5 c 128,-1,20
 63 -3.5527136788e-15 63 -3.5527136788e-15 0 0 c 131,-1,21
 -63 -3.5527136788e-15 -63 -3.5527136788e-15 -120 29.5 c 128,-1,22
 -177 59 -177 59 -219 115 c 1,23,24
 -224 122 -224 122 -226 125.5 c 128,-1,25
 -228 129 -228 129 -228 132 c 259,0,1
EndSplineSet
Colour: ff00ff
EndChar

StartChar: eyebrow.2
Encoding: 12 -1 12
Width: 0
GlyphClass: 5
Flags: W
LayerCount: 2
Back
SplineSet
0 24 m 5
 13.24609375 24 24 13.24609375 24 0 c 5
 24 -13.24609375 13.24609375 -24 0 -24 c 13
 0 -24 l 5
 0 -24 0.2744140625 -23.9970703125 0.09375 -24 c 5
 -0.51171875 -24.0107421875 -7.8447265625 -24.189453125 -19.3798828125 -26.3955078125 c 5
 -29.763671875 -28.380859375 -43.5361328125 -32.00390625 -58.9326171875 -38.5556640625 c 5
 -71.251953125 -43.798828125 -84.609375 -50.908203125 -98.193359375 -60.5712890625 c 5
 -115.17578125 -72.65234375 -132.540039062 -88.71484375 -148.7890625 -110.379882812 c 13
 -148.81640625 -110.416015625 l 21
 -153.1953125 -116.254882812 -160.171875 -120.03515625 -168.025390625 -120.03515625 c 5
 -181.26953125 -120.03515625 -192.022460938 -109.283203125 -192.022460938 -96.0390625 c 5
 -192.022460938 -90.6474609375 -190.240234375 -85.6689453125 -187.2109375 -81.6201171875 c 5
 -172.733398438 -62.31640625 -157.236328125 -46.4345703125 -141.608398438 -33.4609375 c 5
 -129.10546875 -23.0810546875 -116.526367188 -14.5625 -104.326171875 -7.591796875 c 5
 -79.9189453125 6.35546875 -57.05859375 14.115234375 -39.0439453125 18.45703125 c 5
 -16.517578125 23.884765625 -1.5048828125 24 0 24 c 5
EndSplineSet
Fore
SplineSet
-192 -96 m 1,0,1
 -192 -87 -192 -87 -186 -80 c 1,2,3
 -153 -37 -153 -37 -110 -11 c 129,-1,4
 -67 15 -67 15 -21 22 c 257,5,6
 -8 24 -8 24 0 24 c 257,7,8
 10 24 10 24 17 17 c 129,-1,9
 24 10 24 10 24 0 c 129,-1,10
 24 -10 24 -10 17 -17 c 129,-1,11
 10 -24 10 -24 0 -24 c 257,12,13
 -5 -24 -5 -24 -17 -26 c 257,14,15
 -52 -32 -52 -32 -86 -52.5 c 129,-1,16
 -120 -73 -120 -73 -147 -108 c 1,17,18
 -155 -120 -155 -120 -168 -120 c 1,19,20
 -178 -120 -178 -120 -185 -113 c 129,-1,21
 -192 -106 -192 -106 -192 -96 c 1,0,1
EndSplineSet
Colour: ff00ff
EndChar

StartChar: mouth.smiling1b
Encoding: 14 -1 14
Width: 0
GlyphClass: 5
Flags: W
LayerCount: 2
Back
SplineSet
-74.1968444553 78.1426951904 m 1
 -74.1968444553 78.1426951904 -74.2778126113 78.1993537673 -74.2235369702 78.1618230224 c 1
 -74.0380944675 78.0335924734 -71.805573815 76.5073483427 -67.6180886113 74.3928382308 c 1
 -63.8490847652 72.4896442237 -58.4969344841 70.1098420258 -51.6226912638 67.8373649282 c 1
 -39.2481612049 63.7466111897 -21.9464436676 60 0 60 c 1
 21.9464436676 60 39.2481612049 63.7466111897 51.6226912638 67.8373649282 c 1
 58.4969344841 70.1098420258 63.8490847652 72.4896442237 67.6180886113 74.3928382308 c 1
 71.805573815 76.5073483427 74.0380944675 78.0335924734 74.2235369702 78.1618230224 c 1
 74.2778128259 78.1993539156 74.1968442595 78.1426950505 74.1968442595 78.1426950505 c 1
 75.5528033353 79.1112372957 77.1694013884 79.7535127881 78.9432587957 79.9416085511 c 1
 84.4301018739 80.5234207819 89.3571112801 76.54086749 89.9389614105 71.0536669955 c 1
 90.1270694261 69.2796940381 89.8381473058 67.5642441874 89.1755746727 66.0352304202 c 1
 89.5731821107 66.9527860454 88.7827320926 65.1138233105 89.1803395306 66.0313789357 c 1
 89.0946989594 65.8337468487 88.226587167 63.846530178 86.5513730076 60.6645100962 c 1
 85.2111245043 58.1187474379 83.3542647588 54.8080117669 80.9619373326 51.0359704005 c 1
 78.5695769458 47.2638770641 75.6418194172 43.0298229878 72.1504108096 38.6399819873 c 1
 69.3572919177 35.1281192382 66.2029653304 31.5160122357 62.6675285091 27.9657827917 c 1
 59.132302117 24.4157646575 55.2151623922 20.9266726656 50.8945492152 17.6727101721 c 1
 47.4383138023 15.0697323212 43.7233593084 12.6173019453 39.7427842972 10.4130149064 c 1
 34.7676393164 7.65797384637 29.3759841942 5.29091095546 23.5764993694 3.51401727478 c 1
 19.5495257784 2.28020010959 15.3271422849 1.33151285291 10.9205484008 0.733153315154 c 1
 7.39535896461 0.254477318004 3.75271293013 0 0 0 c 1
 -3.75271293013 0 -7.39535896461 0.254477318004 -10.9205484008 0.733153315154 c 1
 -15.3271422849 1.33151285291 -19.5495257784 2.28020010959 -23.5764993694 3.51401727478 c 1
 -29.3759841942 5.29091095546 -34.7676393164 7.65797384637 -39.7427842972 10.4130149064 c 1
 -43.7233593084 12.6173019453 -47.4383138023 15.0697323212 -50.8945492152 17.6727101721 c 1
 -55.2151623922 20.9266726656 -59.132302117 24.4157646575 -62.6675285091 27.9657827917 c 1
 -66.2029653304 31.5160122357 -69.3572919177 35.1281192382 -72.1504108096 38.6399819873 c 1
 -75.6418194172 43.0298229878 -78.5695769458 47.2638770641 -80.9619373326 51.0359704005 c 1
 -83.3542647588 54.8080117669 -85.2111245043 58.1187474379 -86.5513730076 60.6645100962 c 1
 -88.2265871794 63.8465302015 -89.0946989384 65.8337467977 -89.1803395481 66.0313789763 c 5
 -89.8429121563 67.5603927044 -90.1318342716 69.2758425055 -89.9437262785 71.0498154148 c 1
 -89.3618762014 76.537015915 -84.4348668341 80.5195692549 -78.9480237504 79.9377570774 c 1
 -77.1741663921 79.7496613371 -75.5575683744 79.1073858916 -74.1968444553 78.1426951904 c 1
-80 70 m 1
 -80 70 -54 10 0 10 c 1
 54 10 80 70 80 70 c 1
 80 70 52 50 0 50 c 1
 -52 50 -80 70 -80 70 c 1
EndSplineSet
Fore
SplineSet
-108 84 m 1,0,1
 -108 89 -108 89 -104.5 92.5 c 129,-1,2
 -101 96 -101 96 -96 96 c 1,3,4
 -92 96 -92 96 -88 93 c 1,5,6
 -71 83 -71 83 -48.5 77.5 c 129,-1,7
 -26 72 -26 72 0 72 c 129,-1,8
 26 72 26 72 48.5 77.5 c 129,-1,9
 71 83 71 83 88 93 c 1,10,11
 92 96 92 96 96 96 c 1,12,13
 101 96 101 96 104.5 92.5 c 129,-1,14
 108 89 108 89 108 84 c 1,15,16
 108 82 108 82 107 79 c 1,17,18
 88 41 88 41 60 20.5 c 129,-1,19
 32 0 32 0 0 0 c 129,-1,20
 -32 0 -32 0 -60 20.5 c 129,-1,21
 -88 41 -88 41 -107 79 c 1,22,23
 -108 82 -108 82 -108 84 c 1,0,1
EndSplineSet
Colour: ff00ff
EndChar

StartChar: LoudlyCryingFace.3
Encoding: 15 -1 15
Width: 864
GlyphClass: 5
Flags: W
LayerCount: 2
Back
SplineSet
432 60 m 0
 392.231445312 60 360 68.2314453125 360 108 c 0
 360 147.768554688 392.231445312 156 432 156 c 0
 471.768554688 156 504 147.768554688 504 108 c 0
 504 68.2314453125 471.768554688 60 432 60 c 0
EndSplineSet
Fore
SplineSet
360 108 m 133,-1,1
 360 133 360 133 377 144.5 c 133,-1,2
 394 156 394 156 432 156 c 133,-1,3
 470 156 470 156 487 144.5 c 133,-1,4
 504 133 504 133 504 108 c 133,-1,5
 504 83 504 83 487 71.5 c 133,-1,6
 470 60 470 60 432 60 c 133,-1,7
 394 60 394 60 377 71.5 c 133,-1,0
 360 83 360 83 360 108 c 133,-1,1
EndSplineSet
EndChar

StartChar: mouth.flat2
Encoding: 16 -1 16
Width: 0
GlyphClass: 5
Flags: W
LayerCount: 2
Fore
SplineSet
-24 0 m 129,-1,1
 -24 10 -24 10 -17 17 c 129,-1,2
 -10 24 -10 24 0 24 c 1,3,4
 0 24 0 24 192 24 c 17,5,6
 202 24 202 24 209 17 c 129,-1,7
 216 10 216 10 216 0 c 129,-1,8
 216 -10 216 -10 209 -17 c 129,-1,9
 202 -24 202 -24 192 -24 c 9,10,11
 192 -24 192 -24 0 -24 c 1,12,13
 -10 -24 -10 -24 -17 -17 c 129,-1,0
 -24 -10 -24 -10 -24 0 c 129,-1,1
EndSplineSet
Colour: ff00ff
EndChar

StartChar: eyebrow.6
Encoding: 17 -1 17
Width: 0
GlyphClass: 5
Flags: W
LayerCount: 2
Back
SplineSet
-168 -120 m 1024
-19.9833984375 13.2890625 m 5
 -19.9833984375 13.2890625 -19.98046875 13.287109375 -19.9521484375 13.3359375 c 0
 -15.677734375 19.7421875 -8.3310546875 23.998046875 0.0009765625 23.998046875 c 0
 13.24609375 23.998046875 24 13.244140625 24 -0.0009765625 c 0
 24 -4.9130859375 22.5205078125 -9.4833984375 19.9833984375 -13.2890625 c 0
 19.1494140625 -14.5400390625 8.564453125 -30.17578125 -14.0283203125 -51.638671875 c 0
 -42.2607421875 -78.458984375 -89.3037109375 -114.375 -159.100585938 -142.29296875 c 0
 -161.853515625 -143.39453125 -164.857421875 -144 -168.001953125 -144 c 0
 -181.25 -144 -192.005859375 -133.244140625 -192.005859375 -119.99609375 c 0
 -192.005859375 -109.892578125 -185.749023438 -101.23828125 -176.9296875 -97.71875 c 0
 -176.90234375 -97.69921875 -176.899414062 -97.70703125 -176.899414062 -97.70703125 c 2
 -126.0625 -77.3720703125 -89.1328125 -52.677734375 -63.865234375 -31.724609375 c 0
 -49.828125 -20.083984375 -39.3974609375 -9.59765625 -32.228515625 -1.66796875 c 0
 -24.2626953125 7.142578125 -20.32421875 12.794921875 -19.955078125 13.3310546875 c 0
 -19.859375 13.470703125 -19.9833984375 13.2890625 -19.9833984375 13.2890625 c 5
EndSplineSet
Fore
SplineSet
-192 -120 m 129,-1,1
 -192 -110 -192 -110 -185 -103 c 1,2,3
 -181 -99 -181 -99 -175 -97 c 1,4,5
 -121 -75 -121 -75 -81.5 -45.5 c 129,-1,6
 -42 -16 -42 -16 -21 12 c 1,7,8
 -13 24 -13 24 0 24 c 1,9,10
 10 24 10 24 17 17 c 129,-1,11
 24 10 24 10 24 0 c 1,12,13
 24 -9 24 -9 18 -16 c 1,14,15
 -7 -50 -7 -50 -53 -84 c 129,-1,16
 -99 -118 -99 -118 -156 -141 c 1,17,18
 -162 -144 -162 -144 -168 -144 c 1,19,20
 -178 -144 -178 -144 -185 -137 c 129,-1,0
 -192 -130 -192 -130 -192 -120 c 129,-1,1
EndSplineSet
Colour: ff00ff
EndChar

StartChar: eye.closed
Encoding: 18 -1 18
Width: 0
GlyphClass: 5
Flags: W
LayerCount: 2
Back
SplineSet
10.7099609375 -21.48046875 m 5
 7.4384765625 -23.12109375 3.80078125 -24.0283203125 -0.0478515625 -24.0283203125 c 4
 -13.294921875 -24.0283203125 -24.0498046875 -13.2734375 -24.0498046875 -0.0263671875 c 4
 -24.0498046875 9.373046875 -18.6357421875 17.517578125 -10.7578125 21.4560546875 c 6
 -10.7099609375 21.48046875 l 6
 -9.6552734375 22.0078125 4.8671875 29.201171875 28.3076171875 35.5947265625 c 4
 38.728515625 38.4365234375 50.91796875 41.1181640625 64.49609375 42.94921875 c 4
 75.3583984375 44.4130859375 87.109375 45.3330078125 99.5556640625 45.3330078125 c 4
 131.032226562 45.3330078125 166.861328125 39.404296875 202.709960938 21.48046875 c 6
 202.7578125 21.4560546875 l 6
 210.635742188 17.517578125 216.049804688 9.373046875 216.049804688 -0.0263671875 c 4
 216.049804688 -13.2734375 205.294921875 -24.0283203125 192.047851562 -24.0283203125 c 4
 188.19921875 -24.0283203125 184.561523438 -23.12109375 181.290039062 -21.48046875 c 4
 153.138671875 -7.404296875 124.967773438 -2.6669921875 99.5556640625 -2.6669921875 c 4
 89.5263671875 -2.6669921875 79.9140625 -3.412109375 70.958984375 -4.619140625 c 4
 59.7666015625 -6.1279296875 49.60546875 -8.359375 40.9501953125 -10.720703125 c 4
 32.294921875 -13.080078125 25.1484375 -15.568359375 19.974609375 -17.5615234375 c 4
 14.224609375 -19.77734375 10.912109375 -21.3818359375 10.66015625 -21.5048828125 c 4
 10.5791015625 -21.544921875 10.7099609375 -21.48046875 10.7099609375 -21.48046875 c 5
EndSplineSet
Fore
SplineSet
-24 0 m 129,-1,1
 -24 10 -24 10 -17 17 c 1,2,3
 -13 21 -13 21 -5 24 c 1,4,5
 43 45 43 45 101 45 c 1,6,7
 155 45 155 45 202 22 c 1,8,9
 206 20 206 20 209 17 c 1,10,11
 216 10 216 10 216 0 c 129,-1,12
 216 -10 216 -10 209 -17 c 129,-1,13
 202 -24 202 -24 192 -24 c 1,14,15
 186 -24 186 -24 180 -21 c 1,16,17
 144 -3 144 -3 100 -3 c 1,18,19
 52 -3 52 -3 12 -21 c 1,20,21
 6 -24 6 -24 0 -24 c 1,22,23
 -10 -24 -10 -24 -17 -17 c 129,-1,0
 -24 -10 -24 -10 -24 0 c 129,-1,1
EndSplineSet
Colour: ff00ff
EndChar

StartChar: tears2
Encoding: 19 -1 19
Width: 864
GlyphClass: 5
Flags: W
LayerCount: 2
Back
SplineSet
192 -84 m 1
 288 -84 l 1
 288 372 l 1
 192 372 l 1
 192 -84 l 1
576 -84 m 1
 672 -84 l 1
 672 372 l 1
 576 372 l 1
 576 -84 l 1
EndSplineSet
Fore
SplineSet
192 372 m 1,0,-1
 288 372 l 1,1,-1
 288 -60 l 5,2,-1
 192 -60 l 5,3,-1
 192 372 l 1,0,-1
576 372 m 1,4,-1
 672 372 l 1,5,-1
 672 -60 l 5,6,-1
 576 -60 l 5,7,-1
 576 372 l 1,4,-1
EndSplineSet
Colour: ffff00
EndChar

StartChar: cryingmouth1
Encoding: 20 -1 20
Width: 864
GlyphClass: 5
Flags: W
LayerCount: 2
Fore
SplineSet
336 108 m 1,0,1
 336 161 336 161 365.5 206.5 c 129,-1,2
 395 252 395 252 432 252 c 129,-1,3
 469 252 469 252 498.5 206.5 c 129,-1,4
 528 161 528 161 528 108 c 1,5,6
 528 72 528 72 510 54 c 129,-1,7
 492 36 492 36 432 36 c 129,-1,8
 372 36 372 36 354 54 c 129,-1,9
 336 72 336 72 336 108 c 1,0,1
EndSplineSet
Colour: ffff00
EndChar

StartChar: GrinningFace.1
Encoding: 23 -1 23
Width: 864
GlyphClass: 5
Flags: W
LayerCount: 2
Back
SplineSet
0 324 m 4
 0 85.4130859375 193.413085938 -108 432 -108 c 4
 670.586914062 -108 864 85.4130859375 864 324 c 4
 864 562.586914062 670.586914062 756 432 756 c 4
 193.413085938 756 0 562.586914062 0 324 c 4
432 252 m 4
 345.046875 252 287.353515625 262.126953125 216 276 c 4
 199.704101562 279.142578125 168 276 168 228 c 4
 168 132 278.280273438 12 432 12 c 4
 585.696289062 12 696 132 696 228 c 4
 696 276 664.295898438 279.168945312 648 276 c 4
 576.646484375 262.126953125 518.953125 252 432 252 c 4
216 228 m 5
 216 228 288 204 432 204 c 4
 576 204 648 228 648 228 c 5
 648 228 600 132 432 132 c 4
 264 132 216 228 216 228 c 5
228 432 m 4
 228 385.607421875 254.864257812 348 288 348 c 4
 321.135742188 348 348 385.607421875 348 432 c 4
 348 478.392578125 321.135742188 516 288 516 c 4
 254.864257812 516 228 478.392578125 228 432 c 4
516 432 m 4
 516 385.607421875 542.864257812 348 576 348 c 4
 609.135742188 348 636 385.607421875 636 432 c 4
 636 478.392578125 609.135742188 516 576 516 c 4
 542.864257812 516 516 478.392578125 516 432 c 4
EndSplineSet
Fore
Refer: 4 -1 N 0.15625 0 0 0.21875 576 432 0
Refer: 4 -1 N 0.15625 0 0 0.21875 288 432 0
Refer: 36 -1 N 1 0 0 1 432 12 0
Colour: 996633
EndChar

StartChar: GrinningFaceWithBigEyes.1
Encoding: 25 -1 25
Width: 864
GlyphClass: 5
Flags: W
LayerCount: 2
Back
SplineSet
336 456 m 0
 336 396.361328125 309.142578125 324 276 324 c 0
 242.857421875 324 216 396.361328125 216 456 c 0
 216 515.638671875 242.857421875 588 276 588 c 0
 309.142578125 588 336 515.638671875 336 456 c 0
648 456 m 4
 648 396.361328125 621.142578125 324 588 324 c 4
 554.857421875 324 528 396.361328125 528 456 c 4
 528 515.638671875 554.857421875 588 588 588 c 4
 621.142578125 588 648 515.638671875 648 456 c 4
864 324 m 0
 864 85.416015625 670.583984375 -108 432 -108 c 0
 193.439453125 -108 0 85.416015625 0 324 c 0
 0 562.560546875 193.439453125 756 432 756 c 0
 670.583984375 756 864 562.560546875 864 324 c 1024
432 228 m 0
 345.046875 228 287.353515625 238.126953125 216 252 c 0
 199.704101562 255.142578125 168 252 168 204 c 0
 168 108 278.280273438 -12 432 -12 c 0
 585.696289062 -12 696 108 696 204 c 0
 696 252 664.295898438 255.168945312 648 252 c 0
 576.646484375 238.126953125 518.953125 228 432 228 c 0
216 204 m 1
 216 204 288 180 432 180 c 0
 576 180 648 204 648 204 c 1
 648 204 600 108 432 108 c 0
 264 108 216 204 216 204 c 1
EndSplineSet
Fore
Refer: 36 -1 N 1 0 0 1 432 -12 0
Refer: 49 -1 N 1 0 0 1 588 324 0
Refer: 49 -1 N 1 0 0 1 276 324 0
Colour: 996633
EndChar

StartChar: KissingFace.1
Encoding: 27 -1 27
Width: 864
Flags: W
LayerCount: 2
Back
SplineSet
864 324 m 0
 864 85.416015625 670.583984375 -108 432 -108 c 0
 193.439453125 -108 0 85.416015625 0 324 c 0
 0 562.560546875 193.439453125 756 432 756 c 0
 670.583984375 756 864 562.560546875 864 324 c 1024
240 384 m 0
 240 337.607421875 266.864257812 300 300 300 c 0
 333.135742188 300 360 337.607421875 360 384 c 0
 360 430.392578125 333.135742188 468 300 468 c 0
 266.864257812 468 240 430.392578125 240 384 c 0
504 384 m 0
 504 337.607421875 530.864257812 300 564 300 c 0
 597.135742188 300 624 337.607421875 624 384 c 0
 624 430.392578125 597.135742188 468 564 468 c 0
 530.864257812 468 504 430.392578125 504 384 c 0
500.904296875 84 m 1
 532.943359375 93.888671875 564 111.743164062 564 144 c 0
 564 206.857421875 446.111328125 215.231445312 432.672851562 215.9765625 c 0
 426.095703125 216.623046875 420.45703125 211.342773438 420.0234375 204.743164062 c 0
 419.615234375 198.168945312 424.583984375 192.48046875 431.161132812 192.0234375 c 0
 432 191.9765625 516 184.846679688 516 144 c 0
 516 103.153320312 432 96.0234375 431.161132812 95.9765625 c 0
 430.846679688 95.953125 430.607421875 95.7841796875 430.295898438 95.7353515625 c 0
 429.0234375 95.591796875 427.846679688 95.3037109375 426.719726562 94.7529296875 c 2
 426.361328125 94.53515625 l 2
 425.208007812 93.888671875 424.176757812 93.119140625 423.311523438 92.134765625 c 0
 422.9765625 91.7763671875 422.760742188 91.392578125 422.47265625 91.0078125 c 0
 421.919921875 90.2392578125 421.416015625 89.47265625 421.03125 88.53515625 c 0
 420.743164062 87.8388671875 420.599609375 87.072265625 420.45703125 86.3271484375 c 0
 420.361328125 85.7763671875 420.072265625 85.2724609375 420.0234375 84.7197265625 c 0
 420.0234375 84.45703125 420.119140625 84.2158203125 420.119140625 83.9765625 c 0
 420.119140625 83.7353515625 420 83.47265625 420.0234375 83.2314453125 c 0
 420.046875 82.6572265625 420.334960938 82.1533203125 420.45703125 81.599609375 c 0
 420.599609375 80.857421875 420.719726562 80.134765625 421.0078125 79.439453125 c 0
 421.319335938 78.7197265625 421.752929688 78.072265625 422.184570312 77.423828125 c 0
 422.591796875 76.8466796875 422.953125 76.2236328125 423.431640625 75.7197265625 c 0
 423.984375 75.1689453125 424.630859375 74.7353515625 425.303710938 74.2568359375 c 0
 425.880859375 73.8466796875 426.408203125 73.439453125 427.080078125 73.126953125 c 0
 427.846679688 72.7685546875 428.665039062 72.623046875 429.50390625 72.48046875 c 0
 430.080078125 72.3349609375 430.560546875 72.046875 431.161132812 72 c 0
 432 71.9765625 516 64.8466796875 516 24 c 0
 516 -16.8466796875 432 -23.9765625 431.161132812 -24.0234375 c 0
 424.583984375 -24.50390625 419.615234375 -30.1923828125 420.0234375 -36.7431640625 c 0
 420.431640625 -43.103515625 425.711914062 -48 432 -48 c 2
 432.672851562 -47.9765625 l 2
 446.111328125 -47.2314453125 564 -38.857421875 564 24 c 0
 564 56.2568359375 532.943359375 74.111328125 500.904296875 84 c 1
EndSplineSet
Fore
Refer: 68 -1 N 1 0 0 1 432 84 0
Refer: 4 -1 N 0.15625 0 0 0.21875 564 384 0
Refer: 4 -1 N 0.15625 0 0 0.21875 300 384 0
Colour: 996633
EndChar

StartChar: GrinningFaceWithSmilingEyes.1
Encoding: 29 -1 29
Width: 864
GlyphClass: 5
Flags: W
LayerCount: 2
Back
SplineSet
864 324 m 0
 864 85.416015625 670.583984375 -108 432 -108 c 0
 193.439453125 -108 0 85.416015625 0 324 c 0
 0 562.560546875 193.439453125 756 432 756 c 0
 670.583984375 756 864 562.560546875 864 324 c 1024
682.96875 328.873046875 m 0
 681.52734375 332.111328125 646.9921875 408 576 408 c 0
 505.03125 408 470.47265625 332.111328125 469.03125 328.873046875 c 0
 466.823242188 323.904296875 468.264648438 318.095703125 472.51171875 314.688476562 c 0
 476.711914062 311.280273438 482.735351562 311.161132812 487.153320312 314.353515625 c 0
 487.439453125 314.568359375 517.439453125 336 576 336 c 0
 634.223632812 336 664.176757812 314.857421875 664.846679688 314.376953125 c 0
 666.9609375 312.791992188 669.50390625 312 672 312 c 0
 674.638671875 312 677.303710938 312.888671875 679.48828125 314.615234375 c 0
 683.735351562 318.0234375 685.200195312 323.880859375 682.96875 328.873046875 c 0
394.96875 328.873046875 m 0
 393.52734375 332.111328125 358.9921875 408 288 408 c 0
 217.03125 408 182.47265625 332.111328125 181.03125 328.873046875 c 0
 178.823242188 323.904296875 180.264648438 318.095703125 184.48828125 314.688476562 c 0
 188.711914062 311.280273438 194.735351562 311.161132812 199.126953125 314.353515625 c 0
 199.439453125 314.568359375 229.416015625 336 288 336 c 0
 346.223632812 336 376.176757812 314.857421875 376.846679688 314.376953125 c 0
 378.9609375 312.791992188 381.50390625 312 384 312 c 0
 386.638671875 312 389.303710938 312.888671875 391.48828125 314.615234375 c 0
 395.760742188 318.0234375 397.176757812 323.880859375 394.96875 328.873046875 c 0
432 228 m 0
 345.046875 228 287.353515625 238.126953125 216 252 c 0
 199.704101562 255.142578125 168 252 168 204 c 0
 168 108 278.280273438 -12 432 -12 c 0
 585.696289062 -12 696 108 696 204 c 0
 696 252 664.295898438 255.168945312 648 252 c 0
 576.646484375 238.126953125 518.953125 228 432 228 c 0
216 204 m 1
 216 204 288 180 432 180 c 0
 576 180 648 204 648 204 c 1
 648 204 600 108 432 108 c 0
 264 108 216 204 216 204 c 1
EndSplineSet
Fore
Refer: 135 -1 N 1 0 0 1 0 -84 2
Refer: 36 -1 N 1 0 0 1 432 -12 0
Colour: 996633
EndChar

StartChar: SmilingFaceWithHeartEyes.2
Encoding: 30 -1 30
Width: 864
Flags: W
LayerCount: 2
Back
SplineSet
864 324 m 0
 864 85.416015625 670.583984375 -108 432 -108 c 0
 193.416015625 -108 0 85.416015625 0 324 c 0
 0 562.583984375 193.416015625 756 432 756 c 0
 670.583984375 756 864 562.583984375 864 324 c 1024
432 231.623046875 m 0
 360.815429688 231.623046875 313.560546875 239.927734375 255.142578125 251.280273438 c 0
 241.776367188 253.823242188 215.831054688 251.280273438 215.831054688 211.96875 c 0
 215.831054688 133.369140625 306.142578125 35.111328125 432 35.111328125 c 0
 557.857421875 35.111328125 648.168945312 133.369140625 648.168945312 211.96875 c 0
 648.168945312 251.280273438 622.200195312 253.846679688 608.857421875 251.280273438 c 0
 550.439453125 239.927734375 503.208007812 231.623046875 432 231.623046875 c 1024
399.599609375 677.256835938 m 4
 378.984375 735.599609375 315.0234375 766.223632812 256.657226562 745.657226562 c 0
 221.231445312 733.176757812 196.153320312 704.591796875 186.384765625 671.161132812 c 1
 157.799804688 691.056640625 120.361328125 697.560546875 84.984375 685.080078125 c 0
 26.6650390625 664.48828125 -4.0078125 600.48046875 16.607421875 542.134765625 c 4
 19.53515625 533.880859375 23.423828125 526.223632812 27.935546875 519.142578125 c 0
 74.7607421875 433.176757812 210.046875 372.743164062 291.9609375 372 c 0
 355.247070312 424.0078125 422.665039062 555.9609375 405.192382812 652.247070312 c 0
 404.280273438 660.599609375 402.48046875 669 399.599609375 677.256835938 c 4
464.400390625 677.256835938 m 0
 485.015625 735.599609375 549 766.223632812 607.342773438 745.657226562 c 0
 642.768554688 733.176757812 667.846679688 704.591796875 677.638671875 671.161132812 c 1
 706.223632812 691.056640625 743.665039062 697.560546875 779.0390625 685.080078125 c 0
 837.361328125 664.48828125 868.0078125 600.48046875 847.439453125 542.134765625 c 0
 844.48828125 533.880859375 840.623046875 526.223632812 836.087890625 519.142578125 c 0
 789.264648438 433.176757812 653.9765625 372.743164062 572.0390625 372 c 0
 508.752929688 424.0078125 441.361328125 555.9609375 458.831054688 652.247070312 c 0
 459.719726562 660.599609375 461.51953125 669 464.400390625 677.256835938 c 0
EndSplineSet
Fore
Refer: 10 -1 N 0.550269 0.194104 -0.194104 0.550269 292 372 0
Refer: 10 -1 N 0.550269 -0.194104 0.194104 0.550269 572 372 0
Colour: de2e45
EndChar

StartChar: KissingFaceWithClosedEyes.2
Encoding: 31 -1 31
Width: 864
Flags: W
LayerCount: 2
Back
SplineSet
864 324 m 0
 864 85.416015625 670.583984375 -108 432 -108 c 0
 193.416015625 -108 0 85.416015625 0 324 c 0
 0 562.583984375 193.416015625 756 432 756 c 0
 670.583984375 756 864 562.583984375 864 324 c 1024
48 252 m 0
 48 185.725585938 101.725585938 132 168 132 c 0
 234.274414062 132 288 185.725585938 288 252 c 0
 288 318.274414062 234.274414062 372 168 372 c 0
 101.725585938 372 48 318.274414062 48 252 c 0
576 252 m 0
 576 185.725585938 629.725585938 132 696 132 c 0
 762.274414062 132 816 185.725585938 816 252 c 0
 816 318.274414062 762.274414062 372 696 372 c 0
 629.725585938 372 576 318.274414062 576 252 c 0
681.984375 330.646484375 m 0
 680.51953125 332.831054688 645.623046875 384 576 384 c 0
 506.400390625 384 471.48046875 332.831054688 470.015625 330.646484375 c 0
 466.776367188 325.799804688 467.51953125 319.369140625 471.719726562 315.334960938 c 0
 475.896484375 311.327148438 482.423828125 310.896484375 487.153320312 314.327148438 c 0
 487.439453125 314.568359375 517.439453125 336 576 336 c 0
 634.223632812 336 664.176757812 314.857421875 664.846679688 314.376953125 c 0
 666.984375 312.791992188 669.50390625 312 672 312 c 0
 674.9765625 312 677.953125 313.103515625 680.256835938 315.288085938 c 0
 684.50390625 319.295898438 685.223632812 325.799804688 681.984375 330.646484375 c 0
288 384 m 0
 218.400390625 384 183.48046875 332.831054688 182.015625 330.646484375 c 0
 178.799804688 325.799804688 179.51953125 319.369140625 183.719726562 315.334960938 c 0
 187.919921875 311.327148438 194.447265625 310.896484375 199.126953125 314.327148438 c 0
 199.439453125 314.568359375 229.416015625 336 288 336 c 0
 346.223632812 336 376.176757812 314.857421875 376.846679688 314.376953125 c 0
 378.984375 312.791992188 381.50390625 312 384 312 c 0
 386.9765625 312 389.953125 313.103515625 392.256835938 315.288085938 c 0
 396.50390625 319.295898438 397.247070312 325.799804688 393.984375 330.672851562 c 0
 392.51953125 332.831054688 357.623046875 384 288 384 c 0
524.904296875 108 m 1
 556.943359375 117.888671875 588 135.743164062 588 168 c 0
 588 230.857421875 470.111328125 239.231445312 456.646484375 239.9765625 c 0
 450 240.838867188 444.408203125 235.319335938 444.0234375 228.743164062 c 0
 443.615234375 222.168945312 448.583984375 216.48046875 455.161132812 216.0234375 c 0
 456 215.9765625 540 208.846679688 540 168 c 0
 540 127.153320312 456 120.0234375 455.161132812 119.9765625 c 0
 454.919921875 119.953125 454.752929688 119.831054688 454.53515625 119.807617188 c 0
 451.560546875 119.615234375 449.015625 118.247070312 447.095703125 115.9921875 c 2
 446.735351562 115.48828125 l 2
 446.0390625 114.552734375 445.416015625 113.615234375 444.984375 112.48828125 c 0
 444.719726562 111.838867188 444.599609375 111.119140625 444.48046875 110.423828125 c 0
 444.361328125 109.846679688 444.072265625 109.319335938 444.0234375 108.743164062 c 0
 444 108.50390625 444.119140625 108.264648438 444.119140625 108 c 0
 444.119140625 107.735351562 444 107.49609375 444.0234375 107.256835938 c 0
 444.072265625 106.657226562 444.334960938 106.153320312 444.48046875 105.576171875 c 0
 444.623046875 104.880859375 444.743164062 104.161132812 445.0078125 103.48828125 c 0
 445.319335938 102.719726562 445.776367188 102.046875 446.231445312 101.376953125 c 0
 446.638671875 100.823242188 446.953125 100.247070312 447.431640625 99.7685546875 c 0
 447.984375 99.1923828125 448.680664062 98.7353515625 449.376953125 98.2802734375 c 0
 449.953125 97.873046875 450.45703125 97.48828125 451.080078125 97.1767578125 c 0
 451.823242188 96.8154296875 452.638671875 96.6728515625 453.50390625 96.52734375 c 0
 454.056640625 96.384765625 454.560546875 96.095703125 455.161132812 96.046875 c 0
 456 95.9765625 540 88.8466796875 540 48 c 0
 540 7.1533203125 456 0.0234375 455.161132812 -0.0234375 c 0
 448.607421875 -0.50390625 443.615234375 -6.1923828125 444.0234375 -12.7431640625 c 0
 444.431640625 -19.103515625 449.688476562 -24 456 -24 c 2
 456.646484375 -23.9765625 l 2
 470.111328125 -23.2314453125 588 -14.857421875 588 48 c 0
 588 80.2568359375 556.943359375 98.111328125 524.904296875 108 c 1
744.0234375 372 m 0
 736.704101562 372 729.52734375 375.311523438 724.799804688 381.599609375 c 0
 661.416015625 466.103515625 579.334960938 467.9765625 575.857421875 468 c 0
 562.657226562 468.142578125 552 478.943359375 552.072265625 492.119140625 c 0
 552.142578125 505.342773438 562.799804688 516 576 516 c 0
 580.416015625 516 684.888671875 514.799804688 763.200195312 410.400390625 c 0
 771.168945312 399.791992188 769.0078125 384.743164062 758.400390625 376.799804688 c 0
 754.080078125 373.560546875 749.0390625 372 744.0234375 372 c 0
119.9765625 372 m 0
 114.984375 372 109.919921875 373.560546875 105.599609375 376.799804688 c 0
 94.9921875 384.743164062 92.857421875 399.791992188 100.799804688 410.400390625 c 0
 179.087890625 514.799804688 283.583984375 516 288 516 c 0
 301.247070312 516 312 505.247070312 312 492 c 0
 312 478.776367188 301.319335938 468.046875 288.095703125 468 c 0
 284.353515625 467.953125 202.439453125 465.935546875 139.176757812 381.599609375 c 0
 134.49609375 375.311523438 127.272460938 372 119.9765625 372 c 0
EndSplineSet
Fore
Refer: 67 -1 N -1 0 0 -1 576 384 0
Refer: 67 -1 N -1 0 0 -1 288 384 0
Refer: 68 -1 N 1 0 0 1 456 108 0
Refer: 12 -1 N -1 0 0 1 576 492 0
Refer: 12 -1 N 1 0 0 1 288 492 0
Colour: 996633
EndChar

StartChar: SmilingFaceWithHearts.1
Encoding: 33 -1 33
Width: 864
Flags: W
LayerCount: 2
Back
SplineSet
0 324 m 0
 0 85.4130859375 193.413085938 -108 432 -108 c 0
 670.586914062 -108 864 85.4130859375 864 324 c 0
 864 562.586914062 670.586914062 756 432 756 c 0
 193.413085938 756 0 562.586914062 0 324 c 0
384 349.0078125 m 0
 373.943359375 349.0078125 364.583984375 355.369140625 361.223632812 365.423828125 c 0
 356.353515625 379.799804688 336.791992188 421.0078125 312 421.0078125 c 0
 286.51171875 421.0078125 266.688476562 377.161132812 262.776367188 365.423828125 c 0
 258.576171875 352.873046875 245.064453125 346.03125 232.416015625 350.256835938 c 0
 219.838867188 354.431640625 213.046875 368.0390625 217.247070312 380.615234375 c 0
 220.247070312 389.665039062 248.54296875 469.03125 312.0234375 469.03125 c 0
 375.50390625 469.03125 403.776367188 389.665039062 406.799804688 380.615234375 c 0
 411 368.0390625 404.208007812 354.431640625 391.630859375 350.256835938 c 0
 389.087890625 349.392578125 386.51953125 349.0078125 384 349.0078125 c 0
624 349.0078125 m 0
 613.943359375 349.0078125 604.583984375 355.369140625 601.247070312 365.423828125 c 0
 596.376953125 379.799804688 576.791992188 421.0078125 552 421.0078125 c 0
 526.51171875 421.0078125 506.665039062 377.161132812 502.752929688 365.423828125 c 0
 498.552734375 352.873046875 485.087890625 346.03125 472.392578125 350.256835938 c 0
 459.838867188 354.431640625 453.0234375 368.0390625 457.223632812 380.615234375 c 0
 460.223632812 389.665039062 488.51953125 469.03125 551.9765625 469.03125 c 0
 615.431640625 469.03125 643.727539062 389.665039062 646.727539062 380.615234375 c 0
 650.927734375 368.0390625 644.134765625 354.431640625 631.560546875 350.256835938 c 0
 629.064453125 349.392578125 626.51953125 349.0078125 624 349.0078125 c 0
656.0390625 259.416015625 m 0
 651.768554688 263.280273438 645.384765625 263.51953125 640.799804688 260.111328125 c 0
 639.865234375 259.416015625 546.672851562 190.51171875 432 190.51171875 c 0
 317.615234375 190.51171875 224.111328125 259.416015625 223.200195312 260.111328125 c 0
 218.615234375 263.51953125 212.231445312 263.231445312 207.9609375 259.416015625 c 0
 203.711914062 255.576171875 202.752929688 249.239257812 205.704101562 244.342773438 c 0
 208.799804688 239.184570312 282.912109375 118.51171875 432 118.51171875 c 0
 581.087890625 118.51171875 655.223632812 239.184570312 658.295898438 244.342773438 c 0
 661.247070312 249.264648438 660.311523438 255.552734375 656.0390625 259.416015625 c 0
509.49609375 661.272460938 m 0
 509.49609375 655.51171875 510.215820312 649.943359375 511.46484375 644.568359375 c 0
 521.665039062 581.134765625 592.200195312 514.223632812 642.743164062 495.838867188 c 0
 682.704101562 510.361328125 735.046875 555.264648438 760.295898438 604.776367188 c 0
 710.161132812 663.334960938 644.638671875 708.311523438 570 733.46484375 c 0
 535.630859375 727.295898438 509.49609375 697.416015625 509.49609375 661.272460938 c 0
329.831054688 58.126953125 m 0
 331.200195312 63.935546875 331.9921875 69.984375 331.9921875 76.2236328125 c 0
 331.9921875 120.215820312 296.327148438 155.880859375 252.334960938 155.880859375 c 0
 225.623046875 155.880859375 202.080078125 142.704101562 187.607421875 122.54296875 c 1
 173.161132812 142.680664062 149.591796875 155.880859375 122.880859375 155.880859375 c 0
 93.095703125 155.880859375 67.416015625 139.342773438 53.7607421875 115.126953125 c 0
 97.53515625 36.046875 165.361328125 -27.8388671875 247.392578125 -66.646484375 c 0
 286.680664062 -34.2236328125 322.53515625 12.7197265625 329.831054688 58.126953125 c 0
823.223632812 140.591796875 m 0
 816.45703125 163.392578125 795.576171875 180.119140625 770.568359375 180.119140625 c 0
 752.064453125 180.119140625 735.743164062 171 725.735351562 157.03125 c 1
 715.727539062 171 699.408203125 180.119140625 680.904296875 180.119140625 c 0
 650.423828125 180.119140625 625.727539062 155.423828125 625.727539062 124.943359375 c 0
 625.727539062 120.623046875 626.280273438 116.447265625 627.215820312 112.416015625 c 0
 634.583984375 66.6962890625 683.568359375 18.912109375 721.03125 2.953125 c 0
 763.657226562 41.353515625 798.576171875 88.080078125 823.223632812 140.591796875 c 0
807 677.54296875 m 0
 807 718.153320312 774.072265625 751.056640625 733.48828125 751.056640625 c 0
 708.838867188 751.056640625 687.095703125 738.888671875 673.752929688 720.288085938 c 1
 660.408203125 738.888671875 638.665039062 751.056640625 614.015625 751.056640625 c 0
 573.408203125 751.056640625 540.50390625 718.153320312 540.50390625 677.54296875 c 0
 540.50390625 671.784179688 541.223632812 666.215820312 542.47265625 660.838867188 c 0
 552.696289062 597.408203125 623.208007812 530.49609375 673.752929688 512.111328125 c 0
 724.295898438 530.49609375 794.807617188 597.408203125 805.0078125 660.815429688 c 0
 806.280273438 666.215820312 807 671.784179688 807 677.54296875 c 0
292.9921875 74.2080078125 m 0
 292.9921875 118.200195312 257.327148438 153.865234375 213.334960938 153.865234375 c 0
 186.623046875 153.865234375 163.080078125 140.688476562 148.607421875 120.52734375 c 1
 134.161132812 140.688476562 110.591796875 153.865234375 83.880859375 153.865234375 c 0
 39.888671875 153.865234375 4.2236328125 118.200195312 4.2236328125 74.2080078125 c 0
 4.2236328125 67.96875 5.015625 61.943359375 6.361328125 56.111328125 c 0
 17.423828125 -12.599609375 93.8154296875 -85.103515625 148.583984375 -105.0234375 c 0
 203.353515625 -85.126953125 279.743164062 -12.623046875 290.807617188 56.087890625 c 0
 292.200195312 61.943359375 292.9921875 67.9921875 292.9921875 74.2080078125 c 0
862.752929688 128.953125 m 0
 862.752929688 159.431640625 838.056640625 184.126953125 807.576171875 184.126953125 c 0
 789.072265625 184.126953125 772.752929688 175.0078125 762.743164062 161.0390625 c 1
 752.735351562 175.0078125 736.416015625 184.126953125 717.912109375 184.126953125 c 0
 687.431640625 184.126953125 662.735351562 159.431640625 662.735351562 128.953125 c 0
 662.735351562 124.630859375 663.288085938 120.45703125 664.223632812 116.423828125 c 0
 671.880859375 68.8310546875 724.799804688 18.599609375 762.743164062 4.8232421875 c 0
 800.665039062 18.599609375 853.607421875 68.8310546875 861.239257812 116.423828125 c 0
 862.200195312 120.45703125 862.752929688 124.630859375 862.752929688 128.953125 c 0
EndSplineSet
Fore
Refer: 9 -1 N 1 0 0 1 552 445 0
Refer: 9 -1 N 1 0 0 1 312 445 0
Refer: 11 -1 N 1 0 0 1 432 119 0
Colour: 996633
EndChar

StartChar: zigzag_mouth
Encoding: 34 -1 34
Width: 864
GlyphClass: 5
Flags: W
LayerCount: 2
Back
SplineSet
223.033203125 91.033203125 m 9
 247.033203125 67.033203125 l 17
 247.436523438 66.6298828125 247.856445312 66.2373046875 248.293945312 65.8583984375 c 1
 258.299804688 57.1806640625 273.473632812 58.2666015625 282.157226562 68.2802734375 c 1
 282.537109375 68.7177734375 282.8984375 69.166015625 283.241210938 69.6220703125 c 9
 355.2109375 165.620117188 l 1
 317.25 165.024414062 l 1
 413.25 45.0244140625 l 17
 417.651367188 39.5224609375 424.421875 35.99609375 432.008789062 35.99609375 c 1
 439.595703125 35.99609375 446.366210938 39.5224609375 450.767578125 45.0244140625 c 9
 546.75 165.024414062 l 1
 508.7890625 165.620117188 l 1
 580.7890625 69.6201171875 l 17
 581.130859375 69.1630859375 581.4921875 68.7158203125 581.872070312 68.27734375 c 1
 590.555664062 58.2646484375 605.729492188 57.1787109375 615.735351562 65.8564453125 c 1
 616.172851562 66.2353515625 616.592773438 66.626953125 616.99609375 67.0302734375 c 9
 640.966796875 91.033203125 l 17
 645.303710938 95.3828125 647.9921875 101.381835938 647.9921875 108.002929688 c 1
 647.9921875 121.247070312 637.240234375 131.999023438 623.997070312 131.999023438 c 1
 617.375 131.999023438 611.375976562 129.310546875 607.033203125 124.966796875 c 1
 583.033203125 100.966796875 l 1
 619.2109375 98.3798828125 l 1
 547.245117188 194.37890625 l 17
 546.641601562 195.184570312 545.979492188 195.9609375 545.260742188 196.702148438 c 1
 536.037109375 206.219726562 520.822265625 206.458984375 511.305664062 197.235351562 c 1
 510.564453125 196.516601562 509.87890625 195.76171875 509.25 194.975585938 c 9
 413.25 74.9755859375 l 1
 450.75 74.9755859375 l 1
 354.783203125 194.9765625 l 17
 354.155273438 195.762695312 353.469726562 196.517578125 352.727539062 197.236328125 c 1
 343.211914062 206.458984375 327.997070312 206.220703125 318.772460938 196.703125 c 1
 318.053710938 195.961914062 317.392578125 195.185546875 316.7890625 194.379882812 c 9
 244.7890625 98.3798828125 l 1
 280.966796875 100.966796875 l 1
 256.966796875 124.966796875 l 1
 252.624023438 129.310546875 246.625 131.999023438 240.002929688 131.999023438 c 1
 226.759765625 131.999023438 216.0078125 121.247070312 216.0078125 108.002929688 c 1
 216.0078125 101.381835938 218.696289062 95.3828125 223.033203125 91.033203125 c 9
240 108 m 1
 264 84 l 1
 336 180 l 1
 432 60 l 1
 528 180 l 1
 600 84 l 1
 624 108 l 1025
EndSplineSet
Fore
SplineSet
216 108 m 129,-1,1
 216 118 216 118 223 125 c 129,-1,2
 230 132 230 132 240 132 c 129,-1,3
 250 132 250 132 257 125 c 9,4,5
 257 125 257 125 261 121 c 1,6,-1
 261 120 l 1,7,8
 261 120 261 120 315 192 c 1,9,10
 318 196 318 196 319 197 c 1,11,12
 326 204 326 204 336 204 c 129,-1,13
 346 204 346 204 354 196 c 1,14,15
 354 196 354 196 432 98 c 1,16,-1
 510 196 l 17,17,18
 518 204 518 204 528 204 c 129,-1,19
 538 204 538 204 545 197 c 1,20,21
 546 196 546 196 549 192 c 1,22,23
 603 120 603 120 603 120 c 129,-1,24
 603 120 603 120 603 121 c 1,25,-1
 607 125 l 17,26,27
 614 132 614 132 624 132 c 129,-1,28
 634 132 634 132 641 125 c 129,-1,29
 648 118 648 118 648 108 c 129,-1,30
 648 98 648 98 641 91 c 9,31,32
 641 91 641 91 617 67 c 17,33,34
 610 60 610 60 600 60 c 129,-1,35
 590 60 590 60 583 67 c 1,36,37
 582 68 582 68 579 72 c 9,38,39
 528 140 528 140 528 140 c 1,40,41
 526 139 526 139 526 139 c 129,-1,42
 526 139 526 139 453 48 c 1,43,44
 450 44 450 44 449 43 c 1,45,46
 442 36 442 36 432 36 c 129,-1,47
 422 36 422 36 415 43 c 1,48,49
 414 44 414 44 411 48 c 1,50,51
 338 139 338 139 338 139 c 129,-1,52
 338 139 338 139 336 140 c 1,53,54
 336 140 336 140 285 72 c 17,55,56
 282 68 282 68 281 67 c 1,57,58
 274 60 274 60 264 60 c 129,-1,59
 254 60 254 60 247 67 c 9,60,61
 247 67 247 67 223 91 c 17,62,0
 216 98 216 98 216 108 c 129,-1,1
EndSplineSet
EndChar

StartChar: eye.squinting
Encoding: 35 -1 35
Width: 0
GlyphClass: 5
Flags: W
LayerCount: 2
Back
SplineSet
0 -24 m 5
 0 -24 -0.0852854145495 -23.999664076 -0.0121652881564 -24.0000876498 c 4
 0.292736301292 -24.0018538983 3.27207661097 -24.0266421513 8.31769608342 -24.3215926271 c 4
 12.8586032484 -24.5870392658 19.0731004732 -25.0714215186 26.5141897974 -25.9502903364 c 4
 33.9551239362 -26.8291408252 42.6224756658 -28.1027672468 52.0652645797 -29.938603576 c 4
 59.6193732644 -31.4072488338 67.6694024238 -33.2356353346 75.9831292088 -35.5030153669 c 4
 86.3754178669 -38.33727591 97.17820171 -41.8583540612 107.942347983 -46.2012785894 c 4
 116.553850425 -49.6756930235 125.139244274 -53.6752339704 133.480129417 -58.2568469361 c 4
 141.821729771 -62.8388527645 149.916700061 -68.0014871965 157.573593067 -73.7986414836 c 4
 163.699770932 -78.4368672299 169.545985438 -83.4804554379 175.032765 -88.967235 c 5
 192 -48 l 5
 180.605582768 -48 169.451678616 -48.5999374748 158.584416291 -49.687513376 c 4
 145.000224343 -51.0469946656 131.863669838 -53.1682137857 119.260764716 -55.8390281163 c 4
 106.657734299 -58.5098689995 94.5879211361 -61.7304653746 83.1355122801 -65.295913024 c 4
 68.8199512681 -69.7527381341 55.4685078337 -74.748379956 43.2463749826 -79.8945411564 c 4
 21.2470594469 -89.1574108556 2.90189729927 -98.9067614159 -10.7963465006 -106.939239456 c 4
 -27.918428007 -116.979412904 -37.7841799339 -124.341842729 -38.3798419991 -124.788589262 c 6
 -38.3798419991 -124.788589262 -38.3762875298 -124.793338019 -38.4165979241 -124.816156205 c 4
 -44.2148974607 -129.172295319 -47.9952565552 -136.149343525 -47.9952565552 -144.002374378 c 4
 -47.9952565552 -157.246697283 -37.2425456695 -167.999408168 -23.9982227653 -167.999408168 c 4
 -18.6069307148 -167.999408168 -13.6285022813 -166.217668846 -9.62015800088 -163.211410738 c 5
 -9.62015800088 -163.211410738 -9.68703067218 -163.261151922 -9.62789184495 -163.217329748 c 4
 -9.3764861909 -163.031036871 -6.95935986485 -161.249360246 -2.6424984881 -158.382527622 c 4
 1.24262376499 -155.802413448 6.66648005992 -152.343408858 13.4322590479 -148.376041074 c 4
 25.6108294192 -141.234680438 42.1384000867 -132.4502709 61.8400447704 -124.15484156 c 4
 77.6013652441 -117.518496097 95.39041351 -111.196937725 114.59077177 -106.242006561 c 4
 127.924454698 -102.801056128 141.937164309 -100.018743762 156.423803942 -98.2288886719 c 4
 168.013305595 -96.7969811317 179.905595284 -96 192 -96 c 5
 191 -96 193.002794882 -95.9932517817 192.002794882 -95.9932517817 c 5
 195.060681506 -95.9932517817 198.168555497 -95.405031903 201.1675048 -94.1627673192 c 4
 213.403599902 -89.0941696027 219.222503161 -75.0444804633 214.153664255 -62.8078031062 c 4
 212.911340558 -59.8087110988 211.129560121 -57.1950901213 208.967235 -55.032765 c 4
 201.812039253 -47.8775692535 194.276373174 -41.3890400674 186.508116045 -35.5075702485 c 4
 176.796965307 -28.1551050792 166.723025589 -21.7500291622 156.538894332 -16.1559288942 c 4
 146.354047863 -10.5614357634 136.056888497 -5.77647486636 125.873060784 -1.66768685401 c 4
 113.143044361 3.46839167592 100.587951538 7.54928627426 88.6259242892 10.8116573422 c 4
 79.0561983484 13.4215825987 69.8650536679 15.5070830581 61.2643120602 17.1792112869 c 4
 50.5135381086 19.2693418159 40.6847075157 20.71369245 32.1941146051 21.7165183843 c 4
 23.7036768799 22.7193259896 16.5513023284 23.2803195275 11.1572677201 23.595637217 c 4
 4.41496027301 23.989770544 0.419735792634 23.9999999999 -3.19809031316e-24 24 c 4
 -13.24596 24 -24 13.24596 -24 0 c 4
 -24 -13.24596 -13.24596 -24 -1.44000000101e-08 -24 c 4
 0 -24 0 -24 0 -24 c 5
0 0 m 4
 0 0 120 0 192 -72 c 5
 72 -72 -24 -144 -24 -144 c 1028
EndSplineSet
Fore
SplineSet
-48 -144 m 261,0,1
 -48 -131 -48 -131 -36 -123 c 5,2,3
 2 -97 2 -97 43 -80 c 133,-1,4
 84 -63 84 -63 126 -54 c 5,5,6
 92 -38 92 -38 57 -31 c 133,-1,7
 22 -24 22 -24 0 -24 c 5,8,9
 -10 -24 -10 -24 -17 -17 c 133,-1,10
 -24 -10 -24 -10 -24 0 c 133,-1,11
 -24 10 -24 10 -17 17 c 133,-1,12
 -10 24 -10 24 0 24 c 5,13,14
 30 24 30 24 71.5 15 c 133,-1,15
 113 6 113 6 147 -11 c 133,-1,16
 181 -28 181 -28 208 -54 c 261,17,18
 216 -62 216 -62 216 -72 c 133,-1,19
 216 -82 216 -82 209 -89 c 133,-1,20
 202 -96 202 -96 192 -96 c 5,21,22
 140 -96 140 -96 86 -115 c 133,-1,23
 32 -134 32 -134 -8 -162 c 5,24,25
 -15 -168 -15 -168 -24 -168 c 261,26,27
 -34 -168 -34 -168 -41 -161 c 133,-1,28
 -48 -154 -48 -154 -48 -144 c 261,0,1
EndSplineSet
Colour: ff00ff
EndChar

StartChar: mouth.grinning
Encoding: 36 -1 36
Width: 0
GlyphClass: 5
Flags: W
LayerCount: 2
Back
SplineSet
0 240 m 4
 86.953125 240 144.646484375 250.126953125 216 264 c 4
 232.295898438 267.142578125 264 264 264 216 c 4
 264 120 153.696289062 0 0 0 c 4
 -153.696289062 0 -264 120 -264 216 c 4
 -264 264 -232.295898438 267.142578125 -216 264 c 4
 -144.646484375 250.126953125 -86.953125 240 0 240 c 4
EndSplineSet
Fore
SplineSet
-264 216 m 7,0,1
 -264 243 -264 243 -251 255.5 c 132,-1,2
 -238 268 -238 268 -216 264 c 5,3,4
 -167 254 -167 254 -114.5 247 c 132,-1,5
 -62 240 -62 240 0 240 c 135,-1,6
 62 240 62 240 114.5 247 c 132,-1,7
 167 254 167 254 216 264 c 5,8,9
 238 268 238 268 251 255.5 c 132,-1,10
 264 243 264 243 264 216 c 7,11,12
 264 166 264 166 228 115 c 132,-1,13
 192 64 192 64 131 32 c 132,-1,14
 70 -7.1054273576e-15 70 -7.1054273576e-15 0 0 c 135,-1,15
 -70 -7.1054273576e-15 -70 -7.1054273576e-15 -131 32 c 132,-1,16
 -192 64 -192 64 -228 115 c 132,-1,17
 -264 166 -264 166 -264 216 c 7,0,1
EndSplineSet
Colour: ff00ff
EndChar

StartChar: LoudlyCryingFace.2
Encoding: 38 -1 38
Width: 864
Flags: W
LayerCount: 2
Back
SplineSet
432 60 m 0
 392.231445312 60 360 68.2314453125 360 108 c 0
 360 147.768554688 392.231445312 156 432 156 c 0
 471.768554688 156 504 147.768554688 504 108 c 0
 504 68.2314453125 471.768554688 60 432 60 c 0
864 324 m 0
 864 85.416015625 670.583984375 -108 432 -108 c 0
 193.416015625 -108 0 85.416015625 0 324 c 0
 0 562.583984375 193.416015625 756 432 756 c 0
 670.583984375 756 864 562.583984375 864 324 c 1024
528 108 m 0
 528 41.6884765625 485.015625 36 432 36 c 0
 378.9609375 36 336 41.6884765625 336 108 c 0
 336 174.264648438 378.9609375 252 432 252 c 0
 485.015625 252 528 174.264648438 528 108 c 0
720 396 m 0
 717.0234375 396 714 396.552734375 711.095703125 397.727539062 c 0
 585.599609375 447.912109375 534.168945312 523.51171875 532.03125 526.704101562 c 0
 524.665039062 537.743164062 527.638671875 552.646484375 538.680664062 559.9921875 c 0
 549.696289062 567.334960938 564.52734375 564.408203125 571.919921875 553.416015625 c 0
 572.376953125 552.768554688 618.239257812 486.576171875 728.904296875 442.319335938 c 0
 741.215820312 437.376953125 747.215820312 423.431640625 742.295898438 411.119140625 c 0
 738.52734375 401.711914062 729.50390625 396 720 396 c 0
144 396 m 0
 134.47265625 396 125.47265625 401.711914062 121.704101562 411.095703125 c 0
 116.784179688 423.408203125 122.760742188 437.376953125 135.072265625 442.295898438 c 0
 245.760742188 486.552734375 291.623046875 552.743164062 292.080078125 553.392578125 c 0
 299.47265625 564.334960938 314.376953125 567.239257812 325.369140625 559.873046875 c 0
 336.334960938 552.48046875 339.311523438 537.672851562 331.96875 526.680664062 c 0
 329.831054688 523.48828125 278.400390625 447.888671875 152.927734375 397.704101562 c 0
 150 396.552734375 146.9765625 396 144 396 c 0
576 372 m 1
 672 372 l 1
 672 -84 l 1
 576 -82.896484375 l 1
 576 372 l 1
192 -84 m 1
 288 -82.896484375 l 1
 288 372 l 1
 192 372 l 1
 192 -84 l 1
359.9765625 324 m 0
 356.376953125 324 352.704101562 324.815429688 349.272460938 326.51953125 c 0
 264.984375 368.665039062 179.591796875 326.953125 178.752929688 326.51953125 c 0
 166.873046875 320.54296875 152.47265625 325.416015625 146.54296875 337.247070312 c 0
 140.615234375 349.103515625 145.416015625 363.52734375 157.272460938 369.45703125 c 0
 161.638671875 371.615234375 265.223632812 422.184570312 370.752929688 369.45703125 c 0
 382.607421875 363.52734375 387.408203125 349.103515625 381.48046875 337.247070312 c 0
 377.256835938 328.846679688 368.784179688 324 359.9765625 324 c 0
695.9765625 324 m 0
 692.376953125 324 688.704101562 324.815429688 685.272460938 326.51953125 c 0
 600.9609375 368.665039062 515.591796875 326.953125 514.752929688 326.51953125 c 0
 502.896484375 320.568359375 488.49609375 325.392578125 482.54296875 337.247070312 c 0
 476.615234375 349.103515625 481.416015625 363.52734375 493.272460938 369.45703125 c 0
 497.638671875 371.615234375 601.295898438 422.161132812 706.752929688 369.45703125 c 0
 718.607421875 363.52734375 723.408203125 349.103515625 717.48046875 337.247070312 c 0
 713.256835938 328.846679688 704.784179688 324 695.9765625 324 c 0
0 -60 m 0
 0 -86.509765625 193.413085938 -108 432 -108 c 0
 670.586914062 -108 864 -86.509765625 864 -60 c 0
 864 -33.490234375 670.586914062 -12 432 -12 c 0
 193.413085938 -12 0 -33.490234375 0 -60 c 0
EndSplineSet
Fore
Refer: 18 -1 N 1 0 0 1 504 348 0
Refer: 18 -1 N 1 0 0 1 168 348 0
Refer: 20 -1 N 1 0 0 1 0 0 0
Refer: 17 -1 N -1 0 0 1 552 540 0
Refer: 17 -1 N 1 0 0 1 312 540 0
Colour: 996633
EndChar

StartChar: SmilingFace.2
Encoding: 40 -1 40
Width: 864
Flags: W
LayerCount: 2
Back
SplineSet
320.483398438 164.483398438 m 1
 320.483398438 164.483398438 320.232421875 164.725585938 320.233398438 164.724609375 c 2
 320.233398438 164.724609375 320.763671875 164.208984375 322.59375 163.05078125 c 0
 324.7890625 161.662109375 328.653320312 159.536132812 334.73828125 157.196289062 c 0
 350.133789062 151.275390625 379.786132812 144 432 144 c 0
 484.213867188 144 513.866210938 151.275390625 529.26171875 157.196289062 c 0
 535.346679688 159.536132812 539.2109375 161.662109375 541.40625 163.05078125 c 0
 543.236328125 164.208984375 543.766601562 164.724609375 543.766601562 164.724609375 c 1
 543.766601562 164.724609375 543.515625 164.483398438 543.516601562 164.483398438 c 0
 545.688476562 166.655273438 548.688476562 168 552 168 c 0
 558.623046875 168 564 162.623046875 564 156 c 0
 564 154.994140625 563.875976562 154.017578125 563.642578125 153.083984375 c 0
 563.475585938 152.416992188 559.938476562 138.36328125 550.233398438 120.525390625 c 0
 542.4765625 106.26953125 530.7109375 89.4697265625 513.265625 75.513671875 c 0
 502.3671875 66.7958984375 489.249023438 59.228515625 473.73828125 54.2646484375 c 0
 461.333007812 50.294921875 447.431640625 48 432 48 c 0
 416.568359375 48 402.666992188 50.294921875 390.26171875 54.2646484375 c 0
 374.750976562 59.228515625 361.6328125 66.7958984375 350.734375 75.513671875 c 0
 333.2890625 89.4697265625 321.5234375 106.26953125 313.766601562 120.525390625 c 0
 304.061523438 138.36328125 300.524414062 152.416992188 300.357421875 153.083984375 c 0
 300.124023438 154.017578125 300 154.994140625 300 156 c 0
 300 162.623046875 305.376953125 168 312 168 c 0
 315.311523438 168 318.311523438 166.655273438 320.483398438 164.483398438 c 1
864 324 m 0
 864 85.416015625 670.583984375 -108 432 -108 c 0
 193.439453125 -108 0 85.416015625 0 324 c 0
 0 562.560546875 193.439453125 756 432 756 c 0
 670.583984375 756 864 562.560546875 864 324 c 1024
576 228 m 0
 576 161.725585938 629.725585938 108 696 108 c 0
 762.274414062 108 816 161.725585938 816 228 c 0
 816 294.274414062 762.274414062 348 696 348 c 0
 629.725585938 348 576 294.274414062 576 228 c 0
48 228 m 0
 48 161.725585938 101.725585938 108 168 108 c 0
 234.274414062 108 288 161.725585938 288 228 c 0
 288 294.274414062 234.274414062 348 168 348 c 0
 101.725585938 348 48 294.274414062 48 228 c 0
696 420 m 0
 689.857421875 420 683.711914062 422.353515625 679.03125 427.03125 c 0
 617.184570312 488.831054688 509.711914062 468.696289062 508.657226562 468.45703125 c 0
 495.50390625 465.838867188 483.046875 474.384765625 480.48046875 487.342773438 c 0
 477.912109375 500.327148438 486.288085938 512.927734375 499.272460938 515.51953125 c 0
 504.719726562 516.623046875 632.784179688 541.080078125 712.943359375 460.96875 c 0
 722.327148438 451.583984375 722.327148438 436.416015625 712.943359375 427.03125 c 0
 708.288085938 422.353515625 702.142578125 420 696 420 c 0
168 420 m 0
 161.857421875 420 155.711914062 422.353515625 151.03125 427.03125 c 0
 141.646484375 436.416015625 141.646484375 451.583984375 151.03125 460.96875 c 0
 231.192382812 541.153320312 359.303710938 516.599609375 364.704101562 515.51953125 c 0
 377.711914062 512.927734375 386.134765625 500.280273438 383.51953125 487.272460938 c 0
 380.927734375 474.311523438 368.327148438 465.865234375 355.319335938 468.431640625 c 0
 353.665039062 468.791992188 246.623046875 488.665039062 184.96875 427.0078125 c 0
 180.288085938 422.353515625 174.142578125 420 168 420 c 0
624 300 m 0
 617.857421875 300 611.711914062 302.353515625 607.03125 307.03125 c 0
 575.735351562 338.353515625 508.873046875 330.408203125 485.784179688 324.696289062 c 0
 472.823242188 321.52734375 459.935546875 329.376953125 456.719726562 342.215820312 c 0
 453.52734375 355.080078125 461.327148438 368.064453125 474.192382812 371.280273438 c 0
 478.657226562 372.384765625 583.9921875 397.943359375 640.96875 340.96875 c 0
 650.353515625 331.583984375 650.353515625 316.416015625 640.96875 307.03125 c 0
 636.288085938 302.353515625 630.142578125 300 624 300 c 0
240 300 m 0
 233.857421875 300 227.711914062 302.353515625 223.03125 307.03125 c 0
 213.646484375 316.416015625 213.646484375 331.583984375 223.03125 340.96875 c 0
 279.984375 397.919921875 385.369140625 372.384765625 389.831054688 371.280273438 c 0
 402.672851562 368.064453125 410.47265625 355.080078125 407.280273438 342.215820312 c 0
 404.111328125 329.353515625 391.126953125 321.50390625 378.239257812 324.696289062 c 0
 355.103515625 330.384765625 288.264648438 338.303710938 256.9921875 307.03125 c 0
 252.288085938 302.353515625 246.142578125 300 240 300 c 0
EndSplineSet
Fore
Refer: 3 -1 N -1 0 0 1 504 492 0
Refer: 3 -1 N 1 0 0 1 360 492 0
Refer: 8 -1 N 1 0 0 1 432 48 0
Refer: 1 -1 N -1 0 0 1 480 348 0
Refer: 1 -1 N 1 0 0 1 384 348 0
Colour: 996633
EndChar

StartChar: FlushedFace.4
Encoding: 44 -1 44
Width: 864
Flags: W
LayerCount: 2
Back
SplineSet
864 324 m 0
 864 85.416015625 670.583984375 -108 432 -108 c 0
 193.439453125 -108 0 85.416015625 0 324 c 0
 0 562.560546875 193.439453125 756 432 756 c 0
 670.583984375 756 864 562.560546875 864 324 c 1024
576 204 m 0
 576 137.725585938 629.725585938 84 696 84 c 0
 762.274414062 84 816 137.725585938 816 204 c 0
 816 270.274414062 762.274414062 324 696 324 c 0
 629.725585938 324 576 270.274414062 576 204 c 0
48 204 m 0
 48 137.725585938 101.725585938 84 168 84 c 0
 234.274414062 84 288 137.725585938 288 204 c 0
 288 270.274414062 234.274414062 324 168 324 c 0
 101.725585938 324 48 270.274414062 48 204 c 0
456 360 m 0
 456 287.09765625 515.09765625 228 588 228 c 0
 660.90234375 228 720 287.09765625 720 360 c 0
 720 432.90234375 660.90234375 492 588 492 c 0
 515.09765625 492 456 432.90234375 456 360 c 0
144 360 m 0
 144 287.09765625 203.09765625 228 276 228 c 0
 348.90234375 228 408 287.09765625 408 360 c 0
 408 432.90234375 348.90234375 492 276 492 c 0
 203.09765625 492 144 432.90234375 144 360 c 0
216 360 m 0
 216 326.864257812 242.864257812 300 276 300 c 0
 309.135742188 300 336 326.864257812 336 360 c 0
 336 393.135742188 309.135742188 420 276 420 c 0
 242.864257812 420 216 393.135742188 216 360 c 0
528 360 m 0
 528 326.864257812 554.864257812 300 588 300 c 0
 621.135742188 300 648 326.864257812 648 360 c 0
 648 393.135742188 621.135742188 420 588 420 c 0
 554.864257812 420 528 393.135742188 528 360 c 0
528 36 m 2
 336 36 l 2
 322.752929688 36 312 46.7275390625 312 60 c 0
 312 73.2724609375 322.752929688 84 336 84 c 2
 528 84 l 2
 541.272460938 84 552 73.2724609375 552 60 c 0
 552 46.7275390625 541.272460938 36 528 36 c 2
720.0234375 492 m 0
 712.704101562 492 705.52734375 495.311523438 700.799804688 501.599609375 c 0
 637.439453125 586.103515625 555.334960938 587.953125 551.857421875 588 c 0
 538.657226562 588.142578125 528 598.943359375 528.072265625 612.119140625 c 0
 528.142578125 625.342773438 538.799804688 636 552 636 c 0
 556.416015625 636 660.888671875 634.799804688 739.200195312 530.400390625 c 0
 747.168945312 519.791992188 745.0078125 504.743164062 734.400390625 496.799804688 c 0
 730.080078125 493.560546875 725.0390625 492 720.0234375 492 c 0
143.9765625 492 m 0
 138.984375 492 133.919921875 493.560546875 129.599609375 496.799804688 c 0
 118.9921875 504.743164062 116.857421875 519.791992188 124.799804688 530.400390625 c 0
 203.087890625 634.799804688 307.583984375 636 312 636 c 0
 325.247070312 636 336 625.247070312 336 612 c 0
 336 598.776367188 325.319335938 588.046875 312.095703125 588 c 0
 308.376953125 587.953125 226.46484375 585.935546875 163.200195312 501.599609375 c 0
 158.49609375 495.311523438 151.272460938 492 143.9765625 492 c 0
EndSplineSet
Fore
Refer: 12 -1 N -1 0 0 1 552 612 0
Refer: 12 -1 N 1 0 0 1 312 612 0
Refer: 16 -1 N 1 0 0 1 336 60 0
Colour: 996633
EndChar

StartChar: PensiveFace.1
Encoding: 46 -1 46
Width: 864
Flags: W
LayerCount: 2
Back
SplineSet
864 324 m 0
 864 85.416015625 670.583984375 -108 432 -108 c 0
 193.439453125 -108 0 85.416015625 0 324 c 0
 0 562.560546875 193.439453125 756 432 756 c 0
 670.583984375 756 864 562.560546875 864 324 c 1024
415.48828125 333.311523438 m 0
 411.264648438 336.743164062 405.239257812 336.838867188 400.846679688 333.646484375 c 0
 400.560546875 333.431640625 370.607421875 312 312 312 c 0
 253.416015625 312 223.439453125 333.431640625 223.200195312 333.599609375 c 0
 218.807617188 336.888671875 212.760742188 336.791992188 208.53515625 333.384765625 c 0
 204.264648438 329.9765625 202.823242188 324.119140625 205.03125 319.126953125 c 0
 206.47265625 315.888671875 241.03125 240 312 240 c 0
 382.9921875 240 417.52734375 315.888671875 418.96875 319.126953125 c 0
 421.176757812 324.095703125 419.735351562 329.904296875 415.48828125 333.311523438 c 0
655.48828125 333.311523438 m 0
 651.264648438 336.743164062 645.264648438 336.865234375 640.846679688 333.646484375 c 0
 640.560546875 333.431640625 610.583984375 312 552 312 c 0
 493.439453125 312 463.439453125 333.431640625 463.200195312 333.599609375 c 0
 458.807617188 336.888671875 452.784179688 336.791992188 448.53515625 333.384765625 c 0
 444.264648438 329.9765625 442.823242188 324.119140625 445.03125 319.126953125 c 0
 446.47265625 315.888671875 481.03125 240 552 240 c 0
 622.9921875 240 657.52734375 315.888671875 658.96875 319.126953125 c 0
 661.176757812 324.095703125 659.735351562 329.904296875 655.48828125 333.311523438 c 0
528 84 m 2
 336 84 l 2
 322.752929688 84 312 94.7275390625 312 108 c 0
 312 121.272460938 322.752929688 132 336 132 c 2
 528 132 l 2
 541.272460938 132 552 121.272460938 552 108 c 0
 552 94.7275390625 541.272460938 84 528 84 c 2
144 420 m 0
 130.752929688 420 120 430.752929688 120 444 c 0
 120 457.223632812 130.680664062 467.953125 143.904296875 468 c 0
 147.646484375 468.046875 229.560546875 470.064453125 292.823242188 554.400390625 c 0
 300.768554688 564.9609375 315.791992188 567.168945312 326.423828125 559.200195312 c 0
 337.03125 551.256835938 339.168945312 536.208007812 331.223632812 525.599609375 c 0
 252.912109375 421.200195312 148.416015625 420 144 420 c 0
720 420 m 0
 715.583984375 420 611.111328125 421.200195312 532.799804688 525.599609375 c 0
 524.831054688 536.208007812 526.9921875 551.256835938 537.599609375 559.200195312 c 0
 548.184570312 567.192382812 563.208007812 565.0078125 571.176757812 554.400390625 c 0
 634.560546875 469.896484375 716.638671875 468.0234375 720.119140625 468 c 0
 733.319335938 467.857421875 743.9765625 457.056640625 743.904296875 443.880859375 c 0
 743.857421875 430.657226562 733.200195312 420 720 420 c 0
EndSplineSet
Fore
Refer: 16 -1 N 1 0 0 1 336 108 0
Refer: 14 -1 N 1 0 0 1 552 240 0
Refer: 14 -1 N 1 0 0 1 312 240 0
Refer: 12 -1 N 1 0 0 -1 720 444 0
Refer: 12 -1 N -1 0 0 -1 144 444 0
Colour: 996633
EndChar

StartChar: teeth.grinning
Encoding: 47 -1 47
Width: 0
GlyphClass: 5
Flags: W
LayerCount: 2
Back
SplineSet
-216 216 m 5
 -216 216 -144 192 0 192 c 4
 144 192 216 216 216 216 c 5
 216 216 168 120 0 120 c 4
 -168 120 -216 216 -216 216 c 5
EndSplineSet
Fore
SplineSet
-216 216 m 1,0,1
 -180 205 -180 205 -123 198.5 c 128,-1,2
 -66 192 -66 192 0 192 c 131,-1,3
 66 192 66 192 123 198.5 c 128,-1,4
 180 205 180 205 216 216 c 1,5,6
 192 174 192 174 135 147 c 128,-1,7
 78 120 78 120 0 120 c 131,-1,8
 -78 120 -78 120 -135 147 c 128,-1,9
 -192 174 -192 174 -216 216 c 1,0,1
EndSplineSet
Colour: ff00ff
EndChar

StartChar: waterdrop
Encoding: 48 -1 48
Width: 0
GlyphClass: 5
Flags: W
LayerCount: 2
Back
SplineSet
120 -240 m 0
 120 -306.229492188 66.2294921875 -360 0 -360 c 0
 -66.2294921875 -360 -120 -306.229492188 -120 -240 c 0
 -120 -173.711914062 -24 0 0 0 c 0
 24 0 120 -173.711914062 120 -240 c 0
EndSplineSet
Fore
SplineSet
-120 -240 m 131,-1,1
 -120 -192 -120 -192 -69 -96 c 128,-1,2
 -18 0 -18 0 0 0 c 131,-1,3
 18 0 18 0 69 -96 c 128,-1,4
 120 -192 120 -192 120 -240 c 131,-1,5
 120 -288 120 -288 85 -324 c 128,-1,6
 50 -360 50 -360 0 -360 c 131,-1,7
 -50 -360 -50 -360 -85 -324 c 128,-1,0
 -120 -288 -120 -288 -120 -240 c 131,-1,1
EndSplineSet
Colour: ff00ff
EndChar

StartChar: eye.tall
Encoding: 49 -1 49
Width: 0
GlyphClass: 5
Flags: W
LayerCount: 2
Back
SplineSet
60 132 m 4
 60 72.361328125 33.142578125 0 0 0 c 4
 -33.142578125 0 -60 72.361328125 -60 132 c 4
 -60 191.638671875 -33.142578125 264 0 264 c 4
 33.142578125 264 60 191.638671875 60 132 c 4
EndSplineSet
Fore
SplineSet
-60 132 m 135,-1,1
 -60 180 -60 180 -41.5 222 c 132,-1,2
 -23 264 -23 264 0 264 c 135,-1,3
 23 264 23 264 41.5 222 c 132,-1,4
 60 180 60 180 60 132 c 135,-1,5
 60 84 60 84 41.5 42 c 132,-1,6
 23 0 23 0 0 0 c 135,-1,7
 -23 0 -23 0 -41.5 42 c 132,-1,0
 -60 84 -60 84 -60 132 c 135,-1,1
EndSplineSet
Colour: ff00ff
EndChar

StartChar: BeamingFaceWithSmilingEyes.1
Encoding: 50 -1 50
Width: 864
GlyphClass: 5
Flags: W
LayerCount: 2
Back
SplineSet
864 324 m 0
 864 85.416015625 670.583984375 -108 432 -108 c 0
 193.439453125 -108 0 85.416015625 0 324 c 0
 0 562.560546875 193.439453125 756 432 756 c 0
 670.583984375 756 864 562.560546875 864 324 c 1024
384 324 m 0
 373.943359375 324 364.583984375 330.361328125 361.223632812 340.416015625 c 0
 356.353515625 354.791992188 336.815429688 396 312 396 c 0
 286.51171875 396 266.688476562 352.153320312 262.776367188 340.416015625 c 0
 258.576171875 327.865234375 245.064453125 321.0234375 232.416015625 325.247070312 c 0
 219.838867188 329.423828125 213.046875 343.03125 217.247070312 355.607421875 c 0
 220.247070312 364.630859375 248.54296875 444 312 444 c 0
 375.45703125 444 403.752929688 364.630859375 406.776367188 355.583984375 c 0
 410.9765625 343.0078125 404.184570312 329.400390625 391.607421875 325.223632812 c 0
 389.064453125 324.408203125 386.49609375 324 384 324 c 0
624 324 m 0
 613.943359375 324 604.583984375 330.361328125 601.247070312 340.416015625 c 0
 596.376953125 354.791992188 576.791992188 396 552 396 c 0
 526.51171875 396 506.665039062 352.153320312 502.752929688 340.416015625 c 0
 498.552734375 327.865234375 485.087890625 321.0234375 472.392578125 325.247070312 c 0
 459.838867188 329.423828125 453.0234375 343.03125 457.223632812 355.607421875 c 0
 460.247070312 364.630859375 488.51953125 444 552 444 c 0
 615.48046875 444 643.752929688 364.630859375 646.752929688 355.583984375 c 0
 650.953125 343.0078125 644.161132812 329.400390625 631.583984375 325.223632812 c 0
 629.064453125 324.408203125 626.49609375 324 624 324 c 0
432 228 m 0
 345.046875 228 287.353515625 238.126953125 216 252 c 0
 199.704101562 255.142578125 168 252 168 204 c 0
 168 108 278.280273438 -12 432 -12 c 0
 585.696289062 -12 696 108 696 204 c 0
 696 252 664.295898438 255.168945312 648 252 c 0
 576.646484375 238.126953125 518.953125 228 432 228 c 0
216 204 m 1
 216 204 288 180 432 180 c 0
 576 180 648 204 648 204 c 1
 648 204 615.743164062 42 432 42 c 0
 248.256835938 42 216 204 216 204 c 1
432 93.7431640625 m 0
 345.696289062 93.7431640625 281.47265625 102.672851562 241.51171875 111.623046875 c 2
 221.711914062 156.52734375 l 1
 241.46484375 149.0390625 315.046875 135 432.0234375 135 c 0
 550.919921875 135 624.912109375 149.784179688 644.760742188 157.51171875 c 1
 627.935546875 113.303710938 l 2
 588.719726562 104.184570312 521.880859375 93.7431640625 432 93.7431640625 c 0
EndSplineSet
Fore
Refer: 9 -1 N 1 0 0 1 552 420 0
Refer: 9 -1 N 1 0 0 1 312 420 0
Refer: 36 -1 N 1 0 0 1 432 -12 0
Colour: 996633
EndChar

StartChar: GrinningSquintingFace.1
Encoding: 51 -1 51
Width: 864
GlyphClass: 5
Flags: W
LayerCount: 2
Back
SplineSet
864 324 m 0
 864 85.416015625 670.583984375 -108 432 -108 c 0
 193.439453125 -108 0 85.416015625 0 324 c 0
 0 562.560546875 193.439453125 756 432 756 c 0
 670.583984375 756 864 562.560546875 864 324 c 1024
432 228 m 0
 345.046875 228 287.353515625 238.126953125 216 252 c 0
 199.704101562 255.142578125 168 252 168 204 c 0
 168 108 278.280273438 -12 432 -12 c 0
 585.696289062 -12 696 108 696 204 c 0
 696 252 664.295898438 255.168945312 648 252 c 0
 576.646484375 238.126953125 518.953125 228 432 228 c 0
216 204 m 1
 216 204 288 180 432 180 c 0
 576 180 648 204 648 204 c 1
 648 204 600 108 432 108 c 0
 264 108 216 204 216 204 c 1
144.0234375 276 m 0
 136.727539062 276 129.52734375 279.311523438 124.799804688 285.599609375 c 0
 116.831054688 296.184570312 118.9921875 311.231445312 129.599609375 319.176757812 c 0
 133.03125 321.743164062 200.423828125 371.568359375 294.142578125 389.568359375 c 1
 234.743164062 419.353515625 168.815429688 420 167.9765625 420 c 0
 154.727539062 420.046875 144 430.799804688 144.0234375 444.046875 c 0
 144.0234375 457.272460938 154.752929688 468 168 468 c 0
 173.303710938 468 298.846679688 467.087890625 376.96875 388.96875 c 0
 383.831054688 382.103515625 385.896484375 371.784179688 382.176757812 362.807617188 c 0
 378.45703125 353.831054688 369.696289062 348 360 348 c 0
 249.288085938 348 159.288085938 281.47265625 158.400390625 280.799804688 c 0
 154.080078125 277.560546875 149.015625 276 144.0234375 276 c 0
719.9765625 276.0234375 m 0
 714.984375 276.0234375 709.943359375 277.560546875 705.623046875 280.776367188 c 0
 704.711914062 281.47265625 614.161132812 348 504 348 c 0
 494.303710938 348 485.51953125 353.831054688 481.823242188 362.807617188 c 0
 478.103515625 371.784179688 480.168945312 382.103515625 487.03125 388.96875 c 0
 565.176757812 467.087890625 690.696289062 468 696 468 c 0
 709.247070312 468 719.953125 457.272460938 719.9765625 444.046875 c 0
 720 430.799804688 709.272460938 420.046875 696.046875 420 c 0
 695.184570312 420 629.256835938 419.353515625 569.857421875 389.568359375 c 1
 663.576171875 371.568359375 730.96875 321.768554688 734.376953125 319.176757812 c 0
 744.9609375 311.231445312 747.119140625 296.231445312 739.200195312 285.623046875 c 0
 734.49609375 279.361328125 727.295898438 276.0234375 719.9765625 276.0234375 c 0
EndSplineSet
Fore
Refer: 35 -1 N -1 0 0 1 696 444 0
Refer: 35 -1 N 1 0 0 1 168 444 0
Refer: 36 -1 N 1 0 0 1 432 -12 0
Colour: 996633
EndChar

StartChar: GrinningFaceWithSweat.3
Encoding: 52 -1 52
Width: 864
GlyphClass: 5
Flags: W
LayerCount: 2
Back
SplineSet
864 324 m 0
 864 85.416015625 670.583984375 -108 432 -108 c 0
 193.439453125 -108 0 85.416015625 0 324 c 0
 0 562.560546875 193.439453125 756 432 756 c 0
 670.583984375 756 864 562.560546875 864 324 c 1024
682.96875 328.873046875 m 0
 681.52734375 332.111328125 646.9921875 408 576 408 c 0
 505.03125 408 470.47265625 332.111328125 469.03125 328.873046875 c 0
 466.823242188 323.904296875 468.264648438 318.095703125 472.51171875 314.688476562 c 0
 476.711914062 311.280273438 482.735351562 311.161132812 487.153320312 314.353515625 c 0
 487.439453125 314.568359375 517.439453125 336 576 336 c 0
 634.223632812 336 664.176757812 314.857421875 664.846679688 314.376953125 c 0
 666.9609375 312.791992188 669.50390625 312 672 312 c 0
 674.638671875 312 677.303710938 312.888671875 679.48828125 314.615234375 c 0
 683.735351562 318.0234375 685.200195312 323.880859375 682.96875 328.873046875 c 0
394.96875 328.873046875 m 0
 393.52734375 332.111328125 358.9921875 408 288 408 c 0
 217.03125 408 182.47265625 332.111328125 181.03125 328.873046875 c 0
 178.823242188 323.904296875 180.264648438 318.095703125 184.48828125 314.688476562 c 0
 188.711914062 311.280273438 194.735351562 311.161132812 199.126953125 314.353515625 c 0
 199.439453125 314.568359375 229.416015625 336 288 336 c 0
 346.223632812 336 376.176757812 314.857421875 376.846679688 314.376953125 c 0
 378.9609375 312.791992188 381.50390625 312 384 312 c 0
 386.638671875 312 389.303710938 312.888671875 391.48828125 314.615234375 c 0
 395.760742188 318.0234375 397.176757812 323.880859375 394.96875 328.873046875 c 0
432 228 m 0
 345.046875 228 287.353515625 238.126953125 216 252 c 0
 199.704101562 255.142578125 168 252 168 204 c 0
 168 108 278.280273438 -12 432 -12 c 0
 585.696289062 -12 696 108 696 204 c 0
 696 252 664.295898438 255.168945312 648 252 c 0
 576.646484375 238.126953125 518.953125 228 432 228 c 0
216 204 m 1
 216 204 288 180 432 180 c 0
 576 180 648 204 648 204 c 1
 648 204 600 108 432 108 c 0
 264 108 216 204 216 204 c 1
840 492 m 0
 840 425.711914062 786.288085938 372 720 372 c 0
 653.711914062 372 600 425.711914062 600 492 c 0
 600 558.288085938 696 732 720 732 c 0
 744 732 840 558.288085938 840 492 c 0
EndSplineSet
Fore
Refer: 48 -1 N 1 0 0 1 720 732 0
Colour: 54abed
EndChar

StartChar: RollingOnTheFloorLaughing.1
Encoding: 53 -1 53
Width: 864
GlyphClass: 5
Flags: W
LayerCount: 2
Back
SplineSet
737.47265625 629.47265625 m 0
 906.168945312 460.776367188 906.168945312 187.223632812 737.47265625 18.52734375 c 0
 568.776367188 -150.168945312 295.247070312 -150.168945312 126.52734375 18.52734375 c 0
 -42.1689453125 187.223632812 -42.1689453125 460.776367188 126.52734375 629.47265625 c 0
 295.223632812 798.168945312 568.752929688 798.168945312 737.47265625 629.47265625 c 1024
462.696289062 293.280273438 m 0
 378.838867188 209.423828125 313.439453125 163.583984375 231.215820312 108.142578125 c 0
 212.47265625 95.447265625 184.943359375 61.8466796875 231.239257812 15.52734375 c 0
 323.807617188 -77.0390625 545.904296875 -86.400390625 694.126953125 61.8232421875 c 0
 842.376953125 210.072265625 833.0390625 432.142578125 740.423828125 524.735351562 c 0
 694.126953125 571.056640625 660.50390625 543.50390625 647.831054688 524.735351562 c 0
 592.439453125 442.583984375 546.576171875 377.161132812 462.696289062 293.280273438 c 0
277.53515625 61.8466796875 m 2
 277.53515625 61.8466796875 370.126953125 108.142578125 508.9921875 247.03125 c 0
 647.880859375 385.896484375 694.153320312 478.46484375 694.153320312 478.46484375 c 1
 694.153320312 478.46484375 740.423828125 339.576171875 578.423828125 177.576171875 c 0
 416.423828125 15.552734375 277.53515625 61.8466796875 277.53515625 61.8466796875 c 2
198.361328125 150.384765625 m 0
 193.200195312 145.223632812 185.760742188 142.46484375 177.984375 143.591796875 c 0
 164.857421875 145.46484375 155.735351562 157.607421875 157.630859375 170.735351562 c 0
 158.231445312 174.9609375 170.665039062 257.857421875 224.208007812 336.865234375 c 1
 161.161132812 315.912109375 114.072265625 269.760742188 113.47265625 269.161132812 c 0
 104.087890625 259.823242188 88.896484375 259.846679688 79.53515625 269.231445312 c 0
 70.1767578125 278.591796875 70.1767578125 293.760742188 79.53515625 303.119140625 c 0
 83.2802734375 306.865234375 172.704101562 394.9921875 283.176757812 394.9921875 c 0
 292.896484375 394.9921875 301.630859375 389.161132812 305.353515625 380.184570312 c 0
 309.072265625 371.208007812 307.0078125 360.888671875 300.142578125 354.0234375 c 0
 221.857421875 275.735351562 205.272460938 165.046875 205.103515625 163.96875 c 0
 204.361328125 158.591796875 201.888671875 153.912109375 198.361328125 150.384765625 c 0
605.591796875 557.665039062 m 0
 602.064453125 554.134765625 597.408203125 551.665039062 592.080078125 550.896484375 c 0
 590.953125 550.727539062 479.857421875 533.735351562 401.9765625 455.857421875 c 0
 395.111328125 448.9921875 384.791992188 446.927734375 375.815429688 450.646484375 c 0
 366.838867188 454.369140625 361.0078125 463.103515625 361.0078125 472.823242188 c 0
 361.0078125 583.319335938 449.134765625 672.719726562 452.880859375 676.46484375 c 0
 462.239257812 685.823242188 477.408203125 685.823242188 486.768554688 676.46484375 c 0
 496.153320312 667.126953125 496.176757812 651.912109375 486.838867188 642.552734375 c 0
 486.215820312 641.927734375 440.064453125 594.865234375 419.111328125 531.815429688 c 1
 498.119140625 585.361328125 580.9921875 597.791992188 585.215820312 598.392578125 c 0
 598.319335938 600.264648438 610.46484375 591.192382812 612.361328125 578.064453125 c 0
 613.53515625 570.288085938 610.776367188 562.823242188 605.591796875 557.665039062 c 0
722.423828125 466.680664062 m 0
 788.208007812 458.665039062 848.0390625 505.51171875 856.03125 571.319335938 c 0
 864.046875 637.103515625 817.223632812 696.935546875 751.416015625 704.953125 c 0
 685.630859375 712.943359375 501.599609375 638.638671875 498.696289062 614.807617188 c 0
 495.791992188 591 656.638671875 474.719726562 722.423828125 466.680664062 c 0
291.768554688 36.0234375 m 0
 299.784179688 -29.7607421875 252.935546875 -89.591796875 187.126953125 -97.583984375 c 0
 121.342773438 -105.599609375 61.51171875 -58.7763671875 53.49609375 7.03125 c 0
 45.48046875 72.8388671875 119.807617188 256.873046875 143.638671875 259.776367188 c 0
 167.447265625 262.657226562 283.727539062 101.807617188 291.768554688 36.0234375 c 0
EndSplineSet
Fore
Refer: 35 -1 N -0.707108 -0.707108 -0.707108 0.707108 470 659.5 0
Refer: 35 -1 N 0.707108 0.707108 -0.707108 0.707108 96.5 286 0
Refer: 36 -1 N 0.964492 0.964492 -0.964492 0.964492 694 62 0
Colour: 996633
EndChar

StartChar: eyebrow.8
Encoding: 54 -1 54
Width: 0
GlyphClass: 5
Flags: W
LayerCount: 2
Back
SplineSet
-4.7255859375 23.5341796875 m 2
 -4.7255859375 23.5341796875 l 0
 -4.7255859375 23.53515625 -4.7236328125 23.541015625 -4.6923828125 23.541015625 c 0
 -4.69140625 23.541015625 -4.6904296875 23.541015625 -4.689453125 23.541015625 c 0
 -3.1982421875 23.84765625 -1.6181640625 24.0078125 -0.0009765625 24.0078125 c 0
 13.2470703125 24.0078125 24.0029296875 13.251953125 24.0029296875 0.00390625 c 0
 24.0029296875 -11.626953125 15.7138671875 -21.3369140625 4.7255859375 -23.5341796875 c 1
 4.7255859375 -23.5341796875 4.8134765625 -23.515625 4.814453125 -23.515625 c 1
 4.814453125 -23.515625 4.80859375 -23.517578125 4.7958984375 -23.51953125 c 0
 4.6484375 -23.55078125 1.8525390625 -24.140625 -2.8984375 -25.525390625 c 0
 -7.173828125 -26.771484375 -13.033203125 -28.6611328125 -19.9697265625 -31.35546875 c 0
 -26.90625 -34.05078125 -34.9189453125 -37.5517578125 -43.5107421875 -42.0078125 c 0
 -50.3837890625 -45.57421875 -57.626953125 -49.7509765625 -64.9931640625 -54.61328125 c 0
 -78.2568359375 -63.3662109375 -91.9013671875 -74.3271484375 -104.620117188 -87.953125 c 0
 -111.6875 -95.525390625 -118.47265625 -103.922851562 -124.771484375 -113.254882812 c 0
 -132.645507812 -124.918945312 -139.764648438 -138.044921875 -145.70703125 -152.899414062 c 2
 -145.71875 -152.930664062 l 2
 -149.2578125 -161.77734375 -157.912109375 -168.033203125 -168.015625 -168.033203125 c 0
 -181.264648438 -168.033203125 -192.01953125 -157.27734375 -192.01953125 -144.029296875 c 0
 -192.01953125 -140.884765625 -191.4140625 -137.881835938 -190.29296875 -135.100585938 c 0
 -183.06640625 -117.033203125 -174.306640625 -100.850585938 -164.583984375 -86.4462890625 c 0
 -156.805664062 -74.923828125 -148.4140625 -64.541015625 -139.711914062 -55.2177734375 c 0
 -124.044921875 -38.431640625 -107.385742188 -25.0830078125 -91.384765625 -14.5224609375 c 0
 -82.4931640625 -8.654296875 -73.7998046875 -3.6435546875 -65.5654296875 0.62890625 c 0
 -55.2724609375 5.96875 -45.6953125 10.1533203125 -37.328125 13.404296875 c 0
 -28.9599609375 16.6552734375 -21.7998046875 18.97265625 -16.333984375 20.5654296875 c 0
 -9.5029296875 22.556640625 -5.31640625 23.416015625 -4.7255859375 23.5341796875 c 2
0 0 m 0
 0 0 -120 -24 -168 -144 c 1024
EndSplineSet
Fore
SplineSet
-192 -144 m 1,0,1
 -192 -140 -192 -140 -191 -137 c 257,2,3
 -166 -74 -166 -74 -116 -33 c 129,-1,4
 -66 8 -66 8 -7 23 c 1,5,6
 -3 24 -3 24 0 24 c 1,7,8
 10 24 10 24 17 17 c 129,-1,9
 24 10 24 10 24 0 c 257,10,11
 24 -9 24 -9 17 -17 c 1,12,13
 12 -22 12 -22 3 -24 c 1,14,15
 -41 -35 -41 -35 -82 -67 c 129,-1,16
 -123 -99 -123 -99 -145 -151 c 257,17,18
 -147 -157 -147 -157 -151 -161 c 257,19,20
 -158 -168 -158 -168 -168 -168 c 129,-1,21
 -178 -168 -178 -168 -185 -161 c 129,-1,22
 -192 -154 -192 -154 -192 -144 c 1,0,1
EndSplineSet
Colour: ff00ff
EndChar

StartChar: BeamingFaceWithSmilingEyes.2
Encoding: 55 -1 55
Width: 864
Flags: W
LayerCount: 2
Back
SplineSet
216 204 m 1
 216 204 288 180 432 180 c 1
 576 180 648 204 648 204 c 1
 648 204 615.743164062 42 432 42 c 1
 248.256835938 42 216 204 216 204 c 1
432 93.748046875 m 5
 345.696289062 93.748046875 281.47265625 102.677734375 241.51171875 111.627929688 c 13
 221.688476562 156.532226562 l 5
 241.46484375 149.069335938 315.0234375 135.004882812 432 135.004882812 c 5
 550.896484375 135.004882812 624.888671875 149.7890625 644.735351562 157.493164062 c 5
 627.912109375 113.28515625 l 21
 588.719726562 104.189453125 521.880859375 93.748046875 432 93.748046875 c 5
EndSplineSet
Fore
SplineSet
216 204 m 1,0,1
 302 180 302 180 432 180 c 129,-1,2
 562 180 562 180 648 204 c 1,3,4
 639 165 639 165 611 126 c 129,-1,5
 583 87 583 87 537.5 64.5 c 129,-1,6
 492 42 492 42 432 42 c 129,-1,7
 372 42 372 42 326.5 64.5 c 129,-1,8
 281 87 281 87 253 126 c 129,-1,9
 225 165 225 165 216 204 c 1,0,1
EndSplineSet
EndChar

StartChar: BeamingFaceWithSmilingEyes.3
Encoding: 56 -1 56
Width: 864
Flags: W
LayerCount: 2
Back
SplineSet
432 93.748046875 m 5
 345.696289062 93.748046875 281.47265625 102.677734375 241.51171875 111.627929688 c 13
 221.688476562 156.532226562 l 5
 241.46484375 149.069335938 315.0234375 135.004882812 432 135.004882812 c 5
 550.896484375 135.004882812 624.888671875 149.7890625 644.735351562 157.493164062 c 5
 627.912109375 113.28515625 l 21
 588.719726562 104.189453125 521.880859375 93.748046875 432 93.748046875 c 5
EndSplineSet
Fore
SplineSet
220 156 m 1,0,1
 303 135 303 135 432 135 c 257,2,3
 560 135 560 135 644 156 c 1,4,5
 644 156 644 156 627 113 c 1,6,7
 544 94 544 94 432 94 c 257,8,9
 320 94 320 94 240 112 c 1,10,11
 220 156 220 156 220 156 c 1,0,1
EndSplineSet
Colour: 996633
EndChar

StartChar: SlightlySmilingFace.1
Encoding: 57 -1 57
Width: 864
Flags: W
LayerCount: 2
Back
SplineSet
0 324 m 0
 0 85.4130859375 193.413085938 -108 432 -108 c 0
 670.586914062 -108 864 85.4130859375 864 324 c 0
 864 562.586914062 670.586914062 756 432 756 c 0
 193.413085938 756 0 562.586914062 0 324 c 0
252.361328125 189.095703125 m 0
 253.439453125 184.799804688 280.392578125 84 432 84 c 0
 583.630859375 84 610.560546875 184.799804688 611.638671875 189.095703125 c 0
 612.9609375 194.303710938 610.607421875 199.704101562 605.953125 202.392578125 c 0
 601.272460938 205.056640625 595.416015625 204.264648438 591.552734375 200.54296875 c 0
 591.095703125 200.087890625 544.657226562 156 432 156 c 0
 319.342773438 156 272.880859375 200.087890625 272.447265625 200.51953125 c 0
 270.142578125 202.799804688 267.072265625 204 264 204 c 0
 261.984375 204 259.943359375 203.49609375 258.095703125 202.46484375 c 0
 253.392578125 199.776367188 251.0390625 194.327148438 252.361328125 189.095703125 c 0
228 432 m 0
 228 385.607421875 254.864257812 348 288 348 c 0
 321.135742188 348 348 385.607421875 348 432 c 0
 348 478.392578125 321.135742188 516 288 516 c 0
 254.864257812 516 228 478.392578125 228 432 c 0
516 432 m 0
 516 385.607421875 542.864257812 348 576 348 c 0
 609.135742188 348 636 385.607421875 636 432 c 0
 636 478.392578125 609.135742188 516 576 516 c 0
 542.864257812 516 516 478.392578125 516 432 c 0
EndSplineSet
Fore
Refer: 66 -1 N 1 0 0 1 432 84 0
Refer: 4 -1 N 0.15625 0 0 0.21875 576 432 0
Refer: 4 -1 N 0.15625 0 0 0.21875 288 432 0
Colour: 996633
EndChar

StartChar: StarStruck.3
Encoding: 58 -1 58
Width: 864
Flags: W
LayerCount: 2
Back
SplineSet
864 324 m 0
 864 85.416015625 670.583984375 -108 432 -108 c 0
 193.416015625 -108 0 85.416015625 0 324 c 0
 0 562.583984375 193.416015625 756 432 756 c 0
 670.583984375 756 864 562.583984375 864 324 c 1024
432 252 m 0
 345.046875 252 287.353515625 262.126953125 216 276 c 0
 199.704101562 279.142578125 168 276 168 228 c 0
 168 132 278.280273438 12 432 12 c 0
 585.696289062 12 696 132 696 228 c 0
 696 276 664.295898438 279.168945312 648 276 c 0
 576.646484375 262.126953125 518.953125 252 432 252 c 0
216 228 m 1
 216 228 288 204 432 204 c 0
 576 204 648 228 648 228 c 1
 648 228 600 132 432 132 c 0
 264 132 216 228 216 228 c 1
376.369140625 650.087890625 m 2
 267.361328125 630.865234375 l 1
 211.200195312 732.935546875 l 2
 205.0078125 744.192382812 192.288085938 750.215820312 179.711914062 748.0078125 c 0
 167.064453125 745.776367188 157.223632812 735.743164062 155.256835938 723.072265625 c 2
 137.376953125 607.943359375 l 1
 28.369140625 588.719726562 l 2
 15.52734375 586.46484375 5.615234375 576.119140625 3.865234375 563.184570312 c 0
 2.111328125 550.247070312 8.927734375 537.672851562 20.7353515625 532.056640625 c 2
 118.416015625 485.688476562 l 1
 100.46484375 370.200195312 l 2
 98.47265625 357.334960938 105 344.665039062 116.615234375 338.784179688 c 0
 120.912109375 336.623046875 125.51953125 335.591796875 130.103515625 335.591796875 c 0
 137.953125 335.591796875 145.704101562 338.665039062 151.48828125 344.51953125 c 2
 235.776367188 429.984375 l 1
 344.208007812 378.50390625 l 2
 355.96875 372.935546875 369.984375 375.552734375 378.912109375 385.03125 c 0
 387.838867188 394.51171875 389.615234375 408.646484375 383.353515625 420.046875 c 2
 327 522.48046875 l 1
 402.9609375 599.47265625 l 2
 412.126953125 608.760742188 414.215820312 622.919921875 408.168945312 634.48828125 c 0
 402.072265625 646.056640625 389.134765625 652.319335938 376.369140625 650.087890625 c 2
487.630859375 650.087890625 m 2
 596.638671875 630.865234375 l 1
 652.799804688 732.935546875 l 2
 658.9921875 744.192382812 671.711914062 750.215820312 684.288085938 748.0078125 c 0
 696.912109375 745.776367188 706.752929688 735.743164062 708.719726562 723.072265625 c 2
 726.599609375 607.943359375 l 1
 835.607421875 588.719726562 l 2
 848.47265625 586.46484375 858.384765625 576.142578125 860.111328125 563.208007812 c 0
 861.838867188 550.272460938 855.046875 537.696289062 843.239257812 532.080078125 c 2
 745.560546875 485.711914062 l 1
 763.51171875 370.223632812 l 2
 765.50390625 357.361328125 758.9765625 344.688476562 747.361328125 338.807617188 c 0
 743.064453125 336.646484375 738.45703125 335.615234375 733.873046875 335.615234375 c 0
 726.0234375 335.615234375 718.272460938 338.688476562 712.48828125 344.54296875 c 2
 628.200195312 430.0078125 l 1
 519.768554688 378.52734375 l 2
 508.0078125 372.9609375 493.9921875 375.576171875 485.064453125 385.056640625 c 0
 476.134765625 394.53515625 474.361328125 408.672851562 480.623046875 420.072265625 c 2
 536.9765625 522.48046875 l 1
 461.015625 599.47265625 l 2
 451.846679688 608.760742188 449.760742188 622.919921875 455.807617188 634.48828125 c 0
 461.927734375 646.056640625 474.865234375 652.319335938 487.630859375 650.087890625 c 2
EndSplineSet
Fore
Refer: 88 -1 N 0.820673 -0.144707 0.144707 0.820673 679.092 718.459 0
Refer: 88 -1 N 0.820672 0.144707 -0.144707 0.820672 184.908 718.459 0
EndChar

StartChar: UpsideDownFace.1
Encoding: 59 -1 59
Width: 864
Flags: W
LayerCount: 2
Back
SplineSet
0 324 m 0
 0 562.583984375 193.416015625 756 432 756 c 0
 670.583984375 756 864 562.583984375 864 324 c 0
 864 85.416015625 670.583984375 -108 432 -108 c 0
 193.416015625 -108 0 85.416015625 0 324 c 1024
207.9609375 447.095703125 m 0
 212.231445312 443.231445312 218.615234375 442.9921875 223.200195312 446.400390625 c 0
 224.134765625 447.095703125 317.327148438 516 432 516 c 0
 546.384765625 516 639.888671875 447.095703125 640.799804688 446.400390625 c 0
 645.384765625 442.9921875 651.768554688 443.280273438 656.0390625 447.095703125 c 0
 660.288085938 450.935546875 661.247070312 457.272460938 658.295898438 462.168945312 c 0
 655.200195312 467.303710938 581.087890625 588 432 588 c 0
 282.912109375 588 208.776367188 467.327148438 205.704101562 462.168945312 c 0
 202.752929688 457.247070312 203.688476562 450.935546875 207.9609375 447.095703125 c 0
216 240 m 0
 216 193.607421875 242.864257812 156 276 156 c 0
 309.135742188 156 336 193.607421875 336 240 c 0
 336 286.392578125 309.135742188 324 276 324 c 0
 242.864257812 324 216 286.392578125 216 240 c 0
528 240 m 0
 528 193.607421875 554.864257812 156 588 156 c 0
 621.135742188 156 648 193.607421875 648 240 c 0
 648 286.392578125 621.135742188 324 588 324 c 0
 554.864257812 324 528 286.392578125 528 240 c 0
EndSplineSet
Fore
Refer: 93 -1 N 1 0 0 1 0 -120 2
Refer: 11 -1 N -1 0 0 -1 432 588 0
Colour: 996633
EndChar

StartChar: FaceBlowingKiss.1
Encoding: 60 -1 60
Width: 864
Flags: W
LayerCount: 2
Back
SplineSet
0 324 m 0
 0 85.4130859375 193.413085938 -108 432 -108 c 0
 670.586914062 -108 864 85.4130859375 864 324 c 0
 864 562.586914062 670.586914062 756 432 756 c 0
 193.413085938 756 0 562.586914062 0 324 c 0
216 384 m 0
 216 337.607421875 242.864257812 300 276 300 c 0
 309.135742188 300 336 337.607421875 336 384 c 0
 336 430.392578125 309.135742188 468 276 468 c 0
 242.864257812 468 216 430.392578125 216 384 c 0
682.96875 328.873046875 m 0
 681.52734375 332.111328125 646.9921875 408 576 408 c 0
 505.03125 408 470.47265625 332.111328125 469.03125 328.873046875 c 0
 466.823242188 323.904296875 468.264648438 318.095703125 472.51171875 314.688476562 c 0
 476.711914062 311.280273438 482.735351562 311.161132812 487.153320312 314.353515625 c 0
 487.439453125 314.568359375 517.439453125 336 576 336 c 0
 634.223632812 336 664.176757812 314.857421875 664.846679688 314.376953125 c 0
 666.9609375 312.791992188 669.50390625 312 672 312 c 0
 674.638671875 312 677.303710938 312.888671875 679.48828125 314.615234375 c 0
 683.735351562 318.0234375 685.200195312 323.880859375 682.96875 328.873046875 c 0
143.9765625 492 m 0
 138.984375 492 133.919921875 493.560546875 129.599609375 496.799804688 c 0
 118.9921875 504.743164062 116.857421875 519.791992188 124.799804688 530.400390625 c 0
 203.087890625 634.799804688 307.583984375 636 312 636 c 0
 325.247070312 636 336 625.247070312 336 612 c 0
 336 598.776367188 325.319335938 588.046875 312.095703125 588 c 0
 308.376953125 587.953125 226.46484375 585.935546875 163.200195312 501.599609375 c 0
 158.49609375 495.311523438 151.272460938 492 143.9765625 492 c 0
696.0234375 420 m 0
 688.704101562 420 681.52734375 423.311523438 676.799804688 429.599609375 c 0
 614.591796875 512.54296875 509.735351562 492.672851562 508.704101562 492.48046875 c 0
 495.576171875 489.838867188 483.072265625 498.334960938 480.45703125 511.295898438 c 0
 477.865234375 524.280273438 486.288085938 536.927734375 499.272460938 539.54296875 c 0
 504.815429688 540.672851562 635.0390625 565.272460938 715.176757812 458.423828125 c 0
 723.142578125 447.815429688 720.984375 432.768554688 710.376953125 424.823242188 c 0
 706.080078125 421.560546875 701.0390625 420 696.0234375 420 c 0
481.896484375 106.9921875 m 1
 513.935546875 116.880859375 544.9921875 134.735351562 544.9921875 166.9921875 c 0
 544.9921875 229.846679688 427.103515625 238.223632812 413.665039062 238.96875 c 0
 407.087890625 239.591796875 401.447265625 234.334960938 401.015625 227.735351562 c 0
 400.607421875 221.161132812 405.576171875 215.47265625 412.153320312 215.015625 c 0
 412.9921875 214.96875 496.9921875 207.838867188 496.9921875 166.9921875 c 0
 496.9921875 126.142578125 412.9921875 119.015625 412.153320312 118.96875 c 0
 411.815429688 118.943359375 411.576171875 118.752929688 411.264648438 118.704101562 c 0
 410.015625 118.560546875 408.838867188 118.272460938 407.760742188 117.743164062 c 2
 407.303710938 117.48046875 l 2
 406.176757812 116.857421875 405.192382812 116.111328125 404.303710938 115.126953125 c 0
 403.96875 114.768554688 403.727539062 114.384765625 403.439453125 113.9765625 c 0
 402.888671875 113.208007812 402.384765625 112.46484375 402.0234375 111.52734375 c 0
 401.735351562 110.831054688 401.591796875 110.064453125 401.447265625 109.319335938 c 0
 401.353515625 108.768554688 401.064453125 108.264648438 401.015625 107.711914062 c 0
 401.015625 107.447265625 401.111328125 107.208007812 401.111328125 106.96875 c 0
 401.111328125 106.727539062 400.9921875 106.46484375 401.015625 106.223632812 c 0
 401.0390625 105.646484375 401.327148438 105.142578125 401.447265625 104.591796875 c 0
 401.591796875 103.846679688 401.711914062 103.126953125 402 102.431640625 c 0
 402.311523438 101.711914062 402.743164062 101.064453125 403.176757812 100.416015625 c 0
 403.583984375 99.8388671875 403.943359375 99.2158203125 404.423828125 98.7119140625 c 0
 404.9765625 98.1611328125 405.623046875 97.7275390625 406.295898438 97.2470703125 c 0
 406.873046875 96.8388671875 407.400390625 96.431640625 408.072265625 96.119140625 c 0
 408.838867188 95.7607421875 409.657226562 95.615234375 410.49609375 95.47265625 c 0
 411.072265625 95.3271484375 411.552734375 95.0390625 412.153320312 94.9921875 c 0
 412.9921875 94.943359375 496.9921875 87.8154296875 496.9921875 46.96875 c 0
 496.9921875 6.119140625 412.9921875 -1.0078125 412.153320312 -1.056640625 c 0
 405.576171875 -1.53515625 400.607421875 -7.2236328125 401.015625 -13.7763671875 c 0
 401.423828125 -20.134765625 406.704101562 -25.03125 412.9921875 -25.03125 c 2
 413.665039062 -25.0078125 l 2
 427.103515625 -24.2646484375 544.9921875 -15.888671875 544.9921875 46.96875 c 0
 544.9921875 79.2470703125 513.935546875 97.103515625 481.896484375 106.9921875 c 1
820.846679688 136.727539062 m 0
 815.184570312 155.688476562 802.153320312 172.392578125 782.9765625 181.727539062 c 0
 760.846679688 192.50390625 736.03125 191.111328125 715.943359375 180.288085938 c 1
 712.103515625 202.752929688 697.943359375 223.223632812 675.865234375 233.9765625 c 0
 639.45703125 251.735351562 595.51171875 236.615234375 577.776367188 200.231445312 c 0
 575.256835938 195.072265625 573.45703125 189.743164062 572.256835938 184.416015625 c 0
 553.657226562 123.072265625 587.615234375 32.2314453125 624.865234375 -6.3349609375 c 0
 654.384765625 -9.45703125 695.735351562 -1.583984375 733.176757812 14.615234375 c 0
 769.176757812 49.6572265625 798.768554688 91.0078125 820.846679688 136.727539062 c 0
855.696289062 102.672851562 m 0
 873.431640625 139.056640625 858.334960938 183 821.9765625 200.735351562 c 0
 799.846679688 211.51171875 775.03125 210.119140625 754.943359375 199.295898438 c 1
 751.103515625 221.760742188 736.943359375 242.231445312 714.865234375 252.984375 c 0
 678.45703125 270.743164062 634.51171875 255.599609375 616.776367188 219.239257812 c 0
 614.256835938 214.080078125 612.45703125 208.752929688 611.256835938 203.423828125 c 0
 592.680664062 142.080078125 626.615234375 51.2392578125 663.865234375 12.6728515625 c 0
 717.215820312 7.056640625 809.711914062 36.1689453125 846.623046875 88.53515625 c 0
 850.103515625 92.8310546875 853.176757812 97.51171875 855.696289062 102.672851562 c 0
EndSplineSet
Fore
Refer: 69 -1 N 1 0 0 1 504 516 0
Refer: 68 -1 N 1 0 0 1 413 107 0
Refer: 12 -1 N 1 0 0 1 312 612 0
Refer: 14 -1 N -1 0 0 -1 576 408 0
Refer: 4 -1 N 0.15625 0 0 0.21875 276 384 0
Colour: 996633
EndChar

StartChar: FaceWithTearsOfJoy.1
Encoding: 61 -1 61
Width: 864
Flags: W
LayerCount: 2
Back
SplineSet
864 324 m 0
 864 85.416015625 670.583984375 -108 432 -108 c 0
 193.439453125 -108 0 85.416015625 0 324 c 0
 0 562.560546875 193.439453125 756 432 756 c 0
 670.583984375 756 864 562.560546875 864 324 c 1024
682.96875 328.873046875 m 0
 681.52734375 332.111328125 646.9921875 408 576 408 c 0
 505.03125 408 470.47265625 332.111328125 469.03125 328.873046875 c 0
 466.823242188 323.904296875 468.264648438 318.095703125 472.51171875 314.688476562 c 0
 476.711914062 311.280273438 482.735351562 311.161132812 487.153320312 314.353515625 c 0
 487.439453125 314.568359375 517.439453125 336 576 336 c 0
 634.223632812 336 664.176757812 314.857421875 664.846679688 314.376953125 c 0
 666.9609375 312.791992188 669.50390625 312 672 312 c 0
 674.638671875 312 677.303710938 312.888671875 679.48828125 314.615234375 c 0
 683.735351562 318.0234375 685.200195312 323.880859375 682.96875 328.873046875 c 0
394.96875 328.873046875 m 0
 393.52734375 332.111328125 358.9921875 408 288 408 c 0
 217.03125 408 182.47265625 332.111328125 181.03125 328.873046875 c 0
 178.823242188 323.904296875 180.264648438 318.095703125 184.48828125 314.688476562 c 0
 188.711914062 311.280273438 194.735351562 311.161132812 199.126953125 314.353515625 c 0
 199.439453125 314.568359375 229.416015625 336 288 336 c 0
 346.223632812 336 376.176757812 314.857421875 376.846679688 314.376953125 c 0
 378.9609375 312.791992188 381.50390625 312 384 312 c 0
 386.638671875 312 389.303710938 312.888671875 391.48828125 314.615234375 c 0
 395.760742188 318.0234375 397.176757812 323.880859375 394.96875 328.873046875 c 0
744 372 m 0
 734.49609375 372 725.47265625 377.711914062 721.704101562 387.095703125 c 0
 679.03125 493.776367188 572.353515625 516.239257812 571.272460938 516.48046875 c 0
 558.288085938 519.072265625 549.838867188 531.719726562 552.45703125 544.727539062 c 0
 555.046875 557.735351562 567.696289062 566.111328125 580.704101562 563.54296875 c 0
 586.126953125 562.46484375 714.046875 535.51171875 766.272460938 404.953125 c 0
 771.192382812 392.638671875 765.192382812 378.672851562 752.880859375 373.752929688 c 0
 750 372.552734375 746.9765625 372 744 372 c 0
120 372 m 0
 117.0234375 372 114.0234375 372.552734375 111.095703125 373.727539062 c 0
 98.7841796875 378.646484375 92.8076171875 392.615234375 97.7275390625 404.927734375 c 0
 149.953125 535.48828125 277.873046875 562.439453125 283.295898438 563.51953125 c 0
 296.327148438 566.064453125 308.927734375 557.688476562 311.54296875 544.704101562 c 0
 314.134765625 531.743164062 305.735351562 519.119140625 292.799804688 516.48046875 c 0
 288.361328125 515.568359375 184.657226562 492.9609375 142.295898438 387.095703125 c 0
 138.52734375 377.711914062 129.50390625 372 120 372 c 0
432 228 m 0
 345.046875 228 287.353515625 238.126953125 216 252 c 0
 199.704101562 255.142578125 168 252 168 204 c 0
 168 108 278.280273438 -12 432 -12 c 0
 585.696289062 -12 696 108 696 204 c 0
 696 252 664.295898438 255.168945312 648 252 c 0
 576.646484375 238.126953125 518.953125 228 432 228 c 0
216 204 m 1
 216 204 288 180 432 180 c 0
 576 180 648 204 648 204 c 1
 648 204 600 108 432 108 c 0
 264 108 216 204 216 204 c 1
260.327148438 78.50390625 m 0
 244.0078125 14.2568359375 178.727539062 -24.576171875 114.48046875 -8.2568359375 c 0
 50.2568359375 8.0390625 11.400390625 73.3193359375 27.6962890625 137.568359375 c 0
 43.9921875 201.815429688 179.784179688 346.560546875 203.064453125 340.657226562 c 0
 226.342773438 334.727539062 276.623046875 142.727539062 260.327148438 78.50390625 c 0
603.192382812 78.50390625 m 0
 619.51171875 14.2568359375 684.791992188 -24.576171875 749.0390625 -8.2568359375 c 0
 813.288085938 8.0390625 852.142578125 73.3193359375 835.823242188 137.568359375 c 0
 819.50390625 201.815429688 683.711914062 346.560546875 660.431640625 340.657226562 c 0
 637.200195312 334.727539062 586.896484375 142.727539062 603.192382812 78.50390625 c 0
EndSplineSet
Fore
Refer: 29 -1 S 1 0 0 1 0 0 0
Refer: 54 -1 N -1 0 0 1 576 540 0
Refer: 54 -1 N 1 0 0 1 288 540 0
Colour: 996633
EndChar

StartChar: MeltingFace.1
Encoding: 62 -1 62
Width: 864
Flags: W
LayerCount: 2
Back
SplineSet
841.680664062 -25.392578125 m 4
 855.086914062 -17.33203125 864.065429688 -2.6416015625 864.065429688 14.1279296875 c 4
 864.065429688 19.115234375 863.212890625 23.892578125 861.743164062 28.392578125 c 4
 855.52734375 47.8310546875 836.064453125 60 815.638671875 60 c 6
 768 60 l 6
 754.752929688 60 744 70.7529296875 744 84 c 4
 744 97.2470703125 754.752929688 108 768 108 c 6
 804 108 l 6
 823.645507812 108.262695312 839.514648438 124.291015625 839.514648438 144 c 4
 839.514648438 163.870117188 823.3828125 180.001953125 803.509765625 180.001953125 c 4
 803.348632812 180.001953125 803.203125 180.001953125 803.0390625 180 c 4
 783.838867188 179.49609375 768 194.953125 768 214.153320312 c 6
 768 214.223632812 l 6
 768 221.256835938 769.439453125 228.095703125 772.223632812 234.552734375 c 4
 792.534179688 280.126953125 803.829101562 330.592773438 803.829101562 383.676757812 c 4
 803.829101562 391.560546875 803.770507812 399.373046875 803.280273438 407.134765625 c 4
 791.47265625 596.161132812 633.865234375 749.54296875 444.576171875 755.784179688 c 4
 233.376953125 762.743164062 60 593.615234375 60 384 c 4
 60 327.095703125 73.1533203125 273.384765625 96 225.142578125 c 6
 96 180.0234375 l 6
 96 153.9609375 75.2392578125 131.51953125 49.1767578125 132.0234375 c 4
 48.84375 132.030273438 48.5087890625 132.03515625 48.173828125 132.03515625 c 4
 21.681640625 132.03515625 0.173828125 110.526367188 0.173828125 84.03515625 c 4
 0.173828125 82.666015625 0.248046875 81.3564453125 0.361328125 80.015625 c 4
 2.423828125 54.599609375 25.6572265625 36 51.1923828125 36 c 6
 244.126953125 36 l 6
 244.155273438 36 244.18359375 36 244.211914062 36 c 4
 259.708984375 36 272.290039062 23.4189453125 272.290039062 7.919921875 c 4
 272.290039062 0.138671875 269.12109375 -6.912109375 264 -12 c 5
 263.998046875 -11.998046875 191.280273438 -30.1689453125 191.280273438 -30.1689453125 c 6
 177.927734375 -33.517578125 168.030273438 -45.607421875 168.030273438 -59.990234375 c 4
 168.030273438 -74.3740234375 177.927734375 -86.458984375 191.280273438 -89.8076171875 c 4
 237.646484375 -101.400390625 285.215820312 -107.49609375 333 -107.953125 c 6
 398.087890625 -108.576171875 l 6
 431.831054688 -108.912109375 465.361328125 -101.134765625 494.784179688 -84.576171875 c 4
 523.560546875 -68.388671875 556.764648438 -59.1513671875 592.106445312 -59.1513671875 c 4
 605.111328125 -59.1513671875 617.880859375 -60.2763671875 630.192382812 -62.6650390625 c 4
 702.865234375 -76.7763671875 778.200195312 -63.48046875 841.680664062 -25.392578125 c 4
449.665039062 179.927734375 m 0
 431.568359375 179.927734375 413.568359375 181.799804688 395.807617188 185.54296875 c 0
 331.176757812 199.247070312 275.735351562 236.303710938 243.696289062 287.208007812 c 0
 241.474609375 290.845703125 240.194335938 295.120117188 240.194335938 299.690429688 c 0
 240.194335938 312.9375 250.947265625 323.690429688 264.194335938 323.690429688 c 0
 272.629882812 323.690429688 280.024414062 319.380859375 284.303710938 312.791992188 c 0
 309.095703125 273.384765625 354.50390625 243.384765625 405.743164062 232.51171875 c 0
 448.153320312 223.51171875 513.912109375 223.080078125 586.607421875 271.919921875 c 0
 590.430664062 274.48828125 595.029296875 275.98828125 599.9765625 275.98828125 c 0
 613.223632812 275.98828125 623.978515625 265.232421875 623.978515625 251.986328125 c 0
 623.978515625 243.684570312 619.8046875 236.390625 613.392578125 232.080078125 c 0
 562.295898438 197.760742188 505.657226562 179.927734375 449.665039062 179.927734375 c 0
288 468 m 0
 288 428.236328125 309.490234375 396 336 396 c 0
 362.509765625 396 384 428.236328125 384 468 c 0
 384 507.763671875 362.509765625 540 336 540 c 0
 309.490234375 540 288 507.763671875 288 468 c 0
504 420 m 0
 504 380.236328125 525.490234375 348 552 348 c 0
 578.509765625 348 600 380.236328125 600 420 c 0
 600 459.763671875 578.509765625 492 552 492 c 0
 525.490234375 492 504 459.763671875 504 420 c 0
EndSplineSet
Fore
Refer: 72 -1 N 1 0 0 1 0 0 0
Refer: 4 -1 N 0.125 0 0 0.1875 552 420 0
Refer: 4 -1 N 0.125 0 0 0.1875 336 468 0
Colour: 996633
EndChar

StartChar: WinkingFace.1
Encoding: 63 -1 63
Width: 864
Flags: W
LayerCount: 2
Back
SplineSet
864 324 m 0
 864 85.416015625 670.583984375 -108 432 -108 c 0
 193.439453125 -108 0 85.416015625 0 324 c 0
 0 562.560546875 193.439453125 756 432 756 c 0
 670.583984375 756 864 562.560546875 864 324 c 1024
216 360 m 0
 216 313.607421875 242.864257812 276 276 276 c 0
 309.135742188 276 336 313.607421875 336 360 c 0
 336 406.392578125 309.135742188 444 276 444 c 0
 242.864257812 444 216 406.392578125 216 360 c 0
682.96875 328.873046875 m 0
 681.52734375 332.111328125 646.9921875 408 576 408 c 0
 505.03125 408 470.47265625 332.111328125 469.03125 328.873046875 c 0
 466.823242188 323.904296875 468.264648438 318.095703125 472.51171875 314.688476562 c 0
 476.711914062 311.280273438 482.735351562 311.161132812 487.153320312 314.353515625 c 0
 487.439453125 314.568359375 517.439453125 336 576 336 c 0
 634.223632812 336 664.176757812 314.857421875 664.846679688 314.376953125 c 0
 666.9609375 312.791992188 669.50390625 312 672 312 c 0
 674.638671875 312 677.303710938 312.888671875 679.48828125 314.615234375 c 0
 683.735351562 318.0234375 685.200195312 323.880859375 682.96875 328.873046875 c 0
143.9765625 457.0078125 m 0
 138.984375 457.0078125 133.919921875 458.568359375 129.599609375 461.807617188 c 0
 118.9921875 469.752929688 116.857421875 484.799804688 124.799804688 495.408203125 c 0
 203.087890625 599.807617188 307.583984375 601.0078125 312 601.0078125 c 0
 325.247070312 601.0078125 336 590.256835938 336 577.0078125 c 0
 336 563.784179688 325.319335938 553.056640625 312.095703125 553.0078125 c 0
 308.353515625 552.9609375 226.439453125 550.943359375 163.176757812 466.607421875 c 0
 158.49609375 460.319335938 151.272460938 457.0078125 143.9765625 457.0078125 c 0
696.0234375 406.0078125 m 0
 688.704101562 406.0078125 681.52734375 409.319335938 676.799804688 415.607421875 c 0
 614.591796875 498.576171875 509.735351562 478.657226562 508.704101562 478.48828125 c 0
 495.576171875 475.896484375 483.072265625 484.319335938 480.45703125 497.303710938 c 0
 477.865234375 510.311523438 486.288085938 522.935546875 499.272460938 525.552734375 c 0
 504.815429688 526.680664062 635.0390625 551.280273438 715.176757812 444.431640625 c 0
 723.142578125 433.823242188 720.984375 418.776367188 710.376953125 410.831054688 c 0
 706.080078125 407.54296875 701.0390625 406.0078125 696.0234375 406.0078125 c 0
558.095703125 190.153320312 m 0
 553.583984375 192.791992188 547.727539062 192.239257812 543.768554688 188.711914062 c 0
 543.52734375 188.51953125 519.45703125 168 432 168 c 0
 344.615234375 168 320.49609375 188.49609375 320.49609375 188.49609375 c 2
 316.680664062 192.334960938 310.799804688 193.056640625 306.095703125 190.46484375 c 0
 301.416015625 187.799804688 299.064453125 182.327148438 300.384765625 177.095703125 c 0
 300.623046875 176.0390625 327.838867188 72 432 72 c 0
 536.161132812 72 563.376953125 176.0390625 563.638671875 177.095703125 c 0
 564.912109375 182.208007812 562.583984375 187.439453125 558.095703125 190.153320312 c 0
EndSplineSet
Fore
Refer: 69 -1 N 1 0 0 1 504 502 0
Refer: 12 -1 N 1 0 0 1 312 577 0
Refer: 14 -1 N -1 0 0 -1 576 408 0
Refer: 4 -1 N 0.15625 0 0 0.21875 276 360 0
Refer: 8 -1 N 1 0 0 1 432 72 0
Colour: 996633
EndChar

StartChar: KissingFaceWithSmilingEyes.1
Encoding: 64 -1 64
Width: 864
Flags: W
LayerCount: 2
Back
SplineSet
864 324 m 0
 864 85.416015625 670.583984375 -108 432 -108 c 0
 193.439453125 -108 0 85.416015625 0 324 c 0
 0 562.560546875 193.439453125 756 432 756 c 0
 670.583984375 756 864 562.560546875 864 324 c 1024
500.904296875 84 m 1
 532.943359375 93.888671875 564 111.743164062 564 144 c 0
 564 206.857421875 446.111328125 215.231445312 432.672851562 215.9765625 c 0
 426.095703125 216.623046875 420.45703125 211.342773438 420.0234375 204.743164062 c 0
 419.615234375 198.168945312 424.583984375 192.48046875 431.161132812 192.0234375 c 0
 432 191.9765625 516 184.846679688 516 144 c 0
 516 103.153320312 432 96.0234375 431.161132812 95.9765625 c 0
 430.846679688 95.953125 430.607421875 95.7841796875 430.295898438 95.7353515625 c 0
 429.0234375 95.591796875 427.846679688 95.3037109375 426.719726562 94.7529296875 c 2
 426.361328125 94.53515625 l 2
 425.208007812 93.888671875 424.176757812 93.119140625 423.311523438 92.134765625 c 0
 422.9765625 91.7763671875 422.760742188 91.392578125 422.47265625 91.0078125 c 0
 421.919921875 90.2392578125 421.416015625 89.47265625 421.03125 88.53515625 c 0
 420.743164062 87.8388671875 420.599609375 87.072265625 420.45703125 86.3271484375 c 0
 420.361328125 85.7763671875 420.072265625 85.2724609375 420.0234375 84.7197265625 c 0
 420.0234375 84.45703125 420.119140625 84.2158203125 420.119140625 83.9765625 c 0
 420.119140625 83.7353515625 420 83.47265625 420.0234375 83.2314453125 c 0
 420.046875 82.6572265625 420.334960938 82.1533203125 420.45703125 81.599609375 c 0
 420.599609375 80.857421875 420.719726562 80.134765625 421.0078125 79.439453125 c 0
 421.319335938 78.7197265625 421.752929688 78.072265625 422.184570312 77.423828125 c 0
 422.591796875 76.8466796875 422.953125 76.2236328125 423.431640625 75.7197265625 c 0
 423.984375 75.1689453125 424.630859375 74.7353515625 425.303710938 74.2568359375 c 0
 425.880859375 73.8466796875 426.408203125 73.439453125 427.080078125 73.126953125 c 0
 427.846679688 72.7685546875 428.665039062 72.623046875 429.50390625 72.48046875 c 0
 430.080078125 72.3349609375 430.560546875 72.046875 431.161132812 72 c 0
 432 71.9765625 516 64.8466796875 516 24 c 0
 516 -16.8466796875 432 -23.9765625 431.161132812 -24.0234375 c 0
 424.583984375 -24.50390625 419.615234375 -30.1923828125 420.0234375 -36.7431640625 c 0
 420.431640625 -43.103515625 425.711914062 -48 432 -48 c 2
 432.672851562 -47.9765625 l 2
 446.111328125 -47.2314453125 564 -38.857421875 564 24 c 0
 564 56.2568359375 532.943359375 74.111328125 500.904296875 84 c 1
384 300 m 0
 373.943359375 300 364.583984375 306.361328125 361.223632812 316.416015625 c 0
 356.353515625 330.791992188 336.815429688 372 312 372 c 0
 286.51171875 372 266.688476562 328.153320312 262.776367188 316.416015625 c 0
 258.576171875 303.865234375 245.064453125 297.0234375 232.416015625 301.247070312 c 0
 219.838867188 305.423828125 213.046875 319.0078125 217.247070312 331.607421875 c 0
 220.247070312 340.630859375 248.54296875 420 312 420 c 0
 375.45703125 420 403.752929688 340.630859375 406.776367188 331.583984375 c 0
 410.9765625 319.0078125 404.184570312 305.400390625 391.607421875 301.223632812 c 0
 389.064453125 300.408203125 386.49609375 300 384 300 c 0
624 300 m 0
 613.943359375 300 604.583984375 306.361328125 601.247070312 316.416015625 c 0
 596.376953125 330.791992188 576.791992188 372 552 372 c 0
 526.51171875 372 506.665039062 328.153320312 502.752929688 316.416015625 c 0
 498.552734375 303.865234375 485.087890625 297.0234375 472.392578125 301.247070312 c 0
 459.838867188 305.423828125 453.0234375 319.0078125 457.223632812 331.607421875 c 0
 460.247070312 340.630859375 488.51953125 420 552 420 c 0
 615.48046875 420 643.752929688 340.630859375 646.752929688 331.583984375 c 0
 650.953125 319.0078125 644.161132812 305.400390625 631.583984375 301.223632812 c 0
 629.064453125 300.408203125 626.49609375 300 624 300 c 0
EndSplineSet
Fore
Refer: 68 -1 N 1 0 0 1 432 84 0
Refer: 9 -1 N 1 0 0 1 312 396 0
Refer: 9 -1 N 1 0 0 1 552 396 0
Colour: 996633
EndChar

StartChar: SmilingFaceWithTear.1
Encoding: 65 -1 65
Width: 864
Flags: W
LayerCount: 2
Back
SplineSet
0 324 m 0
 0 85.4130859375 193.413085938 -108 432 -108 c 0
 670.586914062 -108 864 85.4130859375 864 324 c 0
 864 562.586914062 670.586914062 756 432 756 c 0
 193.413085938 756 0 562.586914062 0 324 c 0
228 432 m 0
 228 385.607421875 254.864257812 348 288 348 c 0
 321.135742188 348 348 385.607421875 348 432 c 0
 348 478.392578125 321.135742188 516 288 516 c 0
 254.864257812 516 228 478.392578125 228 432 c 0
516 432 m 0
 516 385.607421875 542.864257812 348 576 348 c 0
 609.135742188 348 636 385.607421875 636 432 c 0
 636 478.392578125 609.135742188 516 576 516 c 0
 542.864257812 516 516 478.392578125 516 432 c 0
656.0390625 212.904296875 m 0
 651.768554688 216.768554688 645.384765625 217.0078125 640.799804688 213.599609375 c 0
 639.865234375 212.904296875 546.672851562 144 432 144 c 0
 317.615234375 144 224.111328125 212.904296875 223.200195312 213.599609375 c 0
 218.615234375 217.0078125 212.231445312 216.719726562 207.9609375 212.904296875 c 0
 203.711914062 209.064453125 202.752929688 202.727539062 205.704101562 197.831054688 c 0
 208.799804688 192.672851562 282.912109375 72 432 72 c 0
 581.087890625 72 655.223632812 192.672851562 658.295898438 197.831054688 c 0
 661.247070312 202.752929688 660.311523438 209.064453125 656.0390625 212.904296875 c 0
708 96 m 0
 708 29.7119140625 654.288085938 -24 588 -24 c 0
 521.711914062 -24 468 29.7119140625 468 96 c 0
 468 162.288085938 564 336 588 336 c 0
 612 336 708 162.288085938 708 96 c 0
EndSplineSet
Fore
Refer: 4 -1 N 0.15625 0 0 0.21875 576 432 0
Refer: 4 -1 N 0.15625 0 0 0.21875 288 432 0
Refer: 11 -1 N 1 0 0 1 432 72 0
Colour: 996633
EndChar

StartChar: mouth.smiling3
Encoding: 66 -1 66
Width: 0
GlyphClass: 5
Flags: W
LayerCount: 2
Back
SplineSet
-159.516601562 116.483398438 m 5
 -159.572564573 116.539361448 l 4
 -159.572564573 116.539361448 -159.571010045 116.53780692 -159.567382812 116.534179688 c 4
 -159.565429688 116.532226562 -158.466796875 115.4609375 -156.189453125 113.650390625 c 4
 -154.138671875 112.021484375 -151.1328125 109.794921875 -147.107421875 107.2109375 c 4
 -139.862304688 102.560546875 -129.317382812 96.75390625 -115.083984375 91.2001953125 c 4
 -89.4697265625 81.2041015625 -51.880859375 72 0 72 c 4
 51.880859375 72 89.4697265625 81.2041015625 115.083984375 91.2001953125 c 4
 129.317382812 96.75390625 139.862304688 102.560546875 147.107421875 107.2109375 c 4
 151.1328125 109.794921875 154.138671875 112.021484375 156.189453125 113.650390625 c 4
 158.466796875 115.4609375 159.565429688 116.532226562 159.567382812 116.534179688 c 4
 159.571010045 116.53780692 159.572564573 116.539361448 159.572564573 116.539361448 c 4
 159.516601562 116.483398438 l 5
 160.932617188 117.899414062 162.72265625 118.98046875 164.788085938 119.551757812 c 4
 165.857614402 119.847939961 166.933723562 119.989256404 167.992494309 119.989256404 c 4
 173.252335347 119.989256404 178.084268086 116.501596962 179.555664062 111.1875 c 4
 179.851985642 110.117506036 179.993299622 109.04122798 179.993299622 107.982256821 c 4
 179.993299622 106.996109321 179.870753205 106.024970232 179.63671875 105.087890625 c 5
 179.66716877 105.210513678 179.678589779 105.255460223 179.67900902 105.255460223 c 5
 179.67900902 105.255460223 179.599523562 104.923987912 179.599523562 104.916542122 c 5
 179.599523562 104.916542122 179.61097672 104.957578756 179.642578125 105.083984375 c 5
 179.475585938 104.415039062 177.758789062 97.763671875 172.922851562 88.01171875 c 4
 169.055664062 80.2138671875 163.18359375 70.4228515625 154.49609375 60.2021484375 c 4
 148.463867188 53.10546875 141.07421875 45.8056640625 132.088867188 38.8544921875 c 4
 120.857421875 30.166015625 107.140625 22.0341796875 90.556640625 15.4990234375 c 4
 66.669921875 6.0849609375 36.8955078125 0 0 0 c 4
 -36.8955078125 0 -66.669921875 6.0849609375 -90.556640625 15.4990234375 c 4
 -107.140625 22.0341796875 -120.857421875 30.166015625 -132.088867188 38.8544921875 c 4
 -141.07421875 45.8056640625 -148.463867188 53.10546875 -154.49609375 60.2021484375 c 4
 -163.18359375 70.4228515625 -169.055664062 80.2138671875 -172.922851562 88.01171875 c 4
 -177.758789062 97.763671875 -179.475585938 104.415039062 -179.642578125 105.083984375 c 4
 -179.876979391 106.020648067 -179.99953784 106.991567876 -179.99953784 107.977499399 c 4
 -179.99953784 109.037146545 -179.857967493 110.114134099 -179.561523438 111.184570312 c 4
 -178.090056451 116.498923731 -173.258405113 119.985986565 -167.998495691 119.985986565 c 4
 -166.940016102 119.985986565 -165.864193922 119.844775667 -164.794921875 119.548828125 c 4
 -162.728515625 118.9765625 -160.938476562 117.896484375 -159.516601562 116.483398438 c 5
EndSplineSet
Fore
SplineSet
-180 108 m 1,0,1
 -180 113 -180 113 -176.5 116.5 c 129,-1,2
 -173 120 -173 120 -168 120 c 1,3,4
 -164 120 -164 120 -160 117 c 1,5,6
 -139 98 -139 98 -97 85 c 129,-1,7
 -55 72 -55 72 0 72 c 129,-1,8
 55 72 55 72 97 85 c 129,-1,9
 139 98 139 98 160 117 c 1,10,11
 164 120 164 120 168 120 c 1,12,13
 173 120 173 120 176.5 116.5 c 129,-1,14
 180 113 180 113 180 108 c 1,15,16
 180 106 180 106 179 103 c 1,17,18
 163 57 163 57 117 28.5 c 129,-1,19
 71 0 71 0 0 0 c 129,-1,20
 -71 0 -71 0 -117 28.5 c 129,-1,21
 -163 57 -163 57 -179 103 c 1,22,23
 -180 106 -180 106 -180 108 c 1,0,1
EndSplineSet
Colour: ff00ff
EndChar

StartChar: smile_1c
Encoding: 67 -1 67
Width: 0
GlyphClass: 5
Flags: W
LayerCount: 2
Back
SplineSet
104.280273438 68.638671875 m 4
 108.48046875 64.607421875 109.223632812 58.1767578125 105.984375 53.3271484375 c 4
 104.54296875 51.1455078125 69.623046875 0 0 0 c 4
 -69.623046875 0 -104.51953125 51.1455078125 -105.984375 53.3271484375 c 4
 -109.200195312 58.2001953125 -108.48046875 64.6806640625 -104.231445312 68.7119140625 c 4
 -99.984375 72.7451171875 -93.431640625 73.080078125 -88.7998046875 69.599609375 c 4
 -88.560546875 69.408203125 -58.583984375 48 0 48 c 4
 58.583984375 48 88.583984375 69.408203125 88.8466796875 69.6494140625 c 4
 93.55078125 73.103515625 100.080078125 72.6962890625 104.280273438 68.638671875 c 4
EndSplineSet
Fore
SplineSet
-108 60 m 1,0,1
 -108 65 -108 65 -104.5 68.5 c 129,-1,2
 -101 72 -101 72 -96 72 c 1,3,4
 -92 72 -92 72 -88 69 c 1,5,6
 -74 60 -74 60 -50.5 54 c 129,-1,7
 -27 48 -27 48 0 48 c 129,-1,8
 27 48 27 48 50.5 54 c 129,-1,9
 74 60 74 60 88 69 c 1,10,11
 92 72 92 72 96 72 c 1,12,13
 101 72 101 72 104.5 68.5 c 129,-1,14
 108 65 108 65 108 60 c 1,15,16
 108 56 108 56 105 52 c 1,17,18
 88 29 88 29 60.5 14.5 c 129,-1,19
 33 0 33 0 0 0 c 129,-1,20
 -33 0 -33 0 -60.5 14.5 c 129,-1,21
 -88 29 -88 29 -105 52 c 1,22,23
 -108 56 -108 56 -108 60 c 1,0,1
EndSplineSet
Colour: ff00ff
EndChar

StartChar: mouth.kissing
Encoding: 68 -1 68
Width: 0
GlyphClass: 5
Flags: W
LayerCount: 2
Back
SplineSet
0.607421875 11.984375 m 5
 0.8896484375 11.970703125 12.671875 11.3779296875 29.0341796875 8.916015625 c 4
 42.130859375 6.9462890625 58.154296875 3.796875 73.73046875 -1.36328125 c 4
 79.5029296875 -3.275390625 85.220703125 -5.466796875 90.724609375 -8.0126953125 c 4
 95.1279296875 -10.048828125 99.396484375 -12.310546875 103.4453125 -14.857421875 c 4
 107.493164062 -17.404296875 111.327148438 -20.2373046875 114.831054688 -23.4384765625 c 4
 117.6328125 -25.9990234375 120.225585938 -28.7978515625 122.51171875 -31.8701171875 c 4
 125.083007812 -35.32421875 127.263671875 -39.12890625 128.876953125 -43.2568359375 c 4
 130.89453125 -48.419921875 132 -54.0595703125 132 -60 c 4
 132 -65.9404296875 130.89453125 -71.580078125 128.876953125 -76.7431640625 c 4
 127.263671875 -80.87109375 125.083007812 -84.67578125 122.51171875 -88.1298828125 c 4
 120.225585938 -91.2021484375 117.6328125 -94.0009765625 114.831054688 -96.5615234375 c 4
 111.327148438 -99.7626953125 107.493164062 -102.595703125 103.4453125 -105.142578125 c 4
 99.396484375 -107.689453125 95.1279296875 -109.951171875 90.724609375 -111.987304688 c 4
 85.220703125 -114.533203125 79.5029296875 -116.724609375 73.73046875 -118.63671875 c 4
 58.154296875 -123.796875 42.130859375 -126.946289062 29.0341796875 -128.916015625 c 4
 12.671875 -131.377929688 0.8896484375 -131.970703125 0.607421875 -131.984375 c 4
 -2.435546875 -132.13671875 -5.5380859375 -131.138671875 -7.9892578125 -128.951171875 c 4
 -12.931640625 -124.538085938 -13.3642578125 -116.9453125 -8.955078125 -112.006835938 c 4
 -6.7685546875 -109.55859375 -3.798828125 -108.21875 -0.7578125 -108.028320312 c 6
 -0.7578125 -108.028320312 0.603515625 -107.946289062 3.6318359375 -107.622070312 c 4
 7.2734375 -107.231445312 12.91796875 -106.506835938 19.5625 -105.2578125 c 4
 29.12890625 -103.458007812 40.7705078125 -100.544921875 51.384765625 -96.150390625 c 4
 57.75 -93.5146484375 63.7138671875 -90.3544921875 68.642578125 -86.75390625 c 4
 73.03125 -83.548828125 76.55859375 -80.03515625 79.08203125 -76.2763671875 c 4
 80.8369140625 -73.6611328125 82.1328125 -70.9169921875 82.9638671875 -67.904296875 c 4
 83.62890625 -65.4912109375 84 -62.8896484375 84 -60 c 4
 84 -57.1103515625 83.62890625 -54.5087890625 82.9638671875 -52.095703125 c 4
 82.1328125 -49.0830078125 80.8369140625 -46.3388671875 79.08203125 -43.7236328125 c 4
 76.55859375 -39.96484375 73.03125 -36.451171875 68.642578125 -33.24609375 c 4
 63.7138671875 -29.6455078125 57.75 -26.4853515625 51.384765625 -23.849609375 c 4
 43.427734375 -20.5556640625 34.884765625 -18.0830078125 27.078125 -16.3037109375 c 4
 20.13671875 -14.720703125 13.7783203125 -13.6796875 8.8984375 -13.01953125 c 4
 2.625 -12.169921875 -0.7587890625 -11.9765625 -0.7587890625 -11.9765625 c 6
 -3.57421875 -11.80078125 -6.3388671875 -10.6376953125 -8.48828125 -8.4892578125 c 4
 -13.171875 -3.806640625 -13.173828125 3.796875 -8.4912109375 8.4814453125 c 4
 -6.3408203125 10.6318359375 -3.5751953125 11.794921875 -0.7587890625 11.9716796875 c 6
 -0.7587890625 11.9716796875 0.603515625 12.0537109375 3.6318359375 12.3779296875 c 4
 7.2734375 12.7685546875 12.91796875 13.4931640625 19.5625 14.7421875 c 4
 29.12890625 16.5419921875 40.7705078125 19.455078125 51.384765625 23.849609375 c 4
 57.75 26.4853515625 63.7138671875 29.6455078125 68.642578125 33.24609375 c 4
 73.03125 36.451171875 76.55859375 39.96484375 79.08203125 43.7236328125 c 4
 80.8369140625 46.3388671875 82.1328125 49.0830078125 82.9638671875 52.095703125 c 4
 83.62890625 54.5087890625 84 57.1103515625 84 60 c 4
 84 62.8896484375 83.62890625 65.4912109375 82.9638671875 67.904296875 c 4
 82.1328125 70.9169921875 80.8369140625 73.6611328125 79.08203125 76.2763671875 c 4
 76.55859375 80.03515625 73.03125 83.548828125 68.642578125 86.75390625 c 4
 63.7138671875 90.3544921875 57.75 93.5146484375 51.384765625 96.150390625 c 4
 43.427734375 99.4443359375 34.884765625 101.916992188 27.078125 103.696289062 c 4
 20.13671875 105.279296875 13.7783203125 106.3203125 8.8984375 106.98046875 c 4
 2.625 107.830078125 -0.7587890625 108.0234375 -0.7587890625 108.0234375 c 6
 -3.798828125 108.213867188 -6.7685546875 109.552734375 -8.955078125 112.001953125 c 4
 -13.365234375 116.94140625 -12.931640625 124.533203125 -7.9892578125 128.9453125 c 4
 -5.5380859375 131.134765625 -2.435546875 132.1328125 0.607421875 131.98046875 c 4
 0.890625 131.965820312 12.6708984375 131.37890625 29.0341796875 128.916015625 c 4
 42.130859375 126.946289062 58.154296875 123.796875 73.73046875 118.63671875 c 4
 79.5029296875 116.724609375 85.220703125 114.533203125 90.724609375 111.987304688 c 4
 95.1279296875 109.951171875 99.396484375 107.689453125 103.4453125 105.142578125 c 4
 107.493164062 102.595703125 111.327148438 99.7626953125 114.831054688 96.5615234375 c 4
 117.6328125 94.0009765625 120.225585938 91.2021484375 122.51171875 88.1298828125 c 4
 125.083007812 84.67578125 127.263671875 80.87109375 128.876953125 76.7431640625 c 4
 130.89453125 71.580078125 132 65.9404296875 132 60 c 4
 132 54.0595703125 130.89453125 48.419921875 128.876953125 43.2568359375 c 4
 127.263671875 39.12890625 125.083007812 35.32421875 122.51171875 31.8701171875 c 4
 120.225585938 28.7978515625 117.6328125 25.9990234375 114.831054688 23.4384765625 c 4
 111.327148438 20.2373046875 107.493164062 17.404296875 103.4453125 14.857421875 c 4
 99.396484375 12.310546875 95.1279296875 10.048828125 90.724609375 8.0126953125 c 4
 85.220703125 5.466796875 79.5029296875 3.275390625 73.73046875 1.36328125 c 4
 58.154296875 -3.796875 42.130859375 -6.9462890625 29.0341796875 -8.916015625 c 4
 12.671875 -11.3779296875 0.8896484375 -11.970703125 0.607421875 -11.984375 c 5
 0.607421875 11.984375 l 5
EndSplineSet
Fore
SplineSet
-12 0 m 129,-1,1
 -12 5 -12 5 -8.5 8.5 c 129,-1,2
 -5 12 -5 12 0 12 c 1,3,4
 38 16 38 16 61 28.5 c 129,-1,5
 84 41 84 41 84 60 c 129,-1,6
 84 79 84 79 61 91.5 c 129,-1,7
 38 104 38 104 0 108 c 1,8,9
 -5 108 -5 108 -8.5 111.5 c 129,-1,10
 -12 115 -12 115 -12 120 c 129,-1,11
 -12 125 -12 125 -8.5 128.5 c 129,-1,12
 -5 132 -5 132 0 132 c 257,13,14
 2 132 2 132 13 131 c 1,15,16
 70 125 70 125 101 106.5 c 129,-1,17
 132 88 132 88 132 60 c 1,18,19
 132 20 132 20 70 0 c 1,20,21
 132 -20 132 -20 132 -60 c 1,22,23
 132 -88 132 -88 101 -106.5 c 129,-1,24
 70 -125 70 -125 13 -131 c 1,25,26
 2 -132 2 -132 0 -132 c 257,27,28
 -5 -132 -5 -132 -8.5 -128.5 c 129,-1,29
 -12 -125 -12 -125 -12 -120 c 129,-1,30
 -12 -115 -12 -115 -8.5 -111.5 c 129,-1,31
 -5 -108 -5 -108 0 -108 c 1,32,33
 38 -104 38 -104 61 -91.5 c 129,-1,34
 84 -79 84 -79 84 -60 c 129,-1,35
 84 -41 84 -41 61 -28.5 c 129,-1,36
 38 -16 38 -16 0 -12 c 1,37,38
 -5 -12 -5 -12 -8.5 -8.5 c 129,-1,0
 -12 -5 -12 -5 -12 0 c 129,-1,1
EndSplineSet
Colour: ff00ff
EndChar

StartChar: eyebrow.5
Encoding: 69 -1 69
Width: 0
GlyphClass: 5
Flags: W
LayerCount: 2
Back
SplineSet
4.7255859375 -23.5341796875 m 5
 4.7255859375 -23.5341796875 4.7265625 -23.541015625 4.689453125 -23.541015625 c 4
 3.19921875 -23.84765625 1.6181640625 -24.0078125 0.0009765625 -24.0078125 c 4
 -13.2470703125 -24.0078125 -24.0029296875 -13.251953125 -24.0029296875 -0.00390625 c 4
 -24.0029296875 11.626953125 -15.712890625 21.3359375 -4.7255859375 23.5341796875 c 4
 -4.0859375 23.662109375 0.765625 24.607421875 8.81640625 25.4296875 c 4
 15.2568359375 26.087890625 23.74609375 26.6669921875 33.77734375 26.6669921875 c 4
 44.6142578125 26.6669921875 57.2275390625 25.9921875 70.9609375 23.9775390625 c 4
 81.9462890625 22.3662109375 93.6513671875 19.896484375 105.719726562 16.205078125 c 4
 127.428710938 9.564453125 150.379882812 -1.0712890625 172.016601562 -17.74609375 c 4
 185.916992188 -28.4580078125 199.227539062 -41.6416015625 211.2109375 -57.6201171875 c 4
 214.217773438 -61.62890625 216 -66.607421875 216 -71.998046875 c 4
 216 -85.2421875 205.24609375 -95.9951171875 192.001953125 -95.9951171875 c 4
 184.149414062 -95.9951171875 177.171875 -92.21484375 172.81640625 -86.416015625 c 4
 172.79296875 -86.3759765625 172.7890625 -86.3798828125 172.7890625 -86.3798828125 c 6
 163.439453125 -73.9140625 153.309570312 -63.9208984375 142.754882812 -55.787109375 c 4
 126.350585938 -43.1455078125 108.806640625 -34.9453125 91.677734375 -29.705078125 c 4
 82.1689453125 -26.796875 72.80859375 -24.8125 63.9462890625 -23.5126953125 c 4
 52.8681640625 -21.8876953125 42.572265625 -21.3330078125 33.77734375 -21.3330078125 c 4
 25.63671875 -21.3330078125 18.7626953125 -21.8076171875 13.7421875 -22.3203125 c 4
 8.162109375 -22.890625 4.873046875 -23.5068359375 4.66015625 -23.546875 c 4
 4.580078125 -23.5625 4.7255859375 -23.5341796875 4.7255859375 -23.5341796875 c 5
EndSplineSet
Fore
SplineSet
-24 0 m 129,-1,1
 -24 10 -24 10 -17 17 c 1,2,3
 -11 23 -11 23 -2 24 c 1,4,5
 18 27 18 27 34 27 c 1,6,7
 86 27 86 27 132.5 6 c 129,-1,8
 179 -15 179 -15 210 -56 c 1,9,10
 216 -63 216 -63 216 -72 c 1,11,12
 216 -82 216 -82 209 -89 c 129,-1,13
 202 -96 202 -96 192 -96 c 1,14,15
 179 -96 179 -96 171 -84 c 1,16,17
 148 -54 148 -54 112.5 -37.5 c 129,-1,18
 77 -21 77 -21 32 -21 c 1,19,20
 21 -21 21 -21 8 -23 c 1,21,22
 3 -24 3 -24 0 -24 c 1,23,24
 -10 -24 -10 -24 -17 -17 c 129,-1,0
 -24 -10 -24 -10 -24 0 c 129,-1,1
EndSplineSet
Colour: ff00ff
EndChar

StartChar: SmilingFaceWithHalo.4
Encoding: 70 -1 70
Width: 864
Flags: W
LayerCount: 2
Back
SplineSet
0 324 m 1
 0 85.4130859375 193.413085938 -108 432 -108 c 1
 670.586914062 -108 864 85.4130859375 864 324 c 1
 864 562.586914062 670.586914062 756 432 756 c 1
 193.413085938 756 0 562.586914062 0 324 c 1
656.0390625 212.904296875 m 1
 651.768554688 216.768554688 645.384765625 217.0078125 640.799804688 213.599609375 c 1
 639.865234375 212.904296875 546.672851562 144 432 144 c 1
 317.615234375 144 224.111328125 212.904296875 223.200195312 213.599609375 c 1
 218.615234375 217.0078125 212.231445312 216.719726562 207.9609375 212.904296875 c 1
 203.711914062 209.064453125 202.752929688 202.727539062 205.704101562 197.831054688 c 1
 208.799804688 192.672851562 282.912109375 72 432 72 c 1
 581.087890625 72 655.223632812 192.672851562 658.295898438 197.831054688 c 1
 661.247070312 202.752929688 660.311523438 209.064453125 656.0390625 212.904296875 c 1
624 300 m 1
 613.943359375 300 604.583984375 306.361328125 601.247070312 316.416015625 c 1
 596.376953125 330.791992188 576.791992188 372 552 372 c 1
 526.51171875 372 506.665039062 328.153320312 502.752929688 316.416015625 c 1
 498.552734375 303.865234375 485.087890625 297.0234375 472.392578125 301.247070312 c 1
 459.838867188 305.423828125 453.0234375 319.0078125 457.223632812 331.607421875 c 1
 460.247070312 340.630859375 488.51953125 420 552 420 c 1
 615.48046875 420 643.752929688 340.630859375 646.752929688 331.583984375 c 1
 650.953125 319.0078125 644.161132812 305.400390625 631.583984375 301.223632812 c 1
 629.064453125 300.408203125 626.49609375 300 624 300 c 1
384 300 m 1
 373.943359375 300 364.583984375 306.361328125 361.223632812 316.416015625 c 1
 356.353515625 330.791992188 336.815429688 372 312 372 c 1
 286.51171875 372 266.688476562 328.153320312 262.776367188 316.416015625 c 1
 258.576171875 303.865234375 245.064453125 297.0234375 232.416015625 301.247070312 c 1
 219.838867188 305.423828125 213.046875 319.0078125 217.247070312 331.607421875 c 1
 220.247070312 340.630859375 248.51953125 420 312 420 c 1
 375.48046875 420 403.752929688 340.630859375 406.776367188 331.583984375 c 1
 410.9765625 319.0078125 404.184570312 305.400390625 391.607421875 301.223632812 c 1
 389.064453125 300.408203125 386.49609375 300 384 300 c 1
796.200195312 556.416015625 m 1
 796.200195312 556.416015625 579.192382812 552.552734375 432 552.552734375 c 1
 338.280273438 552.552734375 67.056640625 555.384765625 67.056640625 555.384765625 c 1
 54.552734375 534.361328125 l 17
 127.583984375 489.815429688 272.087890625 464.353515625 432 464.353515625 c 1
 590.303710938 464.353515625 733.823242188 489.311523438 807.646484375 532.9921875 c 9
 809.51953125 534.119140625 l 1
 809.51953125 534.119140625 800.54296875 550.056640625 796.200195312 556.416015625 c 1
570.646484375 747.719726562 m 1
 541.560546875 749.9765625 511.295898438 751.53515625 480.095703125 752.280273438 c 1
 464.231445312 752.665039062 448.223632812 752.904296875 432 752.904296875 c 1
 415.873046875 752.904296875 399.935546875 752.665039062 384.168945312 752.303710938 c 1
 352.919921875 751.560546875 322.630859375 750 293.51953125 747.743164062 c 1
 128.161132812 734.880859375 4.056640625 697.176757812 4.056640625 629.111328125 c 1
 4.056640625 543 202.392578125 490.607421875 432 490.607421875 c 1
 661.607421875 490.607421875 859.943359375 543 859.943359375 629.111328125 c 1
 859.943359375 697.153320312 735.912109375 734.831054688 570.646484375 747.719726562 c 1
432 578.807617188 m 1
 267.334960938 578.807617188 122.161132812 598.799804688 122.161132812 644.47265625 c 1
 122.161132812 657.334960938 134.015625 669.0234375 154.295898438 679.247070312 c 1
 181.96875 693.192382812 225.768554688 704.303710938 278.831054688 711.623046875 c 1
 324.696289062 717.912109375 377.184570312 721.46484375 432 721.46484375 c 1
 486.984375 721.46484375 539.638671875 717.912109375 585.599609375 711.552734375 c 1
 639.408203125 704.111328125 683.665039062 692.760742188 711.168945312 678.50390625 c 1
 730.53515625 668.47265625 741.838867188 657.046875 741.838867188 644.47265625 c 1
 741.838867188 598.799804688 596.665039062 578.807617188 432 578.807617188 c 1
585.599609375 711.52734375 m 17
 639.408203125 704.087890625 683.665039062 692.735351562 711.168945312 678.48046875 c 9
 712.657226562 678.072265625 l 1
 657.815429688 718.247070312 602.9765625 739.51171875 570.646484375 747.719726562 c 1
 541.560546875 749.9765625 511.295898438 751.53515625 480.095703125 752.280273438 c 1
 480.52734375 752.111328125 l 1
 585.599609375 711.52734375 l 17
154.295898438 679.223632812 m 1
 181.96875 693.168945312 225.768554688 704.280273438 278.831054688 711.599609375 c 9
 383.615234375 752.111328125 l 1
 384.168945312 752.303710938 l 1
 352.919921875 751.560546875 322.630859375 750 293.51953125 747.743164062 c 1
 261.192382812 739.53515625 206.327148438 718.295898438 151.46484375 678.095703125 c 1
 154.295898438 679.223632812 l 1
683.327148438 675 m 1
 667.48828125 685.630859375 651.0234375 696.838867188 635.303710938 705.239257812 c 1
 574.727539062 737.638671875 505.51171875 756 432 756 c 1
 361.704101562 756 295.319335938 739.200195312 236.638671875 709.416015625 c 1
 210.50390625 696.142578125 191.49609375 685.439453125 184.560546875 675 c 1
 683.327148438 675 l 1
EndSplineSet
Fore
SplineSet
4 629 m 3,0,1
 4 722 4 722 294 748 c 1,2,3
 216 726 216 726 152 678 c 1,4,5
 122 662 122 662 122 644 c 3,6,7
 122 614 122 614 206.5 596.5 c 128,-1,8
 291 579 291 579 432 579 c 131,-1,9
 573 579 573 579 657.5 596.5 c 128,-1,10
 742 614 742 614 742 644 c 3,11,12
 742 662 742 662 712 678 c 1,13,14
 648 726 648 726 570 748 c 1,15,16
 860 722 860 722 860 629 c 3,17,18
 860 570 860 570 740.5 530.5 c 128,-1,19
 621 491 621 491 432 491 c 131,-1,20
 243 491 243 491 123.5 530.5 c 128,-1,21
 4 570 4 570 4 629 c 3,0,1
EndSplineSet
Colour: 54abed
EndChar

StartChar: SmilingFaceWithHalo.0
Encoding: 71 -1 71
Width: 864
Flags: W
LayerCount: 2
Fore
SplineSet
150 677 m 1,0,1
 150 720 150 720 278 746 c 1,2,3
 326 752 326 752 432 753 c 1,4,5
 538 752 538 752 586 746 c 1,6,7
 714 720 714 720 714 677 c 1,8,9
 639 717 639 717 432 722 c 1,10,11
 225 717 225 717 150 677 c 1,0,1
EndSplineSet
Colour: 3b87c2
EndChar

StartChar: mouth.melting
Encoding: 72 -1 72
Width: 864
Flags: W
LayerCount: 2
Back
SplineSet
449.921875 180.415039062 m 0
 431.825195312 180.415039062 413.825195312 182.288085938 396.064453125 186.03125 c 0
 331.43359375 199.735351562 275.9921875 236.791992188 243.953125 287.696289062 c 0
 241.73046875 291.333007812 240.451171875 295.608398438 240.451171875 300.178710938 c 0
 240.451171875 313.42578125 251.204101562 324.178710938 264.451171875 324.178710938 c 0
 272.88671875 324.178710938 280.28125 319.868164062 284.560546875 313.280273438 c 0
 309.352539062 273.872070312 354.760742188 243.872070312 406 233 c 0
 448.41015625 224 514.16796875 223.568359375 586.864257812 272.407226562 c 0
 590.6875 274.9765625 595.28515625 276.4765625 600.233398438 276.4765625 c 0
 613.48046875 276.4765625 624.235351562 265.720703125 624.235351562 252.473632812 c 0
 624.235351562 244.172851562 620.061523438 236.87890625 613.6484375 232.568359375 c 0
 562.552734375 198.249023438 505.9140625 180.415039062 449.921875 180.415039062 c 0
EndSplineSet
Fore
SplineSet
240 300 m 1,0,1
 240 310 240 310 247 317 c 129,-1,2
 254 324 254 324 264 324 c 257,3,4
 277 324 277 324 285 312 c 1,5,6
 309 274 309 274 354.5 251 c 129,-1,7
 400 228 400 228 450 228 c 1,8,9
 520 228 520 228 586 272 c 1,10,11
 591 276 591 276 600 276 c 1,12,13
 610 276 610 276 617 269 c 129,-1,14
 624 262 624 262 624 252 c 1,15,16
 624 239 624 239 611 231 c 1,17,18
 533 180 533 180 450 180 c 1,19,20
 387 180 387 180 331 209 c 129,-1,21
 275 238 275 238 244 287 c 1,22,23
 240 293 240 293 240 300 c 1,0,1
EndSplineSet
Colour: ffff00
EndChar

StartChar: FaceSavoringFood.1
Encoding: 73 -1 73
Width: 864
Flags: W
LayerCount: 2
Back
SplineSet
0 324 m 0
 0 85.4130859375 193.413085938 -108 432 -108 c 0
 670.586914062 -108 864 85.4130859375 864 324 c 0
 864 562.586914062 670.586914062 756 432 756 c 0
 193.413085938 756 0 562.586914062 0 324 c 0
167.9765625 348 m 0
 164.376953125 348 160.704101562 348.815429688 157.272460938 350.51953125 c 0
 145.416015625 356.447265625 140.615234375 370.873046875 146.54296875 382.727539062 c 0
 147.791992188 385.247070312 178.176757812 444 264 444 c 0
 349.846679688 444 380.208007812 385.223632812 381.45703125 382.727539062 c 0
 387.384765625 370.873046875 382.560546875 356.447265625 370.727539062 350.51953125 c 0
 358.943359375 344.591796875 344.688476562 349.342773438 338.665039062 360.984375 c 0
 337.607421875 362.927734375 318.719726562 396 264 396 c 0
 208.392578125 396 189.623046875 361.607421875 189.45703125 361.272460938 c 0
 185.256835938 352.846679688 176.784179688 348 167.9765625 348 c 0
696 348 m 0
 699.599609375 348 703.272460938 348.815429688 706.704101562 350.51953125 c 0
 718.560546875 356.447265625 723.361328125 370.873046875 717.431640625 382.727539062 c 0
 716.184570312 385.247070312 685.799804688 444 599.9765625 444 c 0
 514.126953125 444 483.768554688 385.223632812 482.51953125 382.727539062 c 0
 476.591796875 370.873046875 481.416015625 356.447265625 493.247070312 350.51953125 c 0
 505.03125 344.591796875 519.288085938 349.342773438 525.311523438 360.984375 c 0
 526.369140625 362.927734375 545.256835938 396 599.9765625 396 c 0
 655.583984375 396 674.353515625 361.607421875 674.51953125 361.272460938 c 0
 678.719726562 352.846679688 687.192382812 348 696 348 c 0
708.072265625 191.51953125 m 0
 715.823242188 209.49609375 719.134765625 221.688476562 719.256835938 222.168945312 c 0
 722.47265625 234.984375 714.696289062 247.96875 701.857421875 251.208007812 c 0
 688.9921875 254.47265625 676.0078125 246.696289062 672.696289062 233.857421875 c 0
 670.919921875 226.776367188 625.943359375 60 432 60 c 0
 238.056640625 60 193.080078125 226.776367188 191.280273438 233.880859375 c 0
 187.96875 246.696289062 174.984375 254.47265625 162.119140625 251.231445312 c 0
 149.303710938 247.9921875 141.52734375 235.0078125 144.719726562 222.192382812 c 0
 145.247070312 220.080078125 199.943359375 12 432 12 c 0
 471.599609375 12 505.680664062 18.384765625 535.560546875 28.439453125 c 0
 639.48046875 63.431640625 688.53515625 146.280273438 708.072265625 191.51953125 c 0
777.768554688 115.657226562 m 2
 706.823242188 188.880859375 l 1
 706.823242188 188.880859375 690.50390625 199.392578125 676.272460938 175.247070312 c 0
 657.552734375 143.51953125 626.47265625 104.807617188 581.857421875 75.142578125 c 0
 563.111328125 62.6884765625 530.51953125 46.607421875 517.126953125 43.51171875 c 0
 499.48828125 39.45703125 507.815429688 20.376953125 507.815429688 20.376953125 c 1
 521.857421875 23.423828125 533.0390625 27.599609375 533.0390625 27.599609375 c 1
 540.142578125 20.49609375 l 1
 605.568359375 -44.927734375 l 2
 647.0390625 -86.400390625 725.568359375 -92.927734375 773.568359375 -44.927734375 c 0
 821.568359375 3.072265625 819.264648438 74.1611328125 777.768554688 115.657226562 c 2
717.9609375 10.2236328125 m 0
 723.072265625 15.3349609375 723.072265625 23.615234375 717.9609375 28.7275390625 c 2
 630.865234375 115.823242188 l 1
 611.760742188 97.873046875 l 1
 699.431640625 10.2001953125 l 2
 704.54296875 5.111328125 712.846679688 5.111328125 717.9609375 10.2236328125 c 0
EndSplineSet
Fore
Refer: 7 -1 N 1 0 0 1 0 0 0
Refer: 79 -1 N 1 0 0 1 600 420 0
Refer: 79 -1 N 1 0 0 1 264 420 0
Colour: 996633
EndChar

StartChar: FaceWithTongue.1
Encoding: 74 -1 74
Width: 864
Flags: W
LayerCount: 2
Back
SplineSet
864 324 m 0
 864 85.416015625 670.583984375 -108 432 -108 c 0
 193.439453125 -108 0 85.416015625 0 324 c 0
 0 562.560546875 193.439453125 756 432 756 c 0
 670.583984375 756 864 562.560546875 864 324 c 1024
216 408 m 0
 216 361.607421875 242.864257812 324 276 324 c 0
 309.135742188 324 336 361.607421875 336 408 c 0
 336 454.392578125 309.135742188 492 276 492 c 0
 242.864257812 492 216 454.392578125 216 408 c 0
528 408 m 0
 528 361.607421875 554.864257812 324 588 324 c 0
 621.135742188 324 648 361.607421875 648 408 c 0
 648 454.392578125 621.135742188 492 588 492 c 0
 554.864257812 492 528 454.392578125 528 408 c 0
168 245.711914062 m 1
 168 150.576171875 278.303710938 29.7119140625 432 29.7119140625 c 0
 585.696289062 29.7119140625 696 149.711914062 696 245.711914062 c 1
 696 245.711914062 448.0078125 179.568359375 168 245.711914062 c 1
445.080078125 189.50390625 m 2
 418.896484375 189.623046875 l 2
 341.711914062 191.400390625 288 203.927734375 288 203.927734375 c 1
 288 36.865234375 l 2
 288 -35.134765625 336 -107.134765625 432 -107.134765625 c 0
 528 -107.134765625 576 -35.134765625 576 36.865234375 c 2
 576 202.943359375 l 1
 529.873046875 193.48828125 485.111328125 189.935546875 445.080078125 189.50390625 c 2
432 -8.2314453125 m 0
 439.223632812 -8.2314453125 445.080078125 -2.376953125 445.080078125 4.8466796875 c 2
 445.080078125 189.50390625 l 1
 418.896484375 189.623046875 l 1
 418.896484375 4.8466796875 l 2
 418.919921875 -2.376953125 424.776367188 -8.2314453125 432 -8.2314453125 c 0
EndSplineSet
Fore
Refer: 93 -1 S 1 0 0 1 0 48 2
Refer: 80 -1 N 1 0 0 1 432 30 0
Colour: 996633
EndChar

StartChar: WinkingFaceWithTongue.3
Encoding: 75 -1 75
Width: 864
Flags: W
LayerCount: 2
Back
SplineSet
864 324 m 0
 864 85.416015625 670.583984375 -108 432 -108 c 0
 193.439453125 -108 0 85.416015625 0 324 c 0
 0 562.560546875 193.439453125 756 432 756 c 0
 670.583984375 756 864 562.560546875 864 324 c 1024
370.96875 376.439453125 m 0
 369.52734375 379.680664062 334.9921875 455.568359375 264 455.568359375 c 0
 193.03125 455.568359375 158.47265625 379.680664062 157.03125 376.439453125 c 0
 154.823242188 371.47265625 156.264648438 365.665039062 160.48828125 362.256835938 c 0
 164.735351562 358.823242188 170.735351562 358.727539062 175.126953125 361.919921875 c 0
 175.439453125 362.134765625 205.416015625 383.568359375 264 383.568359375 c 0
 322.223632812 383.568359375 352.176757812 362.423828125 352.846679688 361.943359375 c 0
 354.9609375 360.361328125 357.48046875 359.568359375 360 359.568359375 c 0
 362.638671875 359.568359375 365.303710938 360.45703125 367.46484375 362.184570312 c 0
 371.760742188 365.591796875 373.176757812 371.447265625 370.96875 376.439453125 c 0
744 432 m 0
 744 345.838867188 674.161132812 276 588 276 c 0
 501.838867188 276 432 345.838867188 432 432 c 0
 432 518.161132812 501.838867188 588 588 588 c 0
 674.161132812 588 744 518.161132812 744 432 c 0
528 432 m 0
 528 398.864257812 554.864257812 372 588 372 c 0
 621.135742188 372 648 398.864257812 648 432 c 0
 648 465.135742188 621.135742188 492 588 492 c 0
 554.864257812 492 528 465.135742188 528 432 c 0
168 245.711914062 m 1
 168 150.576171875 278.303710938 29.7119140625 432 29.7119140625 c 0
 585.696289062 29.7119140625 696 149.711914062 696 245.711914062 c 1
 696 245.711914062 448.0078125 179.568359375 168 245.711914062 c 1
445.080078125 189.50390625 m 2
 418.896484375 189.623046875 l 2
 341.711914062 191.400390625 288 203.927734375 288 203.927734375 c 1
 288 36.865234375 l 2
 288 -35.134765625 336 -107.134765625 432 -107.134765625 c 0
 528 -107.134765625 576 -35.134765625 576 36.865234375 c 2
 576 202.943359375 l 1
 529.873046875 193.48828125 485.111328125 189.935546875 445.080078125 189.50390625 c 2
432 -8.2314453125 m 0
 439.223632812 -8.2314453125 445.080078125 -2.376953125 445.080078125 4.8466796875 c 2
 445.080078125 189.50390625 l 1
 418.896484375 189.623046875 l 1
 418.896484375 4.8466796875 l 2
 418.919921875 -2.376953125 424.776367188 -8.2314453125 432 -8.2314453125 c 0
EndSplineSet
Fore
Refer: 80 -1 N 1 0 0 1 432 30 0
Refer: 14 -1 N -1 0 0 -1 264 456 0
Colour: 996633
EndChar

StartChar: ZanyFace.3
Encoding: 76 -1 76
Width: 864
Flags: W
LayerCount: 2
Back
SplineSet
854.327148438 414.431640625 m 4
 904.319335938 181.153320312 755.735351562 -48.50390625 522.45703125 -98.49609375 c 4
 289.176757812 -148.48828125 59.51953125 0.095703125 9.52734375 233.376953125 c 4
 -40.46484375 466.657226562 108.142578125 696.311523438 341.400390625 746.303710938 c 4
 574.680664062 796.319335938 804.334960938 647.711914062 854.327148438 414.431640625 c 1028
702.815429688 539.711914062 m 4
 721.51171875 452.447265625 665.927734375 366.52734375 578.665039062 347.831054688 c 4
 491.400390625 329.134765625 405.48046875 384.719726562 386.760742188 471.984375 c 4
 368.064453125 559.247070312 423.646484375 645.168945312 510.912109375 663.865234375 c 4
 598.176757812 682.560546875 684.119140625 627 702.815429688 539.711914062 c 4
486.45703125 533.015625 m 4
 486.45703125 506.015625 508.342773438 484.126953125 535.342773438 484.126953125 c 4
 562.342773438 484.126953125 584.231445312 506.015625 584.231445312 533.015625 c 4
 584.231445312 560.015625 562.342773438 581.904296875 535.342773438 581.904296875 c 4
 508.342773438 581.904296875 486.45703125 560.015625 486.45703125 533.015625 c 4
338.111328125 413.231445312 m 4
 349.056640625 362.208007812 316.53515625 311.9765625 265.51171875 301.03125 c 4
 214.48828125 290.087890625 164.256835938 322.607421875 153.311523438 373.630859375 c 4
 142.369140625 424.657226562 174.888671875 474.888671875 225.912109375 485.831054688 c 4
 276.935546875 496.776367188 327.168945312 464.256835938 338.111328125 413.231445312 c 4
348.693359375 485.51953125 m 4
 354.086914062 460.349609375 378.865234375 444.318359375 404.034179688 449.711914062 c 4
 429.204101562 455.104492188 445.235351562 479.8828125 439.83984375 505.052734375 c 4
 434.447265625 530.221679688 409.670898438 546.252929688 384.501953125 540.857421875 c 4
 359.33203125 535.46484375 343.30078125 510.689453125 348.693359375 485.51953125 c 4
447 253.51171875 m 4
 361.96875 235.295898438 303.45703125 233.111328125 230.760742188 231.719726562 c 4
 214.176757812 231.361328125 183.838867188 221.665039062 193.896484375 174.719726562 c 4
 214.0078125 80.857421875 346.9921875 -13.369140625 497.303710938 18.8388671875 c 4
 647.591796875 51.046875 730.295898438 191.49609375 710.184570312 285.361328125 c 4
 700.126953125 332.303710938 668.447265625 328.752929688 653.184570312 322.223632812 c 4
 586.319335938 293.735351562 532.03125 271.727539062 447 253.51171875 c 4
264 179.904296875 m 5
 264 35.904296875 l 6
 264 -36.095703125 312 -108.095703125 408 -108.095703125 c 4
 504 -108.095703125 552 -36.095703125 552 35.904296875 c 6
 552 179.904296875 l 5
 264 179.904296875 l 5
408 -9.1923828125 m 4
 415.223632812 -9.1923828125 421.080078125 -3.3349609375 421.080078125 3.888671875 c 6
 421.080078125 154.96875 l 5
 394.896484375 154.96875 l 5
 394.896484375 3.888671875 l 6
 394.919921875 -3.3349609375 400.776367188 -9.1923828125 408 -9.1923828125 c 4
240.815429688 184.776367188 m 6
 240.815429688 184.776367188 316.247070312 176.400390625 457.056640625 206.568359375 c 4
 597.865234375 236.735351562 663.239257812 275.303710938 663.239257812 275.303710938 c 5
 663.239257812 275.303710938 636.431640625 171.384765625 472.153320312 136.176757812 c 4
 307.873046875 100.96875 240.815429688 184.776367188 240.815429688 184.776367188 c 6
EndSplineSet
Fore
Refer: 36 -1 N 0.977796 0.20955 -0.20955 0.977796 497 19 0
Colour: 996633
EndChar

StartChar: SquintingFaceWithTongue.1
Encoding: 77 -1 77
Width: 864
Flags: W
LayerCount: 2
Back
SplineSet
864 324 m 0
 864 85.416015625 670.583984375 -108 432 -108 c 0
 193.439453125 -108 0 85.416015625 0 324 c 0
 0 562.560546875 193.439453125 756 432 756 c 0
 670.583984375 756 864 562.560546875 864 324 c 1024
144.0234375 276 m 0
 136.727539062 276 129.52734375 279.311523438 124.799804688 285.599609375 c 0
 116.831054688 296.184570312 118.9921875 311.231445312 129.599609375 319.176757812 c 0
 133.03125 321.743164062 200.423828125 371.568359375 294.142578125 389.568359375 c 1
 234.743164062 419.353515625 168.815429688 420 167.9765625 420 c 0
 154.727539062 420.046875 144 430.799804688 144.0234375 444.046875 c 0
 144.0234375 457.272460938 154.752929688 468 168 468 c 0
 173.303710938 468 298.846679688 467.087890625 376.96875 388.96875 c 0
 383.831054688 382.103515625 385.896484375 371.784179688 382.176757812 362.807617188 c 0
 378.45703125 353.831054688 369.696289062 348 360 348 c 0
 249.288085938 348 159.288085938 281.47265625 158.400390625 280.799804688 c 0
 154.080078125 277.560546875 149.015625 276 144.0234375 276 c 0
719.9765625 276.0234375 m 0
 714.984375 276.0234375 709.943359375 277.560546875 705.623046875 280.776367188 c 0
 704.711914062 281.47265625 614.161132812 348 504 348 c 0
 494.303710938 348 485.51953125 353.831054688 481.823242188 362.807617188 c 0
 478.103515625 371.784179688 480.168945312 382.103515625 487.03125 388.96875 c 0
 565.176757812 467.087890625 690.696289062 468 696 468 c 0
 709.247070312 468 719.953125 457.272460938 719.9765625 444.046875 c 0
 720 430.799804688 709.272460938 420.046875 696.046875 420 c 0
 695.184570312 420 629.256835938 419.353515625 569.857421875 389.568359375 c 1
 663.576171875 371.568359375 730.96875 321.768554688 734.376953125 319.176757812 c 0
 744.9609375 311.231445312 747.119140625 296.231445312 739.200195312 285.623046875 c 0
 734.49609375 279.361328125 727.295898438 276.0234375 719.9765625 276.0234375 c 0
168 245.688476562 m 1
 168 150.552734375 278.303710938 29.6884765625 432 29.6884765625 c 0
 585.696289062 29.6884765625 696 149.688476562 696 245.688476562 c 1
 696 245.688476562 448.0078125 179.54296875 168 245.688476562 c 1
445.080078125 189.50390625 m 2
 418.896484375 189.623046875 l 2
 341.711914062 191.400390625 288 203.927734375 288 203.927734375 c 1
 288 36.865234375 l 2
 288 -35.134765625 336 -107.134765625 432 -107.134765625 c 0
 528 -107.134765625 576 -35.134765625 576 36.865234375 c 2
 576 202.943359375 l 1
 529.873046875 193.46484375 485.111328125 189.912109375 445.080078125 189.50390625 c 2
432 -8.2568359375 m 0
 439.223632812 -8.2568359375 445.080078125 -2.400390625 445.080078125 4.8232421875 c 2
 445.080078125 189.48046875 l 1
 418.896484375 189.599609375 l 1
 418.896484375 4.8232421875 l 2
 418.919921875 -2.400390625 424.776367188 -8.2568359375 432 -8.2568359375 c 0
EndSplineSet
Fore
Refer: 80 -1 N 1 0 0 1 432 30 0
Refer: 35 -1 N -1 0 0 1 696 444 0
Refer: 35 -1 N 1 0 0 1 168 444 0
Colour: 996633
EndChar

StartChar: MoneyMouthFace.1
Encoding: 78 -1 78
Width: 864
Flags: W
LayerCount: 2
Back
SplineSet
864 324 m 0
 864 85.416015625 670.583984375 -108 432 -108 c 0
 193.439453125 -108 0 85.416015625 0 324 c 0
 0 562.560546875 193.439453125 756 432 756 c 0
 670.583984375 756 864 562.560546875 864 324 c 1024
168 245.688476562 m 1
 168 150.552734375 278.303710938 29.6884765625 432 29.6884765625 c 0
 585.696289062 29.6884765625 696 149.688476562 696 245.688476562 c 1
 696 245.688476562 448.0078125 179.54296875 168 245.688476562 c 1
288 203.927734375 m 2
 288 36.865234375 l 2
 288 -35.134765625 336 -107.134765625 432 -107.134765625 c 0
 528 -107.134765625 576 -35.134765625 576 36.865234375 c 2
 576 202.943359375 l 1
 425.015625 171.935546875 288 203.927734375 288 203.927734375 c 2
294.815429688 460.080078125 m 0
 276.672851562 467.087890625 259.51171875 473.711914062 259.51171875 483.311523438 c 0
 259.51171875 499.126953125 280.727539062 499.943359375 284.9765625 499.943359375 c 0
 299.9765625 499.943359375 307.439453125 494.327148438 314.015625 489.361328125 c 0
 319.056640625 485.54296875 324.288085938 481.607421875 331.560546875 481.607421875 c 0
 345.095703125 481.607421875 351.264648438 491.134765625 351.264648438 499.9921875 c 0
 351.264648438 517.657226562 329.615234375 530.134765625 306.672851562 535.369140625 c 2
 306.672851562 544.799804688 l 2
 306.672851562 557.231445312 296.568359375 567.334960938 284.134765625 567.334960938 c 0
 271.704101562 567.334960938 261.599609375 557.231445312 261.599609375 544.799804688 c 2
 261.599609375 534.576171875 l 2
 234.142578125 526.583984375 217.319335938 506.400390625 217.319335938 480.935546875 c 0
 217.319335938 449.47265625 248.353515625 436.560546875 275.735351562 425.184570312 c 0
 295.342773438 417.0234375 313.873046875 409.319335938 313.873046875 397.295898438 c 0
 313.873046875 388.51171875 302.831054688 379.0078125 285 379.0078125 c 0
 267 379.0078125 256.680664062 386.208007812 247.560546875 392.54296875 c 0
 241.272460938 396.935546875 235.319335938 401.087890625 228.215820312 401.087890625 c 0
 217.896484375 401.087890625 209.831054688 392.400390625 209.831054688 381.311523438 c 0
 209.831054688 365.015625 232.176757812 348.768554688 261.599609375 343.056640625 c 2
 261.599609375 331.776367188 l 2
 261.599609375 319.342773438 271.704101562 309.264648438 284.134765625 309.264648438 c 0
 296.568359375 309.264648438 306.672851562 319.369140625 306.672851562 331.776367188 c 2
 306.552734375 343.727539062 l 2
 337.657226562 351.288085938 356.0390625 373.056640625 356.0390625 402.743164062 c 0
 356.064453125 436.439453125 322.103515625 449.54296875 294.815429688 460.080078125 c 0
640.657226562 402.334960938 m 0
 640.657226562 436.03125 606.696289062 449.134765625 579.408203125 459.672851562 c 0
 561.264648438 466.680664062 544.126953125 473.303710938 544.126953125 482.904296875 c 0
 544.126953125 498.719726562 565.342773438 499.53515625 569.591796875 499.53515625 c 0
 584.591796875 499.53515625 592.03125 493.919921875 598.630859375 488.953125 c 0
 603.696289062 485.134765625 608.904296875 481.200195312 616.153320312 481.200195312 c 0
 629.711914062 481.200195312 635.880859375 490.727539062 635.880859375 499.583984375 c 0
 635.880859375 517.272460938 614.231445312 529.727539062 591.288085938 534.9609375 c 2
 591.288085938 544.369140625 l 2
 591.288085938 556.799804688 581.161132812 566.904296875 568.752929688 566.904296875 c 0
 556.319335938 566.904296875 546.192382812 556.799804688 546.192382812 544.369140625 c 2
 546.192382812 534.142578125 l 2
 518.760742188 526.153320312 501.912109375 505.96875 501.912109375 480.50390625 c 0
 501.912109375 449.0390625 532.943359375 436.126953125 560.327148438 424.752929688 c 0
 579.935546875 416.591796875 598.46484375 408.888671875 598.46484375 396.865234375 c 0
 598.46484375 388.080078125 587.447265625 378.576171875 569.615234375 378.576171875 c 0
 551.615234375 378.576171875 541.295898438 385.776367188 532.200195312 392.111328125 c 0
 525.888671875 396.50390625 519.935546875 400.657226562 512.857421875 400.657226562 c 0
 502.51171875 400.657226562 494.447265625 391.96875 494.447265625 380.880859375 c 0
 494.447265625 364.583984375 516.791992188 348.334960938 546.192382812 342.623046875 c 2
 546.192382812 331.342773438 l 2
 546.192382812 318.935546875 556.342773438 308.831054688 568.776367188 308.831054688 c 0
 581.208007812 308.831054688 591.288085938 318.935546875 591.288085938 331.342773438 c 2
 591.215820312 343.295898438 l 2
 622.295898438 350.904296875 640.657226562 372.646484375 640.657226562 402.334960938 c 0
503.280273438 10.3427734375 m 0
 503.280273438 43.1767578125 470.184570312 55.96875 443.591796875 66.2392578125 c 0
 425.904296875 73.056640625 409.176757812 79.53515625 409.176757812 88.873046875 c 0
 409.176757812 104.303710938 429.838867188 105.072265625 433.9921875 105.072265625 c 0
 448.607421875 105.072265625 455.880859375 99.576171875 462.311523438 94.7529296875 c 0
 467.231445312 91.03125 472.342773438 87.1923828125 479.423828125 87.1923828125 c 0
 492.623046875 87.1923828125 498.646484375 96.50390625 498.646484375 105.119140625 c 0
 498.646484375 122.327148438 477.552734375 134.49609375 455.161132812 139.607421875 c 2
 455.161132812 148.799804688 l 2
 455.161132812 160.919921875 445.295898438 170.784179688 433.176757812 170.784179688 c 0
 421.056640625 170.784179688 411.192382812 160.919921875 411.192382812 148.799804688 c 2
 411.192382812 138.838867188 l 2
 384.431640625 131.064453125 368.015625 111.361328125 368.015625 86.54296875 c 0
 368.015625 55.873046875 398.280273438 43.2724609375 424.96875 32.1845703125 c 0
 444.095703125 24.2392578125 462.142578125 16.7275390625 462.142578125 5.015625 c 0
 462.142578125 -3.552734375 451.392578125 -12.8154296875 433.9921875 -12.8154296875 c 0
 416.447265625 -12.8154296875 406.392578125 -5.8076171875 397.51171875 0.408203125 c 0
 391.392578125 4.6806640625 385.583984375 8.7353515625 378.672851562 8.7353515625 c 0
 368.615234375 8.7353515625 360.719726562 0.2392578125 360.719726562 -10.560546875 c 0
 360.719726562 -26.47265625 382.48828125 -42.2880859375 411.168945312 -47.857421875 c 2
 411.168945312 -58.873046875 l 2
 411.168945312 -70.96875 421.03125 -80.8076171875 433.176757812 -80.8076171875 c 0
 445.295898438 -80.8076171875 455.134765625 -70.96875 455.134765625 -58.873046875 c 2
 455.064453125 -47.2080078125 l 2
 485.376953125 -39.7919921875 503.280273438 -18.576171875 503.280273438 10.3427734375 c 0
EndSplineSet
Fore
Refer: 87 -1 N 0.25 0 0 0.25 569 309 0
Refer: 87 -1 N 0.25 0 0 0.25 284 309 0
Refer: 80 -1 N 1 0 0 1 432 30 0
Colour: 996633
EndChar

StartChar: eye.smiling2
Encoding: 79 -1 79
Width: 0
GlyphClass: 5
Flags: W
LayerCount: 2
Back
SplineSet
-74.51953125 -58.7099609375 m 1
 -74.51953125 -58.7099609375 -74.515625 -58.7119140625 -74.5439453125 -58.7578125 c 0
 -78.455078125 -66.5888671875 -86.599609375 -72.0029296875 -95.998046875 -72.0029296875 c 0
 -109.245117188 -72.0029296875 -120 -61.248046875 -120 -48.0009765625 c 0
 -120 -44.15234375 -119.092773438 -40.515625 -117.48046875 -37.2900390625 c 4
 -116.953125 -36.2353515625 -114.794921875 -32.0966796875 -110.498046875 -26.3369140625 c 0
 -107.0625 -21.7314453125 -102.251953125 -16.0830078125 -95.8056640625 -10.22265625 c 0
 -87.751953125 -2.900390625 -77.12109375 4.748046875 -63.640625 10.931640625 c 0
 -54.28515625 15.224609375 -43.5771484375 18.7978515625 -31.51953125 21.109375 c 0
 -21.873046875 22.9580078125 -11.3681640625 24 0 24 c 0
 11.3681640625 24 21.873046875 22.9580078125 31.51953125 21.109375 c 0
 43.5771484375 18.7978515625 54.28515625 15.224609375 63.640625 10.931640625 c 0
 77.12109375 4.748046875 87.751953125 -2.900390625 95.8056640625 -10.22265625 c 0
 102.251953125 -16.0830078125 107.0625 -21.7314453125 110.498046875 -26.3369140625 c 0
 114.794921875 -32.0966796875 116.953125 -36.2353515625 117.48046875 -37.2900390625 c 0
 119.092773438 -40.515625 120 -44.15234375 120 -48.0009765625 c 0
 120 -61.248046875 109.245117188 -72.0029296875 95.998046875 -72.0029296875 c 0
 86.599609375 -72.0029296875 78.455078125 -66.5888671875 74.5439453125 -58.7578125 c 0
 74.515625 -58.7119140625 74.51953125 -58.7099609375 74.51953125 -58.7099609375 c 1
 74.6640625 -58.9931640625 l 1
 74.6640625 -58.9931640625 74.689453125 -59.0400390625 74.6796875 -59.021484375 c 0
 74.669921875 -59.0029296875 74.255859375 -58.240234375 73.4013671875 -56.9697265625 c 0
 72.6328125 -55.826171875 71.5078125 -54.271484375 70.0048828125 -52.470703125 c 0
 66.9560546875 -48.8193359375 62.373046875 -44.1796875 55.98046875 -39.7314453125 c 0
 49.5830078125 -35.28125 41.3642578125 -30.984375 30.71484375 -27.9814453125 c 0
 22.1923828125 -25.5791015625 12.0732421875 -24 0 -24 c 0
 -12.0732421875 -24 -22.1923828125 -25.5791015625 -30.71484375 -27.9814453125 c 0
 -41.3642578125 -30.984375 -49.5830078125 -35.28125 -55.98046875 -39.7314453125 c 0
 -62.373046875 -44.1796875 -66.9560546875 -48.8193359375 -70.0048828125 -52.470703125 c 0
 -71.5078125 -54.271484375 -72.6328125 -55.826171875 -73.4013671875 -56.9697265625 c 0
 -74.255859375 -58.240234375 -74.669921875 -59.0029296875 -74.6796875 -59.021484375 c 0
 -74.689453125 -59.0400390625 -74.6640625 -58.9931640625 -74.6640625 -58.9931640625 c 1
 -74.51953125 -58.7099609375 l 1
EndSplineSet
Fore
SplineSet
-120 -48 m 1,0,1
 -120 -40 -120 -40 -115 -33 c 1,2,3
 -112 -28 -112 -28 -108 -23 c 1,4,5
 -68 24 -68 24 0 24 c 129,-1,6
 68 24 68 24 108 -23 c 1,7,8
 112 -28 112 -28 115 -33 c 1,9,10
 120 -40 120 -40 120 -48 c 1,11,12
 120 -58 120 -58 113 -65 c 129,-1,13
 106 -72 106 -72 96 -72 c 257,14,15
 82 -72 82 -72 74 -58 c 257,16,17
 70 -52 70 -52 66 -48 c 1,18,19
 41 -24 41 -24 0 -24 c 129,-1,20
 -41 -24 -41 -24 -66 -48 c 1,21,22
 -70 -52 -70 -52 -74 -58 c 257,23,24
 -82 -72 -82 -72 -96 -72 c 257,25,26
 -106 -72 -106 -72 -113 -65 c 129,-1,27
 -120 -58 -120 -58 -120 -48 c 1,0,1
EndSplineSet
Colour: ff00ff
EndChar

StartChar: mouth.grinning3
Encoding: 80 -1 80
Width: 0
GlyphClass: 5
Flags: W
LayerCount: 2
Back
SplineSet
-264 216 m 1
 16.0078125 149.857421875 264 216 264 216 c 1
 264 120 153.696289062 0 0 0 c 0
 -153.696289062 0 -264 120.865234375 -264 216 c 1
EndSplineSet
Fore
SplineSet
-264 216 m 5,0,1
 -137 186 -137 186 1.5 186.5 c 133,-1,2
 140 187 140 187 264 216 c 5,3,4
 264 167 264 167 228.5 116 c 133,-1,5
 193 65 193 65 132 32.5 c 133,-1,6
 71 0 71 0 0 0 c 133,-1,7
 -71 0 -71 0 -132 32.5 c 133,-1,8
 -193 65 -193 65 -228.5 116 c 133,-1,9
 -264 167 -264 167 -264 216 c 5,0,1
EndSplineSet
Colour: ff00ff
EndChar

StartChar: eyebrow_6a9
Encoding: 81 -1 81
Width: 0
GlyphClass: 5
Flags: W
LayerCount: 2
Back
SplineSet
7.99273168405 22.6347464334 m 1
 7.99273168405 22.6347464334 7.99358973731 22.6371763683 7.99662501831 22.6371763683 c 0
 7.99925474073 22.6371763683 8.00351874091 22.6353524026 8.01027491607 22.6285439577 c 0
 17.3189543536 19.3469464927 24.0059819515 10.4503464571 24.0059819515 0.00423220990231 c 0
 24.0059819515 -13.2442044992 13.2499311777 -24.000255273 0.00149446861617 -24.000255273 c 0
 -2.80082799331 -24.000255273 -5.491638293 -23.519017411 -7.99273168405 -22.6347464334 c 0
 -27.9978137389 -15.5618744129 -49.5204200747 -11.712890625 -71.9345703125 -11.712890625 c 0
 -84.3869917943 -11.712890625 -96.6132187894 -12.9017754444 -108.446668947 -15.1718322793 c 0
 -117.913387764 -16.9878698226 -127.128259472 -19.4955394535 -136.007268316 -22.6347464334 c 0
 -138.508361707 -23.519017411 -141.199172007 -24.000255273 -144.001494469 -24.000255273 c 0
 -157.249931178 -24.000255273 -168.005981952 -13.2442044992 -168.005981952 0.00423220990232 c 0
 -168.005981952 10.4503464571 -161.318954354 19.3469464927 -152.010274916 22.6285439577 c 0
 -152.003518741 22.6353524026 -151.999254741 22.6371763683 -151.996625018 22.6371763683 c 0
 -151.993589737 22.6371763683 -151.992731684 22.6347464334 -151.992731684 22.6347464334 c 1
 -140.866532194 26.5684561202 -129.350115323 29.7008327856 -117.529046931 31.9685143781 c 0
 -102.752763078 34.803106463 -87.4997269557 36.287109375 -71.9345703125 36.287109375 c 0
 -43.9170799253 36.287109375 -17.0139050111 31.4759369129 7.99273168405 22.6347464334 c 1
0 0 m 0
 -22.505859375 7.95703125 -46.71875 12.287109375 -71.9345703125 12.287109375 c 0
 -97.150390625 12.287109375 -121.494140625 7.95703125 -144 0 c 1024
EndSplineSet
Fore
SplineSet
-168 0 m 133,-1,1
 -168 10 -168 10 -161 17 c 5,2,3
 -157 21 -157 21 -151 23 c 5,4,5
 -114 36 -114 36 -72 36 c 133,-1,6
 -30 36 -30 36 7 23 c 5,7,8
 13 21 13 21 17 17 c 5,9,10
 24 10 24 10 24 0 c 133,-1,11
 24 -10 24 -10 17 -17 c 133,-1,12
 10 -24 10 -24 0 -24 c 5,13,14
 -5 -24 -5 -24 -10 -22 c 5,15,16
 -38 -12 -38 -12 -72 -12 c 133,-1,17
 -106 -12 -106 -12 -134 -22 c 5,18,19
 -139 -24 -139 -24 -144 -24 c 5,20,21
 -154 -24 -154 -24 -161 -17 c 133,-1,0
 -168 -10 -168 -10 -168 0 c 133,-1,1
EndSplineSet
Colour: ff00ff
EndChar

StartChar: eyebrow_1
Encoding: 82 -1 82
Width: 0
GlyphClass: 5
Flags: W
LayerCount: 2
Back
SplineSet
0 -24 m 1
 0 -24 0 -24 -1.44000000101e-08 -24 c 0
 -13.24596 -24 -24 -13.24596 -24 0 c 0
 -24 13.24596 -13.24596 24 -3.19809031316e-24 24 c 0
 0.419735792634 23.9999999999 4.41496027301 23.989770544 11.1572677201 23.595637217 c 0
 16.5513023284 23.2803195275 23.7036768799 22.7193259896 32.1941146051 21.7165183843 c 0
 40.6847075157 20.71369245 50.5135381086 19.2693418159 61.2643120602 17.1792112869 c 0
 69.8650536679 15.5070830581 79.0561983484 13.4215825987 88.6259242892 10.8116573422 c 0
 100.587951538 7.54928627426 113.143044361 3.46839167592 125.873060784 -1.66768685401 c 0
 136.056888497 -5.77647486636 146.354047863 -10.5614357634 156.538894332 -16.1559288942 c 0
 166.723025589 -21.7500291622 176.796965307 -28.1551050792 186.508116045 -35.5075702485 c 0
 194.276373174 -41.3890400674 201.812039253 -47.8775692535 208.967235 -55.032765 c 0
 213.310638137 -59.3761681374 215.998620949 -65.3749916006 215.998620949 -71.9966729041 c 0
 215.998620949 -85.2400355109 205.246689703 -95.991966757 192.003327096 -95.991966757 c 0
 185.381645793 -95.991966757 179.382822329 -93.3039839455 175.032765 -88.967235 c 0
 169.545985438 -83.4804554379 163.699770932 -78.4368672299 157.573593067 -73.7986414836 c 0
 149.916700061 -68.0014871965 141.821729771 -62.8388527645 133.480129417 -58.2568469361 c 0
 125.139244274 -53.6752339704 116.553850425 -49.6756930235 107.942347983 -46.2012785894 c 0
 97.17820171 -41.8583540612 86.3754178669 -38.33727591 75.9831292088 -35.5030153669 c 0
 67.6694024238 -33.2356353346 59.6193732644 -31.4072488338 52.0652645797 -29.938603576 c 0
 42.6224756658 -28.1027672468 33.9551239362 -26.8291408252 26.5141897974 -25.9502903364 c 0
 19.0731004732 -25.0714215186 12.8586032484 -24.5870392658 8.31769608342 -24.3215926271 c 0
 3.27207661097 -24.0266421513 0.292736301292 -24.0018538983 -0.0121652881564 -24.0000876498 c 0
 -0.0341051786745 -23.9999605553 -0.0417835623643 -23.9999018397 -0.0417835623643 -23.9998819109 c 0
 -0.0417835623643 -23.9998761576 -0.041143608527 -23.9998736369 -0.0400220990498 -23.9998736369 c 0
 -0.0320814562384 -23.9998736369 0 -24 0 -24 c 1
0 0 m 0
 0 0 120 0 192 -72 c 1024
EndSplineSet
Fore
SplineSet
-24 0 m 133,-1,1
 -24 10 -24 10 -17 17 c 133,-1,2
 -10 24 -10 24 0 24 c 5,3,4
 53 23 53 23 110.5 4 c 133,-1,5
 168 -15 168 -15 209 -55 c 5,6,7
 216 -62 216 -62 216 -72 c 133,-1,8
 216 -82 216 -82 209 -89 c 133,-1,9
 202 -96 202 -96 192 -96 c 133,-1,10
 182 -96 182 -96 175 -89 c 5,11,12
 144 -58 144 -58 95 -41.5 c 133,-1,13
 46 -25 46 -25 -0 -24 c 5,14,15
 -10 -24 -10 -24 -17 -17 c 133,-1,0
 -24 -10 -24 -10 -24 0 c 133,-1,1
EndSplineSet
Colour: ff00ff
EndChar

StartChar: FaceSavoringFood.2
Encoding: 83 -1 83
Width: 864
Flags: W
LayerCount: 2
Back
SplineSet
777.768554688 115.657226562 m 1
 819.264648438 74.1611328125 821.568359375 3.072265625 773.568359375 -44.927734375 c 0
 725.568359375 -92.927734375 647.0390625 -86.400390625 605.568359375 -44.927734375 c 2
 540.142578125 20.49609375 l 1
 533.0390625 27.599609375 l 1
 533.0390625 27.599609375 521.857421875 23.423828125 507.815429688 20.376953125 c 1
 507.815429688 20.376953125 499.48828125 39.45703125 517.126953125 43.51171875 c 0
 530.51953125 46.607421875 563.111328125 62.6884765625 581.857421875 75.142578125 c 0
 626.47265625 104.807617188 657.552734375 143.51953125 676.272460938 175.247070312 c 0
 690.50390625 199.392578125 706.823242188 188.880859375 706.823242188 188.880859375 c 1
 777.768554688 115.657226562 l 1
EndSplineSet
Fore
SplineSet
506.5 34.5 m 133,-1,1
 508 42 508 42 519 44 c 5,2,3
 547 53 547 53 583 76 c 5,4,5
 640 115 640 115 676 175 c 5,6,7
 683 186 683 186 690.5 189.5 c 132,-1,8
 698 193 698 193 707 189 c 5,9,-1
 778 116 l 5,10,11
 809 84 809 84 809 38 c 133,-1,12
 809 -8 809 -8 775.5 -43 c 133,-1,13
 742 -78 742 -78 691.5 -78.5 c 133,-1,14
 641 -79 641 -79 606 -45 c 13,15,-1
 533 28 l 21,16,17
 533 28 533 28 508 20 c 5,18,0
 505 27 505 27 506.5 34.5 c 133,-1,1
EndSplineSet
EndChar

StartChar: FaceSavoringFood.3
Encoding: 84 -1 84
Width: 864
Flags: W
LayerCount: 2
Back
SplineSet
717.9609375 10.2236328125 m 0
 712.846679688 5.111328125 704.54296875 5.111328125 699.431640625 10.2001953125 c 2
 611.760742188 97.873046875 l 1
 630.865234375 115.823242188 l 1
 717.9609375 28.7275390625 l 2
 723.072265625 23.615234375 723.072265625 15.3349609375 717.9609375 10.2236328125 c 0
EndSplineSet
Fore
SplineSet
612 98 m 1,0,-1
 631 116 l 1,1,-1
 718 29 l 17,2,3
 722 25 722 25 722 19.5 c 129,-1,4
 722 14 722 14 718 10 c 129,-1,5
 714 6 714 6 708.5 6 c 129,-1,6
 703 6 703 6 699 10 c 9,7,-1
 612 98 l 1,0,-1
EndSplineSet
EndChar

StartChar: ZanyFace.4
Encoding: 85 -1 85
Width: 864
Flags: W
LayerCount: 2
Back
SplineSet
264 179.904296875 m 5
 264 35.904296875 l 6
 264 -36.095703125 312 -108.095703125 408 -108.095703125 c 4
 504 -108.095703125 552 -36.095703125 552 35.904296875 c 6
 552 179.904296875 l 5
 264 179.904296875 l 5
EndSplineSet
Fore
SplineSet
264 180 m 1,0,-1
 552 180 l 1,1,-1
 552 36 l 17,2,3
 552 -24 552 -24 513 -66 c 129,-1,4
 474 -108 474 -108 408 -108 c 129,-1,5
 342 -108 342 -108 303 -66 c 129,-1,6
 264 -24 264 -24 264 36 c 9,7,8
 264 36 264 36 264 180 c 1,0,-1
EndSplineSet
EndChar

StartChar: ZanyFace.5
Encoding: 86 -1 86
Width: 864
Flags: W
LayerCount: 2
Back
SplineSet
408 -9.1923828125 m 4
 415.223632812 -9.1923828125 421.080078125 -3.3349609375 421.080078125 3.888671875 c 6
 421.080078125 154.96875 l 5
 394.896484375 154.96875 l 5
 394.896484375 3.888671875 l 6
 394.919921875 -3.3349609375 400.776367188 -9.1923828125 408 -9.1923828125 c 4
EndSplineSet
Fore
SplineSet
395 155 m 1,0,-1
 421 155 l 1,1,-1
 421 4 l 2,2,3
 421 -1 421 -1 417.5 -5 c 128,-1,4
 414 -9 414 -9 408 -9 c 128,-1,5
 402 -9 402 -9 398.5 -5 c 128,-1,6
 395 -1 395 -1 395 4 c 2,7,8
 395 4 395 4 395 155 c 1,0,-1
EndSplineSet
EndChar

